<?xml version="1.0" encoding="UTF-8" standalone="no"?>
<!DOCTYPE svg PUBLIC "-//W3C//DTD SVG 1.1//EN"
 "http://www.w3.org/Graphics/SVG/1.1/DTD/svg11.dtd">
<!-- Generated by graphviz version 2.43.0 (0)
 -->
<!-- Title: dependency&#45;cruiser output Pages: 1 -->
<svg width="264pt" height="350pt"
 viewBox="0.00 0.00 264.00 350.00" xmlns="http://www.w3.org/2000/svg" xmlns:xlink="http://www.w3.org/1999/xlink">
<g id="graph0" class="graph" transform="scale(1 1) rotate(0) translate(4 346)">
<title>dependency&#45;cruiser output</title>
<polygon fill="white" stroke="transparent" points="-4,4 -4,-346 260,-346 260,4 -4,4"/>
<g id="clust1" class="cluster">
<title>cluster_src</title>
<path fill="#ffffff" stroke="black" stroke-width="2" d="M20,-8C20,-8 236,-8 236,-8 242,-8 248,-14 248,-20 248,-20 248,-322 248,-322 248,-328 242,-334 236,-334 236,-334 20,-334 20,-334 14,-334 8,-328 8,-322 8,-322 8,-20 8,-20 8,-14 14,-8 20,-8"/>
<text text-anchor="middle" x="128" y="-322.8" font-family="Helvetica,sans-Serif" font-weight="bold" font-size="9.00">src</text>
</g>
<g id="clust2" class="cluster">
<title>cluster_src/components</title>
<path fill="#ffffff" stroke="black" stroke-width="2" d="M28,-106C28,-106 228,-106 228,-106 234,-106 240,-112 240,-118 240,-118 240,-296 240,-296 240,-302 234,-308 228,-308 228,-308 28,-308 28,-308 22,-308 16,-302 16,-296 16,-296 16,-118 16,-118 16,-112 22,-106 28,-106"/>
<text text-anchor="middle" x="128" y="-296.8" font-family="Helvetica,sans-Serif" font-weight="bold" font-size="9.00">components</text>
</g>
<g id="clust3" class="cluster">
<title>cluster_src/components/HomepageFeatures</title>
<path fill="#ffffff" stroke="black" stroke-width="2" d="M36,-140C36,-140 220,-140 220,-140 226,-140 232,-146 232,-152 232,-152 232,-270 232,-270 232,-276 226,-282 220,-282 220,-282 36,-282 36,-282 30,-282 24,-276 24,-270 24,-270 24,-152 24,-152 24,-146 30,-140 36,-140"/>
<text text-anchor="middle" x="128" y="-270.8" font-family="Helvetica,sans-Serif" font-weight="bold" font-size="9.00">HomepageFeatures</text>
</g>
<g id="clust4" class="cluster">
<title>cluster_src/pages</title>
<path fill="#ffffff" stroke="black" stroke-width="2" d="M48.5,-16C48.5,-16 219.5,-16 219.5,-16 225.5,-16 231.5,-22 231.5,-28 231.5,-28 231.5,-86 231.5,-86 231.5,-92 225.5,-98 219.5,-98 219.5,-98 48.5,-98 48.5,-98 42.5,-98 36.5,-92 36.5,-86 36.5,-86 36.5,-28 36.5,-28 36.5,-22 42.5,-16 48.5,-16"/>
<text text-anchor="middle" x="134" y="-86.8" font-family="Helvetica,sans-Serif" font-weight="bold" font-size="9.00">pages</text>
</g>
<!-- src/components/HomepageFeatures/docutopia.tsx -->
<g id="node1" class="node">
<title>src/components/HomepageFeatures/docutopia.tsx</title>
<g id="a_node1"><a xlink:href="src/components/HomepageFeatures/docutopia.tsx" xlink:title="docutopia.tsx">
<path fill="#bbfeff" stroke="black" d="M106.5,-256C106.5,-256 40.5,-256 40.5,-256 37.5,-256 34.5,-253 34.5,-250 34.5,-250 34.5,-244 34.5,-244 34.5,-241 37.5,-238 40.5,-238 40.5,-238 106.5,-238 106.5,-238 109.5,-238 112.5,-241 112.5,-244 112.5,-244 112.5,-250 112.5,-250 112.5,-253 109.5,-256 106.5,-256"/>
<text text-anchor="start" x="42.5" y="-244.8" font-family="Helvetica,sans-Serif" font-size="9.00">docutopia.tsx</text>
</a>
</g>
</g>
<!-- src/components/HomepageFeatures/styles.module.css -->
<g id="node2" class="node">
<title>src/components/HomepageFeatures/styles.module.css</title>
<g id="a_node2"><a xlink:href="src/components/HomepageFeatures/styles.module.css" xlink:title="styles.module.css">
<path fill="#ffffcc" stroke="black" d="M218,-211C218,-211 134,-211 134,-211 131,-211 128,-208 128,-205 128,-205 128,-199 128,-199 128,-196 131,-193 134,-193 134,-193 218,-193 218,-193 221,-193 224,-196 224,-199 224,-199 224,-205 224,-205 224,-208 221,-211 218,-211"/>
<text text-anchor="start" x="136" y="-199.8" font-family="Helvetica,sans-Serif" font-size="9.00">styles.module.css</text>
</a>
</g>
</g>
<!-- src/components/HomepageFeatures/docutopia.tsx&#45;&gt;src/components/HomepageFeatures/styles.module.css -->
<g id="edge1" class="edge">
<title>src/components/HomepageFeatures/docutopia.tsx&#45;&gt;src/components/HomepageFeatures/styles.module.css</title>
<path fill="none" stroke="#000000" stroke-width="2" stroke-opacity="0.200000" d="M100.38,-237.89C105.27,-236.04 110.32,-234.03 115,-232 127.65,-226.52 141.43,-219.69 152.59,-213.93"/>
<polygon fill="#000000" fill-opacity="0.200000" stroke="#000000" stroke-width="2" stroke-opacity="0.200000" points="153.81,-215.67 158.16,-211.04 151.87,-211.94 153.81,-215.67"/>
</g>
<!-- src/components/HomepageFeatures/utopia&#45;os.tsx -->
<g id="node3" class="node">
<title>src/components/HomepageFeatures/utopia&#45;os.tsx</title>
<g id="a_node3"><a xlink:href="src/components/HomepageFeatures/utopia-os.tsx" xlink:title="utopia&#45;os.tsx">
<path fill="#bbfeff" stroke="black" d="M105,-226C105,-226 42,-226 42,-226 39,-226 36,-223 36,-220 36,-220 36,-214 36,-214 36,-211 39,-208 42,-208 42,-208 105,-208 105,-208 108,-208 111,-211 111,-214 111,-214 111,-220 111,-220 111,-223 108,-226 105,-226"/>
<text text-anchor="start" x="44" y="-214.8" font-family="Helvetica,sans-Serif" font-size="9.00">utopia&#45;os.tsx</text>
</a>
</g>
</g>
<!-- src/components/HomepageFeatures/utopia&#45;os.tsx&#45;&gt;src/components/HomepageFeatures/styles.module.css -->
<g id="edge2" class="edge">
<title>src/components/HomepageFeatures/utopia&#45;os.tsx&#45;&gt;src/components/HomepageFeatures/styles.module.css</title>
<path fill="none" stroke="#000000" stroke-width="2" stroke-opacity="0.200000" d="M111.07,-211.54C114.59,-211.02 118.21,-210.48 121.85,-209.93"/>
<polygon fill="#000000" fill-opacity="0.200000" stroke="#000000" stroke-width="2" stroke-opacity="0.200000" points="122.36,-211.98 127.99,-209.02 121.74,-207.83 122.36,-211.98"/>
</g>
<!-- src/components/HomepageFeatures/utopia&#45;p2p.tsx -->
<g id="node4" class="node">
<title>src/components/HomepageFeatures/utopia&#45;p2p.tsx</title>
<g id="a_node4"><a xlink:href="src/components/HomepageFeatures/utopia-p2p.tsx" xlink:title="utopia&#45;p2p.tsx">
<path fill="#bbfeff" stroke="black" d="M109,-196C109,-196 38,-196 38,-196 35,-196 32,-193 32,-190 32,-190 32,-184 32,-184 32,-181 35,-178 38,-178 38,-178 109,-178 109,-178 112,-178 115,-181 115,-184 115,-184 115,-190 115,-190 115,-193 112,-196 109,-196"/>
<text text-anchor="start" x="40" y="-184.8" font-family="Helvetica,sans-Serif" font-size="9.00">utopia&#45;p2p.tsx</text>
</a>
</g>
</g>
<!-- src/components/HomepageFeatures/utopia&#45;p2p.tsx&#45;&gt;src/components/HomepageFeatures/styles.module.css -->
<g id="edge3" class="edge">
<title>src/components/HomepageFeatures/utopia&#45;p2p.tsx&#45;&gt;src/components/HomepageFeatures/styles.module.css</title>
<path fill="none" stroke="#000000" stroke-width="2" stroke-opacity="0.200000" d="M115.09,-193.06C117.34,-193.39 119.63,-193.74 121.92,-194.08"/>
<polygon fill="#000000" fill-opacity="0.200000" stroke="#000000" stroke-width="2" stroke-opacity="0.200000" points="121.75,-196.18 127.99,-194.98 122.37,-192.02 121.75,-196.18"/>
</g>
<!-- src/components/HomepageFeatures/utopia&#45;ui.tsx -->
<g id="node5" class="node">
<title>src/components/HomepageFeatures/utopia&#45;ui.tsx</title>
<g id="a_node5"><a xlink:href="src/components/HomepageFeatures/utopia-ui.tsx" xlink:title="utopia&#45;ui.tsx">
<path fill="#bbfeff" stroke="black" d="M104,-166C104,-166 43,-166 43,-166 40,-166 37,-163 37,-160 37,-160 37,-154 37,-154 37,-151 40,-148 43,-148 43,-148 104,-148 104,-148 107,-148 110,-151 110,-154 110,-154 110,-160 110,-160 110,-163 107,-166 104,-166"/>
<text text-anchor="start" x="45" y="-154.8" font-family="Helvetica,sans-Serif" font-size="9.00">utopia&#45;ui.tsx</text>
</a>
</g>
</g>
<!-- src/components/HomepageFeatures/utopia&#45;ui.tsx&#45;&gt;src/components/HomepageFeatures/styles.module.css -->
<g id="edge4" class="edge">
<title>src/components/HomepageFeatures/utopia&#45;ui.tsx&#45;&gt;src/components/HomepageFeatures/styles.module.css</title>
<path fill="none" stroke="#000000" stroke-width="2" stroke-opacity="0.200000" d="M105.11,-166.18C108.6,-167.84 111.98,-169.77 115,-172 122.65,-177.65 120.12,-183.68 128,-189 128.39,-189.27 128.79,-189.53 129.2,-189.78"/>
<polygon fill="#000000" fill-opacity="0.200000" stroke="#000000" stroke-width="2" stroke-opacity="0.200000" points="128.44,-191.76 134.71,-192.82 130.46,-188.08 128.44,-191.76"/>
</g>
<!-- src/components/data.ts -->
<g id="node6" class="node">
<title>src/components/data.ts</title>
<g id="a_node6"><a xlink:href="src/components/data.ts" xlink:title="data.ts">
<path fill="#ddfeff" stroke="black" d="M197,-132C197,-132 155,-132 155,-132 152,-132 149,-129 149,-126 149,-126 149,-120 149,-120 149,-117 152,-114 155,-114 155,-114 197,-114 197,-114 200,-114 203,-117 203,-120 203,-120 203,-126 203,-126 203,-129 200,-132 197,-132"/>
<text text-anchor="start" x="160" y="-120.8" font-family="Helvetica,sans-Serif" font-size="9.00">data.ts</text>
</a>
</g>
</g>
<!-- src/components/map.tsx -->
<g id="node7" class="node">
<title>src/components/map.tsx</title>
<g id="a_node7"><a xlink:href="src/components/map.tsx" xlink:title="map.tsx">
<path fill="#bbfeff" stroke="black" d="M94.5,-132C94.5,-132 52.5,-132 52.5,-132 49.5,-132 46.5,-129 46.5,-126 46.5,-126 46.5,-120 46.5,-120 46.5,-117 49.5,-114 52.5,-114 52.5,-114 94.5,-114 94.5,-114 97.5,-114 100.5,-117 100.5,-120 100.5,-120 100.5,-126 100.5,-126 100.5,-129 97.5,-132 94.5,-132"/>
<text text-anchor="start" x="55" y="-120.8" font-family="Helvetica,sans-Serif" font-size="9.00">map.tsx</text>
</a>
</g>
</g>
<!-- src/components/map.tsx&#45;&gt;src/components/data.ts -->
<g id="edge5" class="edge">
<title>src/components/map.tsx&#45;&gt;src/components/data.ts</title>
<path fill="none" stroke="#000000" stroke-width="2" stroke-opacity="0.200000" d="M100.64,-123C113.55,-123 129.25,-123 142.88,-123"/>
<polygon fill="#000000" fill-opacity="0.200000" stroke="#000000" stroke-width="2" stroke-opacity="0.200000" points="142.99,-125.1 148.99,-123 142.99,-120.9 142.99,-125.1"/>
</g>
<!-- src/pages/index.module.css -->
<g id="node8" class="node">
<title>src/pages/index.module.css</title>
<g id="a_node8"><a xlink:href="src/pages/index.module.css" xlink:title="index.module.css">
<path fill="#ffffcc" stroke="black" d="M217.5,-72C217.5,-72 134.5,-72 134.5,-72 131.5,-72 128.5,-69 128.5,-66 128.5,-66 128.5,-60 128.5,-60 128.5,-57 131.5,-54 134.5,-54 134.5,-54 217.5,-54 217.5,-54 220.5,-54 223.5,-57 223.5,-60 223.5,-60 223.5,-66 223.5,-66 223.5,-69 220.5,-72 217.5,-72"/>
<text text-anchor="start" x="136.5" y="-60.8" font-family="Helvetica,sans-Serif" font-size="9.00">index.module.css</text>
</a>
</g>
</g>
<!-- src/pages/index.tsx -->
<g id="node9" class="node">
<title>src/pages/index.tsx</title>
<g id="a_node9"><a xlink:href="src/pages/index.tsx" xlink:title="index.tsx">
<path fill="#bbfeff" stroke="black" d="M96.5,-72C96.5,-72 50.5,-72 50.5,-72 47.5,-72 44.5,-69 44.5,-66 44.5,-66 44.5,-60 44.5,-60 44.5,-57 47.5,-54 50.5,-54 50.5,-54 96.5,-54 96.5,-54 99.5,-54 102.5,-57 102.5,-60 102.5,-60 102.5,-66 102.5,-66 102.5,-69 99.5,-72 96.5,-72"/>
<text text-anchor="start" x="52.5" y="-60.8" font-family="Helvetica,sans-Serif" font-size="9.00">index.tsx</text>
</a>
</g>
</g>
<!-- src/pages/index.tsx&#45;&gt;src/pages/index.module.css -->
<g id="edge6" class="edge">
<title>src/pages/index.tsx&#45;&gt;src/pages/index.module.css</title>
<path fill="none" stroke="#000000" stroke-width="2" stroke-opacity="0.200000" d="M102.76,-63C108.81,-63 115.38,-63 122.02,-63"/>
<polygon fill="#000000" fill-opacity="0.200000" stroke="#000000" stroke-width="2" stroke-opacity="0.200000" points="122.12,-65.1 128.12,-63 122.12,-60.9 122.12,-65.1"/>
</g>
<!-- src/pages/map.module.css -->
<g id="node10" class="node">
<title>src/pages/map.module.css</title>
<g id="a_node10"><a xlink:href="src/pages/map.module.css" xlink:title="map.module.css">
<path fill="#ffffcc" stroke="black" d="M215.5,-42C215.5,-42 136.5,-42 136.5,-42 133.5,-42 130.5,-39 130.5,-36 130.5,-36 130.5,-30 130.5,-30 130.5,-27 133.5,-24 136.5,-24 136.5,-24 215.5,-24 215.5,-24 218.5,-24 221.5,-27 221.5,-30 221.5,-30 221.5,-36 221.5,-36 221.5,-39 218.5,-42 215.5,-42"/>
<text text-anchor="start" x="138.5" y="-30.8" font-family="Helvetica,sans-Serif" font-size="9.00">map.module.css</text>
</a>
</g>
</g>
<!-- src/pages/map.tsx -->
<g id="node11" class="node">
<title>src/pages/map.tsx</title>
<g id="a_node11"><a xlink:href="src/pages/map.tsx" xlink:title="map.tsx">
<path fill="#bbfeff" stroke="black" d="M94.5,-42C94.5,-42 52.5,-42 52.5,-42 49.5,-42 46.5,-39 46.5,-36 46.5,-36 46.5,-30 46.5,-30 46.5,-27 49.5,-24 52.5,-24 52.5,-24 94.5,-24 94.5,-24 97.5,-24 100.5,-27 100.5,-30 100.5,-30 100.5,-36 100.5,-36 100.5,-39 97.5,-42 94.5,-42"/>
<text text-anchor="start" x="55" y="-30.8" font-family="Helvetica,sans-Serif" font-size="9.00">map.tsx</text>
</a>
</g>
</g>
<!-- src/pages/map.tsx&#45;&gt;src/pages/map.module.css -->
<g id="edge7" class="edge">
<title>src/pages/map.tsx&#45;&gt;src/pages/map.module.css</title>
<path fill="none" stroke="#000000" stroke-width="2" stroke-opacity="0.200000" d="M100.64,-33C107.87,-33 115.98,-33 124.1,-33"/>
<polygon fill="#000000" fill-opacity="0.200000" stroke="#000000" stroke-width="2" stroke-opacity="0.200000" points="124.3,-35.1 130.3,-33 124.3,-30.9 124.3,-35.1"/>
</g>
</g>
</svg>
