<?xml version="1.0" encoding="UTF-8" standalone="no"?>
<!-- Created with Inkscape (http://www.inkscape.org/) -->

<svg
   xmlns:dc="http://purl.org/dc/elements/1.1/"
   xmlns:cc="http://creativecommons.org/ns#"
   xmlns:rdf="http://www.w3.org/1999/02/22-rdf-syntax-ns#"
   xmlns:svg="http://www.w3.org/2000/svg"
   xmlns="http://www.w3.org/2000/svg"
   xmlns:sodipodi="http://sodipodi.sourceforge.net/DTD/sodipodi-0.dtd"
   xmlns:inkscape="http://www.inkscape.org/namespaces/inkscape"
   version="1.1"
   id="svg2"
   xml:space="preserve"
   width="2829.3333"
   height="2829.3333"
   viewBox="0 0 2829.3333 2829.3333"
   sodipodi:docname="moon.svg"
   inkscape:version="0.92.5 (2060ec1f9f, 2020-04-08)"><metadata
     id="metadata8"><rdf:RDF><cc:Work
         rdf:about=""><dc:format>image/svg+xml</dc:format><dc:type
           rdf:resource="http://purl.org/dc/dcmitype/StillImage" /><dc:title></dc:title></cc:Work></rdf:RDF></metadata><defs
     id="defs6" /><sodipodi:namedview
     pagecolor="#ffffff"
     bordercolor="#666666"
     borderopacity="1"
     objecttolerance="10"
     gridtolerance="10"
     guidetolerance="10"
     inkscape:pageopacity="0"
     inkscape:pageshadow="2"
     inkscape:window-width="1920"
     inkscape:window-height="1129"
     id="namedview4"
     showgrid="false"
     inkscape:zoom="0.083411878"
     inkscape:cx="1414.6666"
     inkscape:cy="1414.6666"
     inkscape:window-x="0"
     inkscape:window-y="0"
     inkscape:window-maximized="1"
     inkscape:current-layer="g10" /><g
     id="g10"
     inkscape:groupmode="layer"
     inkscape:label="ink_ext_XXXXXX"
     transform="matrix(1.3333333,0,0,-1.3333333,0,2829.3333)"><g
       id="g12"
       transform="scale(0.1)"><path
         d="m 8568.4,11203.2 c -132.19,0 -258.91,-23.4 -376.29,-66.2 -73.52,322.1 -361.6,562.6 -706.09,562.6 -152.27,0 -293.52,-47.1 -410.16,-127.4 -46.33,426.6 -396.68,761.8 -829.88,784.5 73.4,142.1 115.07,303.3 115.07,474.3 0,571.9 -463.63,1035.5 -1035.5,1035.5 -491.17,0 -902.15,-342.1 -1008.48,-800.9 -65.94,16.5 -134.92,25.3 -205.98,25.3 -468.36,0 -848,-379.7 -848,-848 0,-38.6 2.85,-76.5 7.81,-113.8 -39.85,7.5 -80.86,11.6 -122.89,11.6 -347.11,0 -631.96,-266.2 -661.96,-605.5 -308.55,-15.8 -573.32,-196.6 -708.35,-455.8 -31.45,2.8 -63.32,4.4 -95.55,4.4 -546.52,0 -994.22,-421.7 -1036.212,-957.3 h 1249.292 342.47 480.66 446.64 228.95 1042.26 990.94 2038.24 4.18 432.97 1764.73 c -12.15,596.6 -499.3,1076.7 -1098.87,1076.7"
         style="fill:#e9e9e9;fill-opacity:1;fill-rule:nonzero;stroke:none"
         id="path14"
         inkscape:connector-curvature="0" /><path
         d="m 7054.65,4632.5 c -52.42,31.8 -104.3,64.4 -155.82,97.6 51.52,-33.2 103.4,-65.8 155.82,-97.6"
         style="fill:#fabe5f;fill-opacity:1;fill-rule:nonzero;stroke:none"
         id="path16"
         inkscape:connector-curvature="0" /><path
         d="m 6854.57,4759.2 c -36.37,23.8 -72.54,47.7 -108.4,72.1 35.86,-24.4 72.03,-48.3 108.4,-72.1"
         style="fill:#fabe5f;fill-opacity:1;fill-rule:nonzero;stroke:none"
         id="path18"
         inkscape:connector-curvature="0" /><path
         d="m 6538.83,4978.4 c -30.9,22.7 -61.6,45.7 -92.15,68.9 30.55,-23.2 61.25,-46.2 92.15,-68.9"
         style="fill:#fabe5f;fill-opacity:1;fill-rule:nonzero;stroke:none"
         id="path20"
         inkscape:connector-curvature="0" /><path
         d="m 6691.37,4869.3 c -32.11,22.3 -64.07,44.8 -95.78,67.7 31.71,-22.9 63.67,-45.4 95.78,-67.7"
         style="fill:#fabe5f;fill-opacity:1;fill-rule:nonzero;stroke:none"
         id="path22"
         inkscape:connector-curvature="0" /><path
         d="m 7212.54,4539.6 c -48.24,27.7 -96.17,55.8 -143.71,84.5 47.54,-28.7 95.47,-56.8 143.71,-84.5"
         style="fill:#fabe5f;fill-opacity:1;fill-rule:nonzero;stroke:none"
         id="path24"
         inkscape:connector-curvature="0" /><path
         d="m 7706.33,4283.2 c -34.77,16.4 -69.38,33 -103.79,49.8 34.41,-16.8 69.02,-33.4 103.79,-49.8"
         style="fill:#fabe5f;fill-opacity:1;fill-rule:nonzero;stroke:none"
         id="path26"
         inkscape:connector-curvature="0" /><path
         d="m 7537.77,4365.2 c -34.33,17.3 -68.51,35 -102.54,52.8 34.03,-17.8 68.17,-35.5 102.54,-52.8"
         style="fill:#fabe5f;fill-opacity:1;fill-rule:nonzero;stroke:none"
         id="path28"
         inkscape:connector-curvature="0" /><path
         d="m 7373.48,4450.6 c -36.33,19.5 -72.35,39.5 -108.25,59.6 35.9,-20.1 71.92,-40.1 108.25,-59.6"
         style="fill:#fabe5f;fill-opacity:1;fill-rule:nonzero;stroke:none"
         id="path30"
         inkscape:connector-curvature="0" /><path
         d="m 7882.07,4203.6 c -37.34,16.3 -74.61,32.7 -111.6,49.7 36.99,-17 74.26,-33.4 111.6,-49.7"
         style="fill:#fabe5f;fill-opacity:1;fill-rule:nonzero;stroke:none"
         id="path32"
         inkscape:connector-curvature="0" /><path
         d="m 5660.35,5744.8 c -26.99,27.9 -53.83,55.9 -80.39,84.2 26.56,-28.3 53.4,-56.3 80.39,-84.2"
         style="fill:#fabe5f;fill-opacity:1;fill-rule:nonzero;stroke:none"
         id="path34"
         inkscape:connector-curvature="0" /><path
         d="m 5794.26,5610.6 c -28.99,28.3 -57.89,56.8 -86.41,85.6 28.52,-28.8 57.42,-57.3 86.41,-85.6"
         style="fill:#fabe5f;fill-opacity:1;fill-rule:nonzero;stroke:none"
         id="path36"
         inkscape:connector-curvature="0" /><path
         d="m 5533.09,5879.4 c -26.76,29 -53.21,58.4 -79.46,87.9 26.25,-29.5 52.7,-58.9 79.46,-87.9"
         style="fill:#fabe5f;fill-opacity:1;fill-rule:nonzero;stroke:none"
         id="path38"
         inkscape:connector-curvature="0" /><path
         d="m 6108.79,5321.1 c -46.37,40 -92.19,80.7 -137.46,121.9 45.27,-41.2 91.09,-81.8 137.46,-121.9"
         style="fill:#fabe5f;fill-opacity:1;fill-rule:nonzero;stroke:none"
         id="path40"
         inkscape:connector-curvature="0" /><path
         d="m 6248.44,5203.7 c -36.64,30 -72.81,60.6 -108.75,91.3 35.94,-30.7 72.11,-61.3 108.75,-91.3"
         style="fill:#fabe5f;fill-opacity:1;fill-rule:nonzero;stroke:none"
         id="path42"
         inkscape:connector-curvature="0" /><path
         d="m 6391.64,5089.6 c -31.6,24.5 -62.85,49.5 -94.02,74.5 31.17,-25 62.42,-50 94.02,-74.5"
         style="fill:#fabe5f;fill-opacity:1;fill-rule:nonzero;stroke:none"
         id="path44"
         inkscape:connector-curvature="0" /><path
         d="m 5945.08,5467.5 c -35.94,33 -71.64,66.4 -106.88,100.2 35.24,-33.8 70.94,-67.2 106.88,-100.2"
         style="fill:#fabe5f;fill-opacity:1;fill-rule:nonzero;stroke:none"
         id="path46"
         inkscape:connector-curvature="0" /><path
         d="m 9633.71,3699.3 c -49.57,7.5 -98.91,15.5 -148.12,24 49.21,-8.5 98.55,-16.5 148.12,-24"
         style="fill:#fabe5f;fill-opacity:1;fill-rule:nonzero;stroke:none"
         id="path48"
         inkscape:connector-curvature="0" /><path
         d="m 9823.63,3673.7 c -41.05,4.9 -81.87,10.5 -122.65,16.2 40.78,-5.7 81.6,-11.3 122.65,-16.2"
         style="fill:#fabe5f;fill-opacity:1;fill-rule:nonzero;stroke:none"
         id="path50"
         inkscape:connector-curvature="0" /><path
         d="m 9445.86,3729.9 c -62.27,11.1 -124.22,23 -185.86,35.7 61.64,-12.7 123.59,-24.6 185.86,-35.7"
         style="fill:#fabe5f;fill-opacity:1;fill-rule:nonzero;stroke:none"
         id="path52"
         inkscape:connector-curvature="0" /><path
         d="m 5410.51,6015.9 c -28.79,33 -57.15,66.3 -85.35,99.9 28.2,-33.6 56.56,-66.9 85.35,-99.9"
         style="fill:#fabe5f;fill-opacity:1;fill-rule:nonzero;stroke:none"
         id="path54"
         inkscape:connector-curvature="0" /><path
         d="m 10016.4,3653 c -39.37,3.7 -78.67,7.8 -117.88,12.1 39.21,-4.3 78.51,-8.4 117.88,-12.1"
         style="fill:#fabe5f;fill-opacity:1;fill-rule:nonzero;stroke:none"
         id="path56"
         inkscape:connector-curvature="0" /><path
         d="m 10677.9,3621.6 c -65.5,0 -130.7,1.1 -195.8,2.9 65.1,-1.8 130.3,-2.9 195.8,-2.9"
         style="fill:#fabe5f;fill-opacity:1;fill-rule:nonzero;stroke:none"
         id="path58"
         inkscape:connector-curvature="0" /><path
         d="m 10418.8,3626.9 c -43.9,1.6 -87.8,3.4 -131.6,5.8 43.8,-2.4 87.7,-4.2 131.6,-5.8"
         style="fill:#fabe5f;fill-opacity:1;fill-rule:nonzero;stroke:none"
         id="path60"
         inkscape:connector-curvature="0" /><path
         d="m 10213.2,3637.4 c -40.2,2.6 -80.3,5.5 -120.3,8.8 40,-3.3 80.1,-6.2 120.3,-8.8"
         style="fill:#fabe5f;fill-opacity:1;fill-rule:nonzero;stroke:none"
         id="path62"
         inkscape:connector-curvature="0" /><path
         d="m 8638.98,3924 c -37.69,11.5 -75.23,23.3 -112.65,35.5 37.42,-12.2 74.96,-24 112.65,-35.5"
         style="fill:#fabe5f;fill-opacity:1;fill-rule:nonzero;stroke:none"
         id="path64"
         inkscape:connector-curvature="0" /><path
         d="m 8460.31,3980.9 c -41.68,13.9 -83.08,28.5 -124.45,43.2 41.37,-14.7 82.77,-29.3 124.45,-43.2"
         style="fill:#fabe5f;fill-opacity:1;fill-rule:nonzero;stroke:none"
         id="path66"
         inkscape:connector-curvature="0" /><path
         d="m 8284.49,4042.1 c -58.2,21.3 -116.01,43.1 -173.47,65.8 57.46,-22.7 115.27,-44.5 173.47,-65.8"
         style="fill:#fabe5f;fill-opacity:1;fill-rule:nonzero;stroke:none"
         id="path68"
         inkscape:connector-curvature="0" /><path
         d="m 8085.51,4118.3 c -48.79,19.6 -97.42,39.5 -145.67,60 48.25,-20.5 96.88,-40.4 145.67,-60"
         style="fill:#fabe5f;fill-opacity:1;fill-rule:nonzero;stroke:none"
         id="path70"
         inkscape:connector-curvature="0" /><path
         d="m 9008.32,3822.8 c -38.83,9.5 -77.54,19.2 -116.09,29.3 38.55,-10.1 77.26,-19.8 116.09,-29.3"
         style="fill:#fabe5f;fill-opacity:1;fill-rule:nonzero;stroke:none"
         id="path72"
         inkscape:connector-curvature="0" /><path
         d="m 9209.88,3776.5 c -44.96,9.6 -89.8,19.4 -134.41,29.9 44.61,-10.5 89.45,-20.3 134.41,-29.9"
         style="fill:#fabe5f;fill-opacity:1;fill-rule:nonzero;stroke:none"
         id="path74"
         inkscape:connector-curvature="0" /><path
         d="m 8820.94,3871.4 c -37.23,10.2 -74.34,20.7 -111.29,31.6 36.95,-10.9 74.06,-21.4 111.29,-31.6"
         style="fill:#fabe5f;fill-opacity:1;fill-rule:nonzero;stroke:none"
         id="path76"
         inkscape:connector-curvature="0" /><g
         id="g78"
         transform="scale(1.03317)"><path
           d="m 16242.6,13575.2 c 19.4,-34.6 38.6,-69.2 57.4,-104.2 -18.8,35 -38,69.6 -57.4,104.2"
           style="fill:#fabe5f;fill-opacity:1;fill-rule:nonzero;stroke:none"
           id="path80"
           inkscape:connector-curvature="0" /></g><path
         d="m 16127.8,14992.8 c 24.8,-30.7 49.4,-61.6 73.6,-92.8 -24.2,31.2 -48.8,62.1 -73.6,92.8"
         style="fill:#fabe5f;fill-opacity:1;fill-rule:nonzero;stroke:none"
         id="path82"
         inkscape:connector-curvature="0" /><g
         id="g84"
         transform="scale(1.07453)"><path
           d="m 16272.2,11368.6 c 9.7,-41.6 18.9,-83.5 27.8,-125.4 -8.9,41.9 -18.1,83.8 -27.8,125.4"
           style="fill:#fabe5f;fill-opacity:1;fill-rule:nonzero;stroke:none"
           id="path86"
           inkscape:connector-curvature="0" /></g><g
         id="g88"
         transform="scale(1.07738)"><path
           d="m 16267,11167.2 c 11.7,-57.2 22.8,-114.7 33,-172.5 -10.2,57.8 -21.3,115.3 -33,172.5"
           style="fill:#fabe5f;fill-opacity:1;fill-rule:nonzero;stroke:none"
           id="path90"
           inkscape:connector-curvature="0" /></g><g
         id="g92"
         transform="scale(1.07169)"><path
           d="m 16272.5,11569.7 c 9.5,-36.1 18.5,-72.3 27.5,-108.6 -9,36.3 -18,72.5 -27.5,108.6"
           style="fill:#fabe5f;fill-opacity:1;fill-rule:nonzero;stroke:none"
           id="path94"
           inkscape:connector-curvature="0" /></g><g
         id="g96"
         transform="scale(1.06871)"><path
           d="m 16270.4,11772.7 c 10.1,-34.6 20,-69.3 29.6,-104.2 -9.6,34.9 -19.5,69.6 -29.6,104.2"
           style="fill:#fabe5f;fill-opacity:1;fill-rule:nonzero;stroke:none"
           id="path98"
           inkscape:connector-curvature="0" /></g><g
         id="g100"
         transform="scale(1.07926)"><path
           d="m 16277.8,10938.1 c 7.8,-45.4 15.3,-91 22.2,-136.7 -6.9,45.7 -14.4,91.3 -22.2,136.7"
           style="fill:#fabe5f;fill-opacity:1;fill-rule:nonzero;stroke:none"
           id="path102"
           inkscape:connector-curvature="0" /></g><g
         id="g104"
         transform="scale(1.0821)"><path
           d="m 16288.9,10528.4 c 4,-36.2 7.8,-72.5 11.1,-109 -3.3,36.5 -7.1,72.8 -11.1,109"
           style="fill:#fabe5f;fill-opacity:1;fill-rule:nonzero;stroke:none"
           id="path106"
           inkscape:connector-curvature="0" /></g><g
         id="g108"
         transform="scale(1.06548)"><path
           d="m 16266.7,11980.4 c 11.3,-35.1 22.5,-70.2 33.3,-105.6 -10.8,35.4 -22,70.5 -33.3,105.6"
           style="fill:#fabe5f;fill-opacity:1;fill-rule:nonzero;stroke:none"
           id="path110"
           inkscape:connector-curvature="0" /></g><path
         d="m 14993.2,16114.9 c 48.1,-37.7 95.6,-76.2 142.5,-115.2 -46.9,39 -94.4,77.5 -142.5,115.2"
         style="fill:#fabe5f;fill-opacity:1;fill-rule:nonzero;stroke:none"
         id="path112"
         inkscape:connector-curvature="0" /><g
         id="g114"
         transform="scale(1.06199)"><path
           d="m 16259.2,12199.3 c 14,-39 27.6,-78 40.8,-117.3 -13.2,39.3 -26.8,78.3 -40.8,117.3"
           style="fill:#fabe5f;fill-opacity:1;fill-rule:nonzero;stroke:none"
           id="path116"
           inkscape:connector-curvature="0" /></g><g
         id="g118"
         transform="scale(1.08007)"><path
           d="m 4231.19,8919.02 c 0,142.12 49.16,272.48 130.93,376 -0.47,-0.28 -0.98,-0.65 -1.45,-1.02 1.41,1.76 3,3.33 4.38,5 9.73,12.03 20.1,23.61 30.7,34.9 3.84,4.07 7.38,8.52 11.36,12.5 14.83,15 30.41,29.26 46.72,42.68 3.48,2.78 7.24,5.28 10.78,8.06 13.09,10.18 26.47,20.09 40.4,29.35 6.26,4.07 12.8,7.68 19.2,11.67 11.83,7.12 23.69,14.07 35.95,20.45 7.38,3.8 14.94,7.32 22.5,10.84 11.97,5.55 24.09,10.83 36.45,15.65 8,3.05 15.99,6.01 24.13,8.79 12.69,4.26 25.64,8.06 38.7,11.57 8.1,2.14 16.09,4.45 24.27,6.21 14.42,3.24 29.11,5.64 43.86,7.77 7.16,1.02 14.22,2.5 21.45,3.34 22.13,2.41 44.56,3.89 67.31,3.89 335.59,0 607.67,-272.02 607.67,-607.65 0,-22.77 -1.52,-45.18 -3.95,-67.4 -0.79,-7.22 -2.23,-14.26 -3.25,-21.48 -2.21,-14.72 -4.56,-29.35 -7.77,-43.79 -1.82,-8.24 -4.09,-16.2 -6.26,-24.35 -3.47,-13.06 -7.23,-25.93 -11.54,-38.61 -2.79,-8.15 -5.75,-16.21 -8.86,-24.26 -4.81,-12.22 -10.02,-24.35 -15.55,-36.29 -3.55,-7.51 -7.06,-15.1 -10.93,-22.59 -6.32,-12.22 -13.23,-23.99 -20.36,-35.84 -3.9,-6.38 -7.59,-12.96 -11.75,-19.25 -9.15,-13.98 -19.1,-27.32 -29.33,-40.37 -2.78,-3.52 -5.25,-7.31 -8.07,-10.83 -13.42,-16.3 -27.66,-31.85 -42.64,-46.76 -3.98,-3.89 -8.35,-7.41 -12.4,-11.2 -11.36,-10.65 -22.9,-21.11 -35.01,-30.83 -1.74,-1.3 -3.26,-2.97 -4.99,-4.36 0.36,0.47 0.68,1.02 1.05,1.39 -103.52,-81.66 -233.93,-130.91 -376.06,-130.91 -335.59,0 -607.64,272.11 -607.64,607.73 z m 1503.59,4341.08 c 1.49,1.9 3.25,3.6 4.74,5.4 10.37,12.9 21.45,25.2 32.8,37.3 4.12,4.5 7.96,9.2 12.26,13.5 15.88,16.1 32.55,31.3 50.06,45.7 3.76,3.1 7.88,5.7 11.75,8.8 14,10.9 28.21,21.5 43.07,31.3 6.77,4.5 13.86,8.4 20.8,12.6 12.55,7.6 25.2,15.1 38.34,21.8 7.96,4.1 16.06,7.9 24.22,11.7 12.77,6 25.73,11.6 38.96,16.7 8.57,3.3 17.18,6.5 25.89,9.5 13.64,4.6 27.49,8.6 41.49,12.4 8.64,2.3 17.21,4.7 26.03,6.6 15.45,3.5 31.22,6 47.06,8.4 7.66,1.1 15.15,2.6 22.93,3.5 23.72,2.6 47.74,4.2 72.16,4.2 359.78,0 651.38,-291.6 651.38,-651.4 0,-24.4 -1.59,-48.4 -4.19,-72.1 -0.87,-7.8 -2.39,-15.3 -3.51,-22.9 -2.31,-15.9 -4.88,-31.7 -8.31,-47.2 -1.96,-8.7 -4.34,-17.3 -6.66,-25.8 -3.76,-14.1 -7.82,-28.1 -12.48,-41.8 -2.96,-8.6 -6.07,-17.1 -9.36,-25.6 -5.21,-13.4 -10.85,-26.4 -16.86,-39.3 -3.76,-8.1 -7.44,-16.1 -11.54,-23.9 -6.83,-13.3 -14.32,-26.1 -22.06,-38.8 -4.12,-6.8 -7.99,-13.7 -12.33,-20.4 -9.95,-15 -20.69,-29.5 -31.83,-43.7 -2.86,-3.6 -5.38,-7.5 -8.35,-11.1 -14.35,-17.6 -29.66,-34.3 -45.71,-50.2 -4.31,-4.3 -9.04,-8.1 -13.49,-12.3 -12.09,-11.3 -24.34,-22.3 -37.25,-32.7 -1.88,-1.5 -3.55,-3.2 -5.43,-4.8 0.4,0.6 0.73,1.1 1.12,1.6 -110.96,-87.7 -250.78,-140.3 -403.14,-140.3 -359.76,0 -651.37,291.6 -651.37,651.3 0,152.4 52.7,292.2 140.36,403.1 -0.5,-0.3 -1.04,-0.7 -1.55,-1.1 z m 2549.27,-2986.3 c 0,-21.3 -0.72,-42.4 -1.88,-63.4 -0.36,-6.8 -1.05,-13.7 -1.56,-20.4 -1.01,-14.2 -2.13,-28.3 -3.68,-42.4 -0.91,-7.8 -1.99,-15.6 -3,-23.5 -1.71,-12.8 -3.55,-25.7 -5.65,-38.4 -1.37,-8.1 -2.82,-16.1 -4.31,-24.1 -2.38,-12.5 -4.98,-24.9 -7.74,-37.3 -1.73,-7.8 -3.47,-15.5 -5.35,-23.1 -3.17,-12.99 -6.68,-25.86 -10.34,-38.64 -1.92,-6.76 -3.72,-13.61 -5.79,-20.37 -4.7,-15.55 -9.87,-30.83 -15.22,-46.11 -1.34,-3.79 -2.5,-7.68 -3.87,-11.38 -6.91,-18.98 -14.36,-37.69 -22.21,-56.2 -1.99,-4.72 -4.23,-9.26 -6.29,-13.89 -6.08,-13.7 -12.23,-27.31 -18.81,-40.74 -3.15,-6.39 -6.47,-12.59 -9.73,-18.98 -5.92,-11.48 -11.97,-22.96 -18.26,-34.26 -3.69,-6.66 -7.52,-13.14 -11.32,-19.72 -6.36,-10.83 -12.84,-21.57 -19.56,-32.21 -4.02,-6.4 -8.1,-12.78 -12.23,-19.08 -7.05,-10.74 -14.36,-21.29 -21.73,-31.76 -4.13,-5.74 -8.18,-11.66 -12.38,-17.31 -8.57,-11.67 -17.46,-23.06 -26.47,-34.35 -3.33,-4.17 -6.51,-8.52 -9.91,-12.68 -12.62,-15.38 -25.6,-30.46 -38.99,-45.19 -1.52,-1.66 -3.11,-3.24 -4.67,-4.81 -11.85,-12.96 -23.97,-25.56 -36.45,-37.87 -4.55,-4.54 -9.29,-8.89 -13.96,-13.33 -9.65,-9.17 -19.42,-18.33 -29.37,-27.22 -5.53,-5 -11.17,-9.72 -16.77,-14.63 -9.52,-8.15 -19.14,-16.11 -28.9,-23.98 -3.05,-2.41 -5.86,-5 -8.9,-7.41 0.22,0.28 0.44,0.65 0.65,0.93 -193.38,-152.21 -437.18,-243.23 -702.39,-243.23 -627.99,0 -1137.04,509.04 -1137.04,1137.02 0,265.2 91.03,509.1 243.26,702.5 -0.33,-0.3 -0.66,-0.5 -0.98,-0.7 2.46,3.1 5.14,6 7.59,9.1 7.71,9.6 15.59,19 23.58,28.3 4.96,5.8 9.88,11.6 14.98,17.3 8.68,9.8 17.62,19.2 26.61,28.7 4.67,4.9 9.23,9.8 14,14.7 11.83,11.9 23.98,23.5 36.35,35 2.13,1.9 4.16,4 6.3,6 14.61,13.3 29.58,26.2 44.87,38.7 4.53,3.7 9.23,7.2 13.79,10.8 10.92,8.7 21.92,17.3 33.16,25.6 5.93,4.4 12.04,8.6 18.09,12.9 10.15,7.1 20.47,14.3 30.88,21.1 6.59,4.3 13.23,8.6 19.89,12.8 10.31,6.5 20.76,12.8 31.29,19 6.79,4 13.6,7.9 20.51,11.8 10.98,6.1 22.16,12 33.41,17.7 6.54,3.4 13.09,6.9 19.71,10.1 12.98,6.4 26.15,12.4 39.42,18.3 5.07,2.2 10.06,4.7 15.16,6.8 18.37,7.9 37,15.2 55.88,22.1 4.12,1.5 8.31,2.8 12.44,4.2 14.9,5.3 29.87,10.3 45.03,14.9 6.94,2.1 13.96,4 20.94,6 12.62,3.5 25.24,7 38.04,10.2 7.74,1.9 15.59,3.6 23.4,5.4 12.29,2.7 24.66,5.3 37.11,7.7 8.1,1.5 16.16,2.9 24.26,4.3 12.66,2.1 25.39,3.9 38.2,5.6 7.92,1.1 15.76,2.1 23.72,3 13.97,1.5 28.07,2.7 42.2,3.7 6.81,0.5 13.61,1.2 20.47,1.6 21.06,1.1 42.18,1.9 63.48,1.9 627.96,0 1137.04,-509.1 1137.04,-1137.1 z m 971.32,-4667.7 c 0,-22.77 -1.48,-45.18 -3.9,-67.31 -0.79,-7.22 -2.25,-14.26 -3.29,-21.48 -2.13,-14.72 -4.52,-29.44 -7.74,-43.89 -1.85,-8.14 -4.09,-16.2 -6.26,-24.25 -3.48,-13.06 -7.23,-25.93 -11.58,-38.71 -2.74,-8.14 -5.71,-16.2 -8.82,-24.07 -4.8,-12.4 -10.02,-24.53 -15.62,-36.48 -3.51,-7.5 -6.98,-15.09 -10.81,-22.5 -6.37,-12.31 -13.32,-24.16 -20.47,-35.92 -3.91,-6.39 -7.53,-12.96 -11.65,-19.16 -9.26,-14.08 -19.31,-27.69 -29.69,-40.83 -2.64,-3.43 -5,-7.04 -7.74,-10.38 -13.42,-16.38 -27.71,-31.94 -42.71,-46.84 -3.84,-3.8 -8,-7.13 -11.9,-10.74 -11.51,-10.83 -23.26,-21.39 -35.59,-31.3 -1.67,-1.39 -3.19,-2.96 -4.85,-4.25 0.37,0.46 0.65,0.83 0.98,1.29 -103.48,-81.66 -233.89,-130.83 -375.99,-130.83 -335.59,0 -607.67,272.02 -607.67,607.65 0,142.12 49.15,272.48 130.88,375.99 -0.46,-0.37 -0.93,-0.64 -1.37,-1.02 1.31,1.67 2.9,3.15 4.2,4.82 10.09,12.59 20.87,24.44 31.89,36.29 3.45,3.52 6.59,7.5 10.13,11.11 14.97,15.19 30.68,29.54 47.16,43.06 2.79,2.31 5.87,4.25 8.68,6.48 13.75,10.83 27.85,21.29 42.54,30.92 5.93,3.89 12.15,7.31 18.22,11.02 12.12,7.4 24.31,14.53 36.93,21.11 7.16,3.7 14.51,7.04 21.85,10.46 12.15,5.65 24.48,11.02 37.07,15.92 7.81,3.06 15.69,5.93 23.68,8.71 12.85,4.35 25.9,8.14 39.1,11.66 7.99,2.13 15.88,4.35 24.02,6.21 14.46,3.15 29.18,5.55 44.01,7.68 7.12,1.11 14.14,2.5 21.34,3.34 22.14,2.4 44.56,3.88 67.34,3.88 335.59,0 607.63,-272.02 607.63,-607.64 z M 9475,10812.6 c 5.28,6.8 11.02,13.1 16.39,19.7 17.13,21.4 34.63,42.4 52.4,63 10.75,12.6 21.39,25.1 32.41,37.4 19.26,21.7 39.07,42.8 59.07,63.7 10.09,10.5 19.91,21.3 30.18,31.6 26.3,26.6 53.15,52.4 80.55,77.7 4.54,4.1 8.8,8.5 13.24,12.6 32.13,29.3 65.09,57.6 98.7,85.2 9.82,8 19.91,15.5 29.72,23.3 24.16,19.2 48.52,38.3 73.51,56.6 12.87,9.6 26.21,18.7 39.33,28 22.5,15.9 45.2,31.6 68.3,46.8 14.3,9.4 28.8,18.7 43.4,27.8 22.8,14.4 45.7,28.3 69,42 14.9,8.6 29.8,17.3 44.8,25.7 24.3,13.5 48.9,26.5 73.7,39.2 14.2,7.4 28.6,15 43,22.1 28.8,14.1 58,27.4 87.3,40.3 11,4.9 21.6,10.1 32.6,14.8 40.5,17.2 81.4,33.5 123,48.6 8.9,3.2 17.9,5.9 26.8,9.1 32.9,11.5 65.9,22.7 99.5,32.9 15.1,4.6 30.5,8.6 45.7,13 27.8,7.9 55.6,15.5 83.7,22.4 17.1,4.2 34.3,8.1 51.5,11.9 27,6 54.2,11.7 81.5,16.9 17.7,3.3 35.4,6.5 53.3,9.4 27.8,4.7 55.8,8.8 84,12.4 17.3,2.4 34.6,4.7 52.1,6.7 30.6,3.4 61.6,5.9 92.7,8.1 15,1.1 29.9,2.6 45,3.4 46.2,2.6 92.5,4.1 139.4,4.1 1379.6,0 2498.1,-1118.4 2498.1,-2498.15 0,-46.76 -1.5,-93.23 -4.1,-139.34 -0.8,-15.09 -2.3,-30.09 -3.3,-45.09 -2.4,-31.02 -4.9,-61.94 -8.3,-92.68 -1.9,-17.5 -4.3,-34.81 -6.6,-52.13 -3.7,-28.05 -7.7,-56.1 -12.4,-83.88 -2.8,-17.87 -6.1,-35.55 -9.4,-53.24 -5.2,-27.31 -10.9,-54.53 -16.9,-81.56 -3.8,-17.23 -7.7,-34.35 -11.9,-51.39 -6.9,-28.24 -14.6,-56.11 -22.5,-83.79 -4.3,-15.28 -8.3,-30.65 -13,-45.74 -10.1,-33.52 -21.3,-66.57 -32.8,-99.53 -3.2,-8.89 -6,-17.96 -9.1,-26.76 -15.2,-41.57 -31.4,-82.49 -48.6,-122.95 -4.7,-11.11 -9.9,-21.85 -14.8,-32.78 -13,-29.25 -26.2,-58.42 -40.3,-87.12 -7.1,-14.54 -14.7,-28.7 -22.1,-43.05 -12.7,-24.72 -25.7,-49.35 -39.2,-73.7 -8.4,-15.09 -17,-29.91 -25.8,-44.81 -13.5,-23.24 -27.5,-46.2 -41.9,-68.98 -9.1,-14.63 -18.3,-29.16 -27.8,-43.42 -15.1,-23.15 -30.9,-45.74 -46.7,-68.24 -9.4,-13.15 -18.5,-26.48 -28.2,-39.53 -18.3,-24.82 -37.3,-49.07 -56.4,-73.33 -7.9,-9.82 -15.4,-19.91 -23.5,-29.72 -27.5,-33.61 -55.9,-66.57 -85.1,-98.7 -4,-4.44 -8.4,-8.61 -12.3,-12.96 -25.5,-27.5 -51.4,-54.54 -78.1,-80.92 -10.2,-10.09 -20.8,-19.81 -31.2,-29.82 -21.1,-20.09 -42.3,-40.09 -64.2,-59.53 -12,-10.83 -24.4,-21.38 -36.8,-31.94 -20.9,-17.96 -42.1,-35.65 -63.7,-52.96 -6.6,-5.19 -12.8,-10.93 -19.4,-16.11 0.6,0.74 1.1,1.48 1.6,2.13 -425,-334.42 -960.6,-534.5 -1543.3,-534.5 -1379.7,0 -2498.16,1118.44 -2498.16,2498.07 0,582.83 200.07,1118.45 534.59,1543.45 -0.75,-0.6 -1.49,-1.1 -2.23,-1.7 z m 236.47,3687.2 c 2.31,3 4.9,5.8 7.31,8.7 7.41,9.3 15.18,18.5 22.96,27.7 4.72,5.4 9.45,11 14.26,16.4 8.43,9.5 17.13,18.7 25.93,27.9 4.44,4.7 8.79,9.5 13.33,14.1 11.48,11.5 23.15,22.7 35.09,33.7 2.03,2 4.07,4 6.2,5.9 14.07,12.9 28.52,25.4 43.33,37.4 4.35,3.6 8.89,7 13.34,10.6 10.55,8.3 21.1,16.6 31.94,24.6 5.83,4.2 11.76,8.3 17.68,12.5 9.82,6.9 19.63,13.7 29.72,20.4 6.39,4.2 12.78,8.3 19.26,12.3 9.88,6.3 19.98,12.4 30.18,18.3 6.6,3.9 13.1,7.8 19.8,11.5 10.7,5.9 21.4,11.5 32.2,17.1 6.4,3.3 12.7,6.7 19.2,9.8 12.6,6.2 25.4,12 38.2,17.7 4.9,2.1 9.6,4.4 14.4,6.5 17.9,7.6 35.8,14.7 54.1,21.3 3.9,1.5 8.1,2.8 12.1,4.2 14.3,5 28.8,9.9 43.4,14.4 6.7,2 13.4,3.8 20.2,5.7 12.2,3.4 24.4,6.8 36.8,9.8 7.5,1.9 15,3.6 22.6,5.3 12,2.6 23.8,5.1 35.9,7.4 7.7,1.5 15.6,2.9 23.4,4.2 12.2,2 24.6,3.8 37,5.4 7.6,1 15.2,2.1 22.9,2.9 13.5,1.5 27,2.7 40.7,3.6 6.7,0.5 13.2,1.2 19.8,1.5 20.3,1.1 40.8,1.8 61.3,1.8 606.8,0 1098.8,-491.9 1098.8,-1098.7 0,-20.6 -0.8,-41 -1.9,-61.3 -0.4,-6.6 -0.9,-13.2 -1.5,-19.8 -0.9,-13.7 -2.1,-27.3 -3.6,-40.8 -0.7,-7.7 -1.8,-15.2 -2.9,-22.7 -1.5,-12.5 -3.3,-24.9 -5.4,-37.2 -1.3,-7.8 -2.7,-15.6 -4.2,-23.3 -2.3,-12.1 -4.7,-24 -7.4,-36 -1.7,-7.5 -3.4,-15 -5.2,-22.5 -3,-12.4 -6.5,-24.7 -9.9,-36.9 -1.9,-6.7 -3.7,-13.4 -5.7,-20.1 -4.5,-14.6 -9.4,-29 -14.4,-43.4 -1.4,-4 -2.6,-8.1 -4,-12.1 -6.7,-18.3 -13.9,-36.3 -21.4,-54.2 -2.1,-4.8 -4.5,-9.5 -6.6,-14.4 -5.7,-12.8 -11.5,-25.5 -17.7,-38.1 -3.1,-6.5 -6.5,-12.9 -9.8,-19.2 -5.6,-10.8 -11.1,-21.6 -17.1,-32.2 -3.7,-6.7 -7.6,-13.3 -11.5,-20 -5.8,-10.1 -12,-20 -18.2,-29.9 -4,-6.5 -8.2,-13.1 -12.5,-19.5 -6.5,-9.9 -13.3,-19.7 -20.1,-29.4 -4.3,-6 -8.4,-12 -12.7,-18 -7.9,-10.6 -16,-20.9 -24.1,-31.2 -3.8,-4.7 -7.3,-9.5 -11.1,-14.1 -12,-14.6 -24.4,-29 -37.1,-43 -2.6,-2.8 -5.4,-5.5 -8,-8.3 -10.4,-11.2 -20.8,-22.2 -31.6,-32.9 -5.1,-4.9 -10.3,-9.8 -15.4,-14.6 -8.6,-8.3 -17.4,-16.6 -26.4,-24.6 -5.9,-5.2 -11.8,-10.2 -17.7,-15.3 -8.6,-7.4 -17.4,-14.7 -26.2,-21.8 -3.2,-2.6 -6.2,-5.3 -9.4,-7.7 0.2,0.3 0.5,0.6 0.7,0.9 -186.9,-147.1 -422.5,-235.1 -678.8,-235.1 -606.77,0 -1098.59,491.9 -1098.59,1098.7 0,256.3 87.96,491.8 234.99,678.7 -0.28,-0.2 -0.56,-0.4 -0.93,-0.6 z M 7390.66,6543.54 c -15.76,-15.65 -32.29,-30.56 -49.33,-44.81 -3.07,-2.6 -6.15,-5.19 -9.29,-7.69 -3.51,-2.87 -6.87,-5.83 -10.42,-8.7 0.48,0.55 0.87,1.29 1.38,1.94 -134.25,-106.1 -303.44,-169.9 -487.78,-169.9 -435.31,0 -788.14,352.85 -788.14,788.1 0,184.34 63.76,353.49 169.8,487.74 -0.62,-0.46 -1.27,-0.83 -1.84,-1.29 2.71,3.42 5.64,6.66 8.43,10.09 2.71,3.42 5.46,6.57 8.23,9.91 14.19,16.85 28.87,33.24 44.38,48.88 2.07,2.04 4.2,3.98 6.26,6.02 15.44,15.19 31.47,29.81 48.1,43.7 1.63,1.39 3.19,2.78 4.81,4.17 17.21,14.16 35.2,27.4 53.6,40.09 3.4,2.31 6.8,4.72 10.23,7.03 18.19,12.13 36.9,23.52 56.14,34.07 3.54,1.95 7.12,3.8 10.66,5.65 20,10.65 40.34,20.65 61.3,29.63 1.64,0.65 3.3,1.2 4.93,1.85 20.5,8.52 41.48,16.2 62.82,22.96 2.93,1.02 5.79,2.04 8.75,2.97 21.63,6.66 43.65,12.22 66.04,16.94 4.23,0.93 8.5,1.85 12.77,2.68 22.35,4.35 44.99,7.87 67.99,10.38 3.73,0.37 7.56,0.64 11.32,0.92 24.2,2.31 48.6,3.8 73.42,3.8 435.27,0 788.1,-352.85 788.1,-788.19 0,-24.82 -1.44,-49.16 -3.68,-73.42 -0.36,-3.7 -0.58,-7.5 -1.02,-11.3 -2.45,-22.96 -6,-45.64 -10.38,-67.96 -0.83,-4.26 -1.73,-8.51 -2.64,-12.77 -4.78,-22.41 -10.34,-44.44 -17,-66.11 -0.9,-2.87 -1.91,-5.74 -2.86,-8.61 -6.83,-21.48 -14.46,-42.5 -23.03,-62.96 -0.65,-1.57 -1.24,-3.24 -1.92,-4.81 -8.9,-21.02 -18.91,-41.39 -29.54,-61.39 -1.88,-3.52 -3.7,-7.13 -5.65,-10.55 -10.63,-19.35 -22.03,-38.05 -34.18,-56.29 -2.23,-3.43 -4.55,-6.67 -6.86,-10 -12.7,-18.52 -26.05,-36.58 -40.26,-53.89 -1.23,-1.48 -2.53,-2.87 -3.76,-4.35 -14.11,-16.85 -28.9,-33.06 -44.3,-48.79 -1.88,-1.86 -3.66,-3.89 -5.58,-5.74 z M 8787.52,4451.83 c 3575.28,0 6473.48,2898.23 6473.48,6473.47 0,1507.6 -515.4,2894.8 -1379.5,3995.1 -1100.3,864.2 -2487.6,1379.6 -3995.23,1379.6 -3575.17,0 -6473.42,-2898.2 -6473.42,-6473.45 0,-1568.96 558.27,-3007.39 1486.81,-4127.95 -36.28,43.88 -72.08,88.04 -107.27,132.76 1100.33,-864.2 2487.53,-1379.53 3995.13,-1379.53"
           style="fill:#fabe5f;fill-opacity:1;fill-rule:nonzero;stroke:none"
           id="path120"
           inkscape:connector-curvature="0" /></g><g
         id="g122"
         transform="scale(1.08306)"><path
           d="m 16291.9,10339.6 c 3,-37 5.7,-74.1 8.1,-111.2 -2.4,37.1 -5.1,74.2 -8.1,111.2"
           style="fill:#fabe5f;fill-opacity:1;fill-rule:nonzero;stroke:none"
           id="path124"
           inkscape:connector-curvature="0" /></g><g
         id="g126"
         transform="scale(1.03841)"><path
           d="m 16249.2,13343.5 c 17.1,-32.8 34.1,-65.7 50.8,-98.7 -16.7,33 -33.7,65.9 -50.8,98.7"
           style="fill:#fabe5f;fill-opacity:1;fill-rule:nonzero;stroke:none"
           id="path128"
           inkscape:connector-curvature="0" /></g><g
         id="g130"
         transform="scale(1.04344)"><path
           d="m 16252.4,13118.9 c 16.1,-33 31.9,-66.1 47.6,-99.3 -15.7,33.2 -31.5,66.3 -47.6,99.3"
           style="fill:#fabe5f;fill-opacity:1;fill-rule:nonzero;stroke:none"
           id="path132"
           inkscape:connector-curvature="0" /></g><g
         id="g134"
         transform="scale(1.05823)"><path
           d="m 16237.9,12455.1 c 21.5,-54.3 42.1,-109 62.1,-164 -20,55 -40.6,109.7 -62.1,164"
           style="fill:#fabe5f;fill-opacity:1;fill-rule:nonzero;stroke:none"
           id="path136"
           inkscape:connector-curvature="0" /></g><g
         id="g138"
         transform="scale(1.04833)"><path
           d="m 16252.5,12897.4 c 16.2,-35.3 31.9,-70.8 47.5,-106.5 -15.6,35.7 -31.3,71.2 -47.5,106.5"
           style="fill:#fabe5f;fill-opacity:1;fill-rule:nonzero;stroke:none"
           id="path140"
           inkscape:connector-curvature="0" /></g><g
         id="g142"
         transform="scale(1.05356)"><path
           d="m 16243,12672.7 c 19.5,-46 38.5,-92.2 57,-138.7 -18.5,46.5 -37.5,92.7 -57,138.7"
           style="fill:#fabe5f;fill-opacity:1;fill-rule:nonzero;stroke:none"
           id="path144"
           inkscape:connector-curvature="0" /></g><g
         id="g146"
         transform="scale(1.08083)"><path
           d="m 16285,10723.5 c 5.3,-37.7 10.4,-75.5 15,-113.5 -4.6,38 -9.7,75.8 -15,113.5"
           style="fill:#fabe5f;fill-opacity:1;fill-rule:nonzero;stroke:none"
           id="path148"
           inkscape:connector-curvature="0" /></g><path
         d="m 15998.1,15149.4 c 30,-35.1 59.8,-70.4 89.1,-106.2 -29.3,35.8 -59.1,71.1 -89.1,106.2"
         style="fill:#fabe5f;fill-opacity:1;fill-rule:nonzero;stroke:none"
         id="path150"
         inkscape:connector-curvature="0" /><path
         d="m 15848.6,15319.6 c 41,-45.1 81.4,-90.6 121.2,-136.7 -39.8,46.1 -80.2,91.6 -121.2,136.7"
         style="fill:#fabe5f;fill-opacity:1;fill-rule:nonzero;stroke:none"
         id="path152"
         inkscape:connector-curvature="0" /><path
         d="m 15595.6,15582.9 c 28.2,-28 56.2,-56.3 84,-84.7 -27.8,28.4 -55.7,56.8 -84,84.7"
         style="fill:#fabe5f;fill-opacity:1;fill-rule:nonzero;stroke:none"
         id="path154"
         inkscape:connector-curvature="0" /><path
         d="m 15724,15452.7 c 33,-34.3 65.4,-69.2 97.6,-104.2 -32.2,35 -64.6,69.9 -97.6,104.2"
         style="fill:#fabe5f;fill-opacity:1;fill-rule:nonzero;stroke:none"
         id="path156"
         inkscape:connector-curvature="0" /><path
         d="m 15177.6,15964.4 c 32.6,-27.5 65.1,-55.1 97.2,-83.1 -32.1,28 -64.6,55.6 -97.2,83.1"
         style="fill:#fabe5f;fill-opacity:1;fill-rule:nonzero;stroke:none"
         id="path158"
         inkscape:connector-curvature="0" /><path
         d="m 15463,15710.6 c 27.8,-26.1 55.3,-52.4 82.6,-78.8 -27.3,26.4 -54.8,52.7 -82.6,78.8"
         style="fill:#fabe5f;fill-opacity:1;fill-rule:nonzero;stroke:none"
         id="path160"
         inkscape:connector-curvature="0" /><g
         id="g162"
         transform="scale(1.08371)"><path
           d="m 16294.7,10154.1 c 2.2,-40.4 3.8,-80.9 5.3,-121.5 -1.5,40.6 -3.1,81.1 -5.3,121.5"
           style="fill:#fabe5f;fill-opacity:1;fill-rule:nonzero;stroke:none"
           id="path164"
           inkscape:connector-curvature="0" /></g><path
         d="m 15325.1,15836.7 c 28.9,-25.8 57.6,-51.6 86.1,-77.8 -28.5,26.2 -57.2,52 -86.1,77.8"
         style="fill:#fabe5f;fill-opacity:1;fill-rule:nonzero;stroke:none"
         id="path166"
         inkscape:connector-curvature="0" /><g
         id="g168"
         transform="scale(1.02201)"><path
           d="m 16204.7,14082.4 c 32.4,-50.3 64.2,-101 95.3,-152.2 -31.1,51.2 -62.9,101.9 -95.3,152.2"
           style="fill:#fabe5f;fill-opacity:1;fill-rule:nonzero;stroke:none"
           id="path170"
           inkscape:connector-curvature="0" /></g><g
         id="g172"
         transform="scale(1.0277)"><path
           d="m 16218.5,13838.2 c 27.7,-45.9 54.8,-92.2 81.5,-138.8 -26.7,46.6 -53.8,92.9 -81.5,138.8"
           style="fill:#fabe5f;fill-opacity:1;fill-rule:nonzero;stroke:none"
           id="path174"
           inkscape:connector-curvature="0" /></g><g
         id="g176"
         transform="scale(1.0142)"><path
           d="m 16229.6,14341.2 c 23.9,-35 47.1,-70.3 70.4,-105.8 -23.3,35.5 -46.5,70.8 -70.4,105.8"
           style="fill:#fabe5f;fill-opacity:1;fill-rule:nonzero;stroke:none"
           id="path178"
           inkscape:connector-curvature="0" /></g><g
         id="g180"
         transform="scale(1.08402)"><path
           d="m 16297.4,9971.27 c 1.7,-59.96 2.6,-120.11 2.6,-180.53 0,60.42 -0.9,120.57 -2.6,180.53"
           style="fill:#fabe5f;fill-opacity:1;fill-rule:nonzero;stroke:none"
           id="path182"
           inkscape:connector-curvature="0" /></g><g
         id="g184"
         transform="scale(1.00746)"><path
           d="m 16233.5,14586.5 c 22.3,-31.2 44.6,-62.6 66.5,-94.2 -21.9,31.6 -44.2,63 -66.5,94.2"
           style="fill:#fabe5f;fill-opacity:1;fill-rule:nonzero;stroke:none"
           id="path186"
           inkscape:connector-curvature="0" /></g><g
         id="g188"
         transform="scale(1.00077)"><path
           d="m 16231.9,14832.6 c 22.9,-30.1 45.6,-60.4 68.1,-91 -22.5,30.6 -45.2,60.9 -68.1,91"
           style="fill:#fabe5f;fill-opacity:1;fill-rule:nonzero;stroke:none"
           id="path190"
           inkscape:connector-curvature="0" /></g><g
         id="g192"
         transform="scale(1.08402)"><path
           d="m 16297.4,9971.27 c -0.5,19.56 -1.5,38.93 -2.2,58.43 -1.5,40.6 -3.1,81 -5.3,121.4 -1.3,22.7 -2.9,45.5 -4.4,68.2 -2.4,37.1 -5.1,74.2 -8.1,111.1 -2,23.6 -4.1,47 -6.4,70.4 -3.3,36.5 -7.1,72.7 -11,108.9 -2.6,23.1 -5.2,46.1 -8,69.1 -4.6,37.8 -9.7,75.5 -14.9,113.2 -3,20.6 -5.6,41.4 -8.7,62 -6.8,45.5 -14.3,90.9 -22.1,136.1 -2.1,12.4 -4,24.9 -6.2,37.2 -10.2,57.5 -21.1,114.6 -32.8,171.5 -3.3,15.3 -6.8,30.6 -10.1,45.9 -8.9,41.6 -17.9,83 -27.6,124.3 -4.9,20.7 -10,41.2 -15,61.7 -8.9,35.9 -17.8,71.7 -27.2,107.4 -5.8,21.9 -11.7,43.7 -17.7,65.5 -9.5,34.4 -19.2,68.7 -29.2,102.7 -6.4,21.8 -12.7,43.6 -19.4,65.3 -10.6,34.8 -21.6,69.4 -32.7,103.8 -6.6,20.4 -13,40.7 -19.8,61 -12.9,38.5 -26.3,76.7 -39.9,114.9 -5.5,15.7 -10.9,31.6 -16.6,47.3 -19.6,53.7 -39.7,107.1 -60.6,160.1 -3.2,7.8 -6.4,15.4 -9.5,23.1 -18,45.2 -36.5,90.1 -55.5,134.8 -7.6,17.8 -15.5,35.4 -23.2,53.1 -15.1,34.5 -30.3,68.9 -45.9,103.1 -9.2,19.8 -18.5,39.5 -27.7,59.3 -15.1,32 -30.4,63.8 -45.9,95.6 -9.7,20 -19.7,39.9 -29.7,59.8 -15.9,31.6 -32.3,63.1 -48.7,94.5 -9.9,19.1 -19.9,38.1 -30.1,57.1 -17.8,33.3 -36.2,66.3 -54.7,99.3 -9.2,16.4 -18.2,32.9 -27.5,49.2 -25.3,44.2 -51.1,88 -77.3,131.6 -2.8,4.6 -5.5,9.4 -8.3,14 -29.4,48.3 -59.4,96.1 -89.9,143.5 -9,14 -18.4,27.9 -27.5,41.8 -21.8,33.2 -43.5,66.3 -65.8,99 -11.8,17.1 -23.8,34.2 -35.6,51.2 -20.4,29.4 -41,58.6 -61.8,87.6 -12.8,17.8 -25.8,35.4 -38.8,53.1 -20.8,28.2 -41.7,56.2 -62.9,84 -13.1,17.3 -26.2,34.6 -39.6,51.7 -22.3,28.7 -45,57.2 -67.9,85.6 -12.4,15.5 -24.8,31.1 -37.4,46.5 -27.1,33 -54.6,65.6 -82.2,98 -8.8,10.3 -17.3,20.6 -26.1,30.8 -36.8,42.6 -74,84.6 -111.9,126.2 -8.2,8.9 -16.6,17.7 -24.9,26.6 -29.7,32.3 -59.6,64.5 -90,96.1 -13.6,14.2 -27.3,28 -41,42 -25.6,26.2 -51.4,52.3 -77.4,78.2 -15.4,15.1 -30.8,30 -46.2,45 -25.2,24.4 -50.5,48.7 -76.2,72.7 -15.7,15 -31.7,29.8 -47.8,44.6 -26.2,24.2 -52.7,48 -79.4,71.8 -15.4,13.7 -30.8,27.5 -46.4,41.1 -29.6,25.8 -59.6,51.3 -89.6,76.6 -13,10.9 -25.7,21.9 -38.7,32.7 -43.3,35.9 -87.1,71.4 -131.5,106.2 0,0.1 -0.1,0.2 -0.1,0.2 v 0 c 860.9,-1096.3 1374.5,-2478.5 1374.5,-3980.6 0,-3562.13 -2887.7,-6449.8 -6449.91,-6449.8 -1502.1,0 -2884.25,513.46 -3980.57,1374.51 35.06,-44.56 70.73,-88.56 106.88,-132.29 10.09,-12.08 20.43,-23.98 30.6,-36.07 26.01,-30.99 52.17,-61.71 78.73,-92.15 13.12,-15.04 26.52,-29.89 39.78,-44.84 24.21,-27.21 48.62,-54.33 73.3,-81.08 14.33,-15.59 28.79,-31.09 43.24,-46.5 24.5,-26.1 49.26,-51.93 74.16,-77.67 14.55,-14.94 29.08,-29.98 43.82,-44.83 26.3,-26.57 52.96,-52.86 79.71,-78.97 13.51,-13.19 26.92,-26.47 40.53,-39.57 32.51,-31.18 65.44,-61.99 98.6,-92.44 8.11,-7.47 16.03,-15.12 24.21,-22.6 41.76,-38 84.03,-75.55 126.81,-112.45 9.4,-8.12 19.02,-16.05 28.5,-24.07 33.15,-28.32 66.52,-56.55 100.32,-84.23 14.99,-12.26 30.23,-24.35 45.37,-36.53 28.75,-23.06 57.58,-46.12 86.73,-68.72 16.83,-13.1 33.8,-26.02 50.78,-39.02 28.18,-21.41 56.5,-42.62 85.01,-63.57 17.4,-12.82 34.8,-25.55 52.35,-38.19 29.26,-21.12 58.74,-41.88 88.36,-62.45 16.83,-11.62 33.58,-23.43 50.55,-35.05 33.08,-22.51 66.45,-44.56 100,-66.51 13.63,-8.95 27.1,-18.08 40.83,-26.85 47.53,-30.63 95.39,-60.7 143.74,-90.03 4.36,-2.59 8.76,-5.08 13.08,-7.75 43.86,-26.48 88.07,-52.4 132.57,-77.95 16.11,-9.23 32.4,-18.08 48.61,-27.12 33.12,-18.54 66.35,-36.99 99.86,-54.98 18.91,-10.15 37.94,-20.11 56.96,-30.08 31.4,-16.42 62.93,-32.75 94.59,-48.71 19.87,-9.96 39.75,-19.92 59.75,-29.7 31.75,-15.5 63.67,-30.81 95.75,-45.94 19.68,-9.22 39.34,-18.45 59.17,-27.58 34.12,-15.68 68.5,-30.81 102.95,-45.85 17.8,-7.75 35.46,-15.68 53.29,-23.34 44.51,-18.91 89.37,-37.26 134.38,-55.35 7.88,-3.13 15.63,-6.45 23.53,-9.59 53.01,-20.94 106.33,-41.05 160.03,-60.7 15.7,-5.63 31.64,-11.07 47.38,-16.6 38.17,-13.57 76.36,-27.03 114.81,-39.85 20.25,-6.74 40.58,-13.2 60.9,-19.75 34.52,-11.25 69.15,-22.14 103.92,-32.75 21.66,-6.64 43.42,-13 65.19,-19.37 34.09,-10.05 68.32,-19.74 102.66,-29.15 21.88,-5.99 43.79,-11.99 65.77,-17.8 35.56,-9.32 71.27,-18.27 107.09,-27.03 20.61,-5.07 41.23,-10.33 61.94,-15.13 41.16,-9.68 82.52,-18.73 123.99,-27.58 15.43,-3.32 30.74,-6.83 46.24,-10.06 56.86,-11.71 114.01,-22.69 171.45,-32.93 12.14,-2.12 24.43,-3.97 36.66,-6.09 45.39,-7.84 90.91,-15.22 136.63,-22.14 20.61,-3.13 41.34,-5.81 62.06,-8.67 37.62,-5.26 75.28,-10.42 113.14,-14.95 22.96,-2.76 46.03,-5.34 69.09,-7.93 36.17,-3.96 72.42,-7.74 108.74,-11.16 23.53,-2.21 46.96,-4.34 70.57,-6.27 36.9,-3.05 73.89,-5.72 110.98,-8.12 22.78,-1.48 45.48,-3.04 68.26,-4.34 40.41,-2.21 80.91,-3.87 121.4,-5.35 19.47,-0.73 38.93,-1.75 58.4,-2.21 60.05,-1.66 120.2,-2.68 180.62,-2.68 3562.06,0 6449.76,2887.76 6449.76,6449.86 0,60.42 -0.9,120.57 -2.6,180.53"
           style="fill:#f9a72b;fill-opacity:1;fill-rule:nonzero;stroke:none"
           id="path194"
           inkscape:connector-curvature="0" /></g><path
         d="m 7719.3,12324.6 c -23.01,0 -45.82,-0.8 -68.56,-2 22.74,1.2 45.55,2 68.56,2"
         style="fill:#f9ac47;fill-opacity:1;fill-rule:nonzero;stroke:none"
         id="path196"
         inkscape:connector-curvature="0" /><path
         d="m 8947.38,11096.5 c 0,-23 -0.78,-45.8 -2.03,-68.5 1.25,22.7 2.03,45.5 2.03,68.5"
         style="fill:#f9ac47;fill-opacity:1;fill-rule:nonzero;stroke:none"
         id="path198"
         inkscape:connector-curvature="0" /><path
         d="m 7510.82,12116.1 c -285.51,0 -548.28,-97.5 -756.87,-260.9 -164.42,-208.9 -262.74,-472.3 -262.74,-758.7 0,-678.3 549.81,-1228.1 1228.09,-1228.1 286.44,0 549.76,98.3 758.63,262.7 163.48,208.6 261.02,471.4 261.02,756.9 0,678.3 -549.85,1228.1 -1228.13,1228.1"
         style="fill:#f9ac47;fill-opacity:1;fill-rule:nonzero;stroke:none"
         id="path200"
         inkscape:connector-curvature="0" /><path
         d="m 8943.67,11005.9 c -1.09,-15.3 -2.3,-30.5 -3.98,-45.7 1.68,15.2 2.89,30.4 3.98,45.7"
         style="fill:#f9ac47;fill-opacity:1;fill-rule:nonzero;stroke:none"
         id="path202"
         inkscape:connector-curvature="0" /><path
         d="m 8873.52,10676.2 c -7.47,-20.5 -15.51,-40.7 -23.99,-60.7 8.48,20 16.52,40.2 23.99,60.7"
         style="fill:#f9ac47;fill-opacity:1;fill-rule:nonzero;stroke:none"
         id="path204"
         inkscape:connector-curvature="0" /><path
         d="m 8925.7,10867.3 c -2.57,-13.5 -5.39,-26.9 -8.36,-40.3 2.97,13.4 5.79,26.8 8.36,40.3"
         style="fill:#f9ac47;fill-opacity:1;fill-rule:nonzero;stroke:none"
         id="path206"
         inkscape:connector-curvature="0" /><path
         d="m 8622.34,10264.5 c -12.81,-14 -25.89,-27.6 -39.37,-40.9 13.48,13.3 26.56,26.9 39.37,40.9"
         style="fill:#f9ac47;fill-opacity:1;fill-rule:nonzero;stroke:none"
         id="path208"
         inkscape:connector-curvature="0" /><path
         d="m 7011.37,12099.7 c 10.97,7.8 22.11,15.5 33.36,22.9 -11.25,-7.4 -22.39,-15.1 -33.36,-22.9"
         style="fill:#f9ac47;fill-opacity:1;fill-rule:nonzero;stroke:none"
         id="path210"
         inkscape:connector-curvature="0" /><path
         d="m 8669.49,10318.5 c -13.63,-16.6 -27.65,-32.9 -42.11,-48.8 14.46,15.9 28.48,32.2 42.11,48.8"
         style="fill:#f9ac47;fill-opacity:1;fill-rule:nonzero;stroke:none"
         id="path212"
         inkscape:connector-curvature="0" /><path
         d="m 7066.21,12136.4 c 11.13,7 22.42,13.8 33.79,20.5 -11.37,-6.7 -22.66,-13.5 -33.79,-20.5"
         style="fill:#f9ac47;fill-opacity:1;fill-rule:nonzero;stroke:none"
         id="path214"
         inkscape:connector-curvature="0" /><path
         d="m 8745.63,10422.3 c -7.62,-11.6 -15.51,-23 -23.48,-34.3 7.97,11.3 15.86,22.7 23.48,34.3"
         style="fill:#f9ac47;fill-opacity:1;fill-rule:nonzero;stroke:none"
         id="path216"
         inkscape:connector-curvature="0" /><path
         d="m 8567.89,10209.2 c -10.43,-9.9 -20.98,-19.8 -31.72,-29.4 10.74,9.6 21.29,19.5 31.72,29.4"
         style="fill:#f9ac47;fill-opacity:1;fill-rule:nonzero;stroke:none"
         id="path218"
         inkscape:connector-curvature="0" /><path
         d="m 8708.79,10369.3 c -9.26,-12.6 -18.87,-24.9 -28.59,-37.1 9.72,12.2 19.33,24.5 28.59,37.1"
         style="fill:#f9ac47;fill-opacity:1;fill-rule:nonzero;stroke:none"
         id="path220"
         inkscape:connector-curvature="0" /><path
         d="m 6892.66,12004.7 c 15.78,14.3 31.95,28.3 48.47,41.8 -16.52,-13.5 -32.69,-27.5 -48.47,-41.8"
         style="fill:#f9ac47;fill-opacity:1;fill-rule:nonzero;stroke:none"
         id="path222"
         inkscape:connector-curvature="0" /><path
         d="m 8894.14,10738.3 c -5.08,-16.8 -10.66,-33.3 -16.44,-49.8 5.78,16.5 11.36,33 16.44,49.8"
         style="fill:#f9ac47;fill-opacity:1;fill-rule:nonzero;stroke:none"
         id="path224"
         inkscape:connector-curvature="0" /><path
         d="m 8779.96,10477.7 c -6.87,-11.7 -13.87,-23.3 -21.13,-34.8 7.26,11.5 14.26,23.1 21.13,34.8"
         style="fill:#f9ac47;fill-opacity:1;fill-rule:nonzero;stroke:none"
         id="path226"
         inkscape:connector-curvature="0" /><path
         d="m 6802.73,11913.6 c 9.38,10.5 19.03,20.7 28.75,30.9 -9.72,-10.2 -19.37,-20.4 -28.75,-30.9"
         style="fill:#f9ac47;fill-opacity:1;fill-rule:nonzero;stroke:none"
         id="path228"
         inkscape:connector-curvature="0" /><path
         d="m 8518.05,10164 c -10.28,-8.8 -20.67,-17.4 -31.21,-25.9 10.54,8.5 20.93,17.1 31.21,25.9"
         style="fill:#f9ac47;fill-opacity:1;fill-rule:nonzero;stroke:none"
         id="path230"
         inkscape:connector-curvature="0" /><path
         d="m 6761.09,11864.3 c 8.32,10.4 16.84,20.5 25.47,30.6 -8.63,-10.1 -17.15,-20.2 -25.47,-30.6"
         style="fill:#f9ac47;fill-opacity:1;fill-rule:nonzero;stroke:none"
         id="path232"
         inkscape:connector-curvature="0" /><path
         d="m 6956.02,12058.2 c 11.79,9.4 23.67,18.7 35.82,27.6 -12.15,-8.9 -24.03,-18.2 -35.82,-27.6"
         style="fill:#f9ac47;fill-opacity:1;fill-rule:nonzero;stroke:none"
         id="path234"
         inkscape:connector-curvature="0" /><path
         d="m 7516.17,12307.5 c 13.67,2.3 27.42,4.3 41.25,6.1 -13.83,-1.8 -27.58,-3.8 -41.25,-6.1"
         style="fill:#f9ac47;fill-opacity:1;fill-rule:nonzero;stroke:none"
         id="path236"
         inkscape:connector-curvature="0" /><path
         d="m 7449.88,12294.6 c 13.28,2.9 26.64,5.7 40.08,8.3 -13.44,-2.6 -26.8,-5.4 -40.08,-8.3"
         style="fill:#f9ac47;fill-opacity:1;fill-rule:nonzero;stroke:none"
         id="path238"
         inkscape:connector-curvature="0" /><path
         d="m 8911.56,10802 c -3.43,-14 -7.22,-27.9 -11.17,-41.7 3.95,13.8 7.74,27.7 11.17,41.7"
         style="fill:#f9ac47;fill-opacity:1;fill-rule:nonzero;stroke:none"
         id="path240"
         inkscape:connector-curvature="0" /><path
         d="m 7383.52,12277.7 c 13.63,3.9 27.26,7.6 41.09,11 -13.83,-3.4 -27.46,-7.1 -41.09,-11"
         style="fill:#f9ac47;fill-opacity:1;fill-rule:nonzero;stroke:none"
         id="path242"
         inkscape:connector-curvature="0" /><path
         d="m 7583.05,12316.9 c 15.08,1.6 30.31,2.8 45.58,4 -15.27,-1.2 -30.5,-2.4 -45.58,-4"
         style="fill:#f9ac47;fill-opacity:1;fill-rule:nonzero;stroke:none"
         id="path244"
         inkscape:connector-curvature="0" /><path
         d="m 8936.45,10934.8 c -1.84,-13.9 -3.83,-27.8 -6.1,-41.5 2.27,13.7 4.26,27.6 6.1,41.5"
         style="fill:#f9ac47;fill-opacity:1;fill-rule:nonzero;stroke:none"
         id="path246"
         inkscape:connector-curvature="0" /><path
         d="m 6846.6,11960.4 c 12.78,12.9 25.9,25.4 39.26,37.8 -13.36,-12.4 -26.48,-24.9 -39.26,-37.8"
         style="fill:#f9ac47;fill-opacity:1;fill-rule:nonzero;stroke:none"
         id="path248"
         inkscape:connector-curvature="0" /><path
         d="m 8842.73,10600.5 c -6.56,-14.8 -13.2,-29.5 -20.31,-44 7.11,14.5 13.75,29.2 20.31,44"
         style="fill:#f9ac47;fill-opacity:1;fill-rule:nonzero;stroke:none"
         id="path250"
         inkscape:connector-curvature="0" /><path
         d="m 7122.15,12169.6 c 11.87,6.6 23.94,12.9 36.09,19.2 -12.15,-6.3 -24.22,-12.6 -36.09,-19.2"
         style="fill:#f9ac47;fill-opacity:1;fill-rule:nonzero;stroke:none"
         id="path252"
         inkscape:connector-curvature="0" /><path
         d="m 7312.27,12255.2 c 16.09,5.7 32.26,11.1 48.63,16.1 -16.37,-5 -32.54,-10.4 -48.63,-16.1"
         style="fill:#f9ac47;fill-opacity:1;fill-rule:nonzero;stroke:none"
         id="path254"
         inkscape:connector-curvature="0" /><path
         d="m 7238.48,12226.8 c 19.84,8.5 39.96,16.4 60.35,23.9 -20.39,-7.5 -40.51,-15.4 -60.35,-23.9"
         style="fill:#f9ac47;fill-opacity:1;fill-rule:nonzero;stroke:none"
         id="path256"
         inkscape:connector-curvature="0" /><path
         d="m 7179.53,12199.7 c 14.02,6.9 28.24,13.4 42.58,19.7 -14.34,-6.3 -28.56,-12.8 -42.58,-19.7"
         style="fill:#f9ac47;fill-opacity:1;fill-rule:nonzero;stroke:none"
         id="path258"
         inkscape:connector-curvature="0" /><path
         d="m 8811.91,10536 c -6.4,-12.4 -12.93,-24.8 -19.72,-37 6.79,12.2 13.32,24.6 19.72,37"
         style="fill:#f9ac47;fill-opacity:1;fill-rule:nonzero;stroke:none"
         id="path260"
         inkscape:connector-curvature="0" /><path
         d="m 7628.63,12320.9 c -15.27,-1.2 -30.5,-2.4 -45.58,-4 -8.6,-1 -17.07,-2.2 -25.63,-3.3 -13.83,-1.8 -27.58,-3.8 -41.25,-6.1 -8.75,-1.4 -17.46,-3 -26.21,-4.6 -13.44,-2.6 -26.8,-5.4 -40.08,-8.3 -8.43,-1.9 -16.91,-3.8 -25.27,-5.9 -13.83,-3.4 -27.46,-7.1 -41.09,-11 -7.54,-2.1 -15.12,-4.1 -22.62,-6.4 -16.37,-5 -32.54,-10.4 -48.63,-16.1 -4.46,-1.6 -8.99,-2.9 -13.44,-4.5 -20.39,-7.5 -40.51,-15.4 -60.35,-23.9 -5.51,-2.4 -10.9,-5 -16.37,-7.4 -14.34,-6.3 -28.56,-12.8 -42.58,-19.7 -7.15,-3.5 -14.22,-7.3 -21.29,-10.9 -12.15,-6.3 -24.22,-12.6 -36.09,-19.2 -7.46,-4.2 -14.81,-8.4 -22.15,-12.7 -11.37,-6.7 -22.66,-13.5 -33.79,-20.5 -7.19,-4.6 -14.37,-9.2 -21.48,-13.8 -11.25,-7.4 -22.39,-15.1 -33.36,-22.9 -6.53,-4.6 -13.13,-9.1 -19.53,-13.9 -12.15,-8.9 -24.03,-18.2 -35.82,-27.6 -4.93,-3.9 -10,-7.7 -14.89,-11.7 -16.52,-13.5 -32.69,-27.5 -48.47,-41.8 -2.31,-2.1 -4.5,-4.4 -6.8,-6.5 -13.36,-12.4 -26.48,-24.9 -39.26,-37.8 -5.15,-5.2 -10.08,-10.6 -15.12,-15.9 -9.72,-10.2 -19.37,-20.4 -28.75,-30.9 -5.5,-6.2 -10.82,-12.5 -16.17,-18.7 -8.63,-10.1 -17.15,-20.2 -25.47,-30.6 -2.65,-3.4 -5.54,-6.5 -8.2,-9.9 0.35,0.3 0.7,0.4 1.06,0.8 208.59,163.4 471.36,260.9 756.87,260.9 678.28,0 1228.13,-549.8 1228.13,-1228.1 0,-285.5 -97.54,-548.3 -261.02,-756.9 -0.23,-0.3 -0.47,-0.7 -0.7,-1 3.28,2.6 6.32,5.4 9.61,8 10.54,8.5 20.93,17.1 31.21,25.9 6.05,5.3 12.15,10.4 18.12,15.8 10.74,9.6 21.29,19.5 31.72,29.4 5.04,4.8 10.16,9.5 15.08,14.4 13.48,13.3 26.56,26.9 39.37,40.9 1.68,1.7 3.4,3.4 5.04,5.2 14.46,15.9 28.48,32.2 42.11,48.8 3.67,4.5 7.11,9.2 10.71,13.7 9.72,12.2 19.33,24.5 28.59,37.1 4.53,6.1 8.91,12.5 13.36,18.7 7.97,11.3 15.86,22.7 23.48,34.3 4.45,6.8 8.86,13.7 13.2,20.6 7.26,11.5 14.26,23.1 21.13,34.8 4.1,7.1 8.24,14.1 12.23,21.3 6.79,12.2 13.32,24.6 19.72,37 3.52,6.9 7.11,13.6 10.51,20.5 7.11,14.5 13.75,29.2 20.31,44 2.23,5 4.65,9.9 6.8,15 8.48,20 16.52,40.2 23.99,60.7 1.48,4 2.73,8.2 4.18,12.3 5.78,16.5 11.36,33 16.44,49.8 2.23,7.3 4.18,14.7 6.25,22 3.95,13.8 7.74,27.7 11.17,41.7 2.03,8.2 3.91,16.6 5.78,25 2.97,13.4 5.79,26.8 8.36,40.3 1.6,8.6 3.17,17.3 4.65,26 2.27,13.7 4.26,27.6 6.1,41.5 1.09,8.5 2.26,16.9 3.24,25.4 1.68,15.2 2.89,30.4 3.98,45.7 0.55,7.3 1.29,14.7 1.68,22.1 1.25,22.7 2.03,45.5 2.03,68.5 0,678.3 -549.84,1228.1 -1228.08,1228.1 -23.01,0 -45.82,-0.8 -68.56,-2 -7.42,-0.4 -14.76,-1.2 -22.11,-1.7"
         style="fill:#f9a72b;fill-opacity:1;fill-rule:nonzero;stroke:none"
         id="path262"
         inkscape:connector-curvature="0" /><path
         d="m 7123.01,8481.8 c 3.16,1.1 6.25,2.2 9.45,3.2 -3.2,-1 -6.29,-2.1 -9.45,-3.2"
         style="fill:#f9ac47;fill-opacity:1;fill-rule:nonzero;stroke:none"
         id="path264"
         inkscape:connector-curvature="0" /><path
         d="m 7203.79,8503.3 c 4.57,1 9.18,2 13.79,2.9 -4.61,-0.9 -9.22,-1.9 -13.79,-2.9"
         style="fill:#f9ac47;fill-opacity:1;fill-rule:nonzero;stroke:none"
         id="path266"
         inkscape:connector-curvature="0" /><path
         d="m 7049.84,8455 c 1.76,0.7 3.56,1.3 5.32,2 -1.76,-0.7 -3.56,-1.3 -5.32,-2"
         style="fill:#f9ac47;fill-opacity:1;fill-rule:nonzero;stroke:none"
         id="path268"
         inkscape:connector-curvature="0" /><path
         d="m 7291.02,8517.4 c 4.02,0.4 8.16,0.7 12.22,1 -4.06,-0.3 -8.2,-0.6 -12.22,-1"
         style="fill:#f9ac47;fill-opacity:1;fill-rule:nonzero;stroke:none"
         id="path270"
         inkscape:connector-curvature="0" /><path
         d="m 6778.63,8271 c 2.23,2.2 4.53,4.3 6.76,6.5 -2.23,-2.2 -4.53,-4.3 -6.76,-6.5"
         style="fill:#f9ac47;fill-opacity:1;fill-rule:nonzero;stroke:none"
         id="path272"
         inkscape:connector-curvature="0" /><path
         d="m 6972.11,8416.9 c 3.83,2.1 7.69,4.1 11.52,6.1 -3.83,-2 -7.69,-4 -11.52,-6.1"
         style="fill:#f9ac47;fill-opacity:1;fill-rule:nonzero;stroke:none"
         id="path274"
         inkscape:connector-curvature="0" /><path
         d="m 7988.48,7073.7 c -2.03,-2 -3.95,-4.2 -6.02,-6.2 2.07,2 3.99,4.2 6.02,6.2"
         style="fill:#f9ac47;fill-opacity:1;fill-rule:nonzero;stroke:none"
         id="path276"
         inkscape:connector-curvature="0" /><path
         d="m 7929.18,7019.1 c -3.32,-2.8 -6.64,-5.6 -10.04,-8.3 3.4,2.7 6.72,5.5 10.04,8.3"
         style="fill:#f9ac47;fill-opacity:1;fill-rule:nonzero;stroke:none"
         id="path278"
         inkscape:connector-curvature="0" /><path
         d="m 6837.34,8324.7 c 1.76,1.5 3.44,3 5.2,4.5 -1.76,-1.5 -3.44,-3 -5.2,-4.5"
         style="fill:#f9ac47;fill-opacity:1;fill-rule:nonzero;stroke:none"
         id="path280"
         inkscape:connector-curvature="0" /><path
         d="m 6900.43,8372.5 c 3.67,2.5 7.34,5.1 11.05,7.6 -3.71,-2.5 -7.38,-5.1 -11.05,-7.6"
         style="fill:#f9ac47;fill-opacity:1;fill-rule:nonzero;stroke:none"
         id="path282"
         inkscape:connector-curvature="0" /><path
         d="m 6721.8,8207.5 c 2.93,3.7 5.9,7.1 8.9,10.7 -3,-3.6 -5.97,-7 -8.9,-10.7"
         style="fill:#f9ac47;fill-opacity:1;fill-rule:nonzero;stroke:none"
         id="path284"
         inkscape:connector-curvature="0" /><path
         d="m 8168.28,7343.8 c -0.7,-1.7 -1.33,-3.5 -2.07,-5.2 0.74,1.7 1.37,3.5 2.07,5.2"
         style="fill:#f9ac47;fill-opacity:1;fill-rule:nonzero;stroke:none"
         id="path286"
         inkscape:connector-curvature="0" /><path
         d="m 8134.3,7272.3 c -2.03,-3.8 -3.99,-7.7 -6.1,-11.4 2.11,3.7 4.07,7.6 6.1,11.4"
         style="fill:#f9ac47;fill-opacity:1;fill-rule:nonzero;stroke:none"
         id="path288"
         inkscape:connector-curvature="0" /><path
         d="m 8040.39,7131.1 c -1.33,-1.6 -2.73,-3.1 -4.06,-4.7 1.33,1.6 2.73,3.1 4.06,4.7"
         style="fill:#f9ac47;fill-opacity:1;fill-rule:nonzero;stroke:none"
         id="path290"
         inkscape:connector-curvature="0" /><path
         d="m 8196.25,7421.1 c -0.98,-3.1 -2.07,-6.3 -3.09,-9.3 1.02,3.1 2.11,6.2 3.09,9.3"
         style="fill:#f9ac47;fill-opacity:1;fill-rule:nonzero;stroke:none"
         id="path292"
         inkscape:connector-curvature="0" /><path
         d="m 8091.29,7200.1 c -2.42,-3.7 -4.92,-7.2 -7.42,-10.8 2.5,3.6 5,7.1 7.42,10.8"
         style="fill:#f9ac47;fill-opacity:1;fill-rule:nonzero;stroke:none"
         id="path294"
         inkscape:connector-curvature="0" /><path
         d="m 8217.46,7506.3 c -0.9,-4.6 -1.87,-9.2 -2.85,-13.8 0.98,4.6 1.95,9.2 2.85,13.8"
         style="fill:#f9ac47;fill-opacity:1;fill-rule:nonzero;stroke:none"
         id="path296"
         inkscape:connector-curvature="0" /><path
         d="m 8229.77,7591.9 c -0.39,-4 -0.67,-8.1 -1.1,-12.2 0.47,4.1 0.71,8.2 1.1,12.2"
         style="fill:#f9ac47;fill-opacity:1;fill-rule:nonzero;stroke:none"
         id="path298"
         inkscape:connector-curvature="0" /><path
         d="m 7238.05,8378 c -197.39,0 -378.99,-67.2 -523.36,-180 -114.53,-145 -183.4,-327.7 -183.4,-526.8 0,-470.1 381.09,-851.2 851.25,-851.2 199.1,0 381.84,68.9 526.84,183.5 112.69,144.3 179.92,325.9 179.92,523.3 0,470.1 -381.14,851.2 -851.25,851.2"
         style="fill:#f9ac47;fill-opacity:1;fill-rule:nonzero;stroke:none"
         id="path300"
         inkscape:connector-curvature="0" /><path
         d="m 8040.39,7131.1 c 15.35,18.7 29.77,38.2 43.48,58.2 2.5,3.6 5,7.1 7.42,10.8 13.12,19.7 25.43,39.9 36.91,60.8 2.11,3.7 4.07,7.6 6.1,11.4 11.48,21.6 22.3,43.6 31.91,66.3 0.74,1.7 1.37,3.5 2.07,5.2 9.26,22.1 17.5,44.8 24.88,68 1.02,3 2.11,6.2 3.09,9.3 7.19,23.4 13.2,47.2 18.36,71.4 0.98,4.6 1.95,9.2 2.85,13.8 4.73,24.1 8.56,48.6 11.21,73.4 0.43,4.1 0.71,8.2 1.1,12.2 2.42,26.2 3.98,52.5 3.98,79.3 0,470.2 -381.09,851.3 -851.21,851.3 -26.8,0 -53.16,-1.6 -79.3,-4.1 -4.06,-0.3 -8.2,-0.6 -12.22,-1 -24.85,-2.7 -49.3,-6.5 -73.44,-11.2 -4.61,-0.9 -9.22,-1.9 -13.79,-2.9 -24.18,-5.1 -47.97,-11.1 -71.33,-18.3 -3.2,-1 -6.29,-2.1 -9.45,-3.2 -23.05,-7.3 -45.71,-15.6 -67.85,-24.8 -1.76,-0.7 -3.56,-1.3 -5.32,-2 -22.65,-9.7 -44.61,-20.5 -66.21,-32 -3.83,-2 -7.69,-4 -11.52,-6.1 -20.78,-11.4 -40.98,-23.7 -60.63,-36.8 -3.71,-2.5 -7.38,-5.1 -11.05,-7.6 -19.88,-13.7 -39.3,-28 -57.89,-43.3 -1.76,-1.5 -3.44,-3 -5.2,-4.5 -17.96,-15 -35.27,-30.8 -51.95,-47.2 -2.23,-2.2 -4.53,-4.3 -6.76,-6.5 -16.75,-16.9 -32.61,-34.6 -47.93,-52.8 -3,-3.6 -5.97,-7 -8.9,-10.7 -3.01,-3.7 -6.17,-7.2 -9.1,-10.9 0.62,0.5 1.32,0.9 1.99,1.4 144.37,112.8 325.97,180 523.36,180 470.11,0 851.25,-381.1 851.25,-851.2 0,-197.4 -67.23,-379 -179.92,-523.3 -0.55,-0.7 -0.98,-1.5 -1.49,-2.1 3.83,3.1 7.46,6.3 11.25,9.4 3.4,2.7 6.72,5.5 10.04,8.3 18.4,15.4 36.25,31.5 53.28,48.4 2.07,2 3.99,4.2 6.02,6.2 16.64,17 32.61,34.5 47.85,52.7 1.33,1.6 2.73,3.1 4.06,4.7"
         style="fill:#f9a72b;fill-opacity:1;fill-rule:nonzero;stroke:none"
         id="path302"
         inkscape:connector-curvature="0" /><path
         d="m 15031,9657.6 c -4,-30.3 -8.4,-60.6 -13.4,-90.6 5,30 9.4,60.3 13.4,90.6"
         style="fill:#f9ac47;fill-opacity:1;fill-rule:nonzero;stroke:none"
         id="path304"
         inkscape:connector-curvature="0" /><path
         d="m 12206.3,12707 c 49.9,2.8 100,4.4 150.6,4.4 -50.6,0 -100.7,-1.6 -150.6,-4.4"
         style="fill:#f9ac47;fill-opacity:1;fill-rule:nonzero;stroke:none"
         id="path306"
         inkscape:connector-curvature="0" /><path
         d="m 11910.6,12673.9 c 30,5.1 60.3,9.5 90.7,13.4 -30.4,-3.9 -60.7,-8.3 -90.7,-13.4"
         style="fill:#f9ac47;fill-opacity:1;fill-rule:nonzero;stroke:none"
         id="path308"
         inkscape:connector-curvature="0" /><path
         d="m 10921.9,12297.8 c 24.6,15.5 49.4,30.5 74.5,45.3 -25.1,-14.8 -49.9,-29.8 -74.5,-45.3"
         style="fill:#f9ac47;fill-opacity:1;fill-rule:nonzero;stroke:none"
         id="path310"
         inkscape:connector-curvature="0" /><path
         d="m 15047,9814 c -2.5,-33.5 -5.2,-66.9 -8.9,-100.1 3.7,33.2 6.4,66.6 8.9,100.1"
         style="fill:#f9ac47;fill-opacity:1;fill-rule:nonzero;stroke:none"
         id="path312"
         inkscape:connector-curvature="0" /><path
         d="m 12057.6,12694.5 c 33.1,3.7 66.6,6.4 100.1,8.8 -33.6,-2.4 -67,-5.1 -100.1,-8.8"
         style="fill:#f9ac47;fill-opacity:1;fill-rule:nonzero;stroke:none"
         id="path314"
         inkscape:connector-curvature="0" /><path
         d="m 15055,10013.2 c 0,-50.5 -1.6,-100.7 -4.4,-150.5 2.8,49.8 4.4,100 4.4,150.5"
         style="fill:#f9ac47;fill-opacity:1;fill-rule:nonzero;stroke:none"
         id="path316"
         inkscape:connector-curvature="0" /><path
         d="m 10679.4,12125.8 c 26.1,20.7 52.4,41.3 79.4,61.1 -27,-19.8 -53.3,-40.4 -79.4,-61.1"
         style="fill:#f9ac47;fill-opacity:1;fill-rule:nonzero;stroke:none"
         id="path318"
         inkscape:connector-curvature="0" /><path
         d="m 11765,12645.5 c 29.2,6.5 58.6,12.7 88.1,18.2 -29.5,-5.5 -58.9,-11.7 -88.1,-18.2"
         style="fill:#f9ac47;fill-opacity:1;fill-rule:nonzero;stroke:none"
         id="path320"
         inkscape:connector-curvature="0" /><path
         d="m 11044.8,12370.9 c 26.3,14.6 52.8,28.5 79.6,42.3 -26.8,-13.8 -53.3,-27.7 -79.6,-42.3"
         style="fill:#f9ac47;fill-opacity:1;fill-rule:nonzero;stroke:none"
         id="path322"
         inkscape:connector-curvature="0" /><path
         d="m 11170.9,12437 c 31.1,15.3 62.6,29.6 94.3,43.6 -31.7,-14 -63.2,-28.3 -94.3,-43.6"
         style="fill:#f9ac47;fill-opacity:1;fill-rule:nonzero;stroke:none"
         id="path324"
         inkscape:connector-curvature="0" /><path
         d="m 11300.4,12496.6 c 43.7,18.6 87.9,36.1 132.8,52.5 -44.9,-16.4 -89.1,-33.9 -132.8,-52.5"
         style="fill:#f9ac47;fill-opacity:1;fill-rule:nonzero;stroke:none"
         id="path326"
         inkscape:connector-curvature="0" /><path
         d="m 11619,12608.4 c 30,8.5 60.1,16.8 90.4,24.3 -30.3,-7.5 -60.4,-15.8 -90.4,-24.3"
         style="fill:#f9ac47;fill-opacity:1;fill-rule:nonzero;stroke:none"
         id="path328"
         inkscape:connector-curvature="0" /><path
         d="m 11462.2,12558.9 c 35.5,12.4 71.2,24.5 107.4,35.5 -36.2,-11 -71.9,-23.1 -107.4,-35.5"
         style="fill:#f9ac47;fill-opacity:1;fill-rule:nonzero;stroke:none"
         id="path330"
         inkscape:connector-curvature="0" /><path
         d="m 14938,9226 c -11,-36.2 -23,-71.9 -35.5,-107.5 12.5,35.6 24.5,71.3 35.5,107.5"
         style="fill:#f9ac47;fill-opacity:1;fill-rule:nonzero;stroke:none"
         id="path332"
         inkscape:connector-curvature="0" /><path
         d="m 10540.7,12008.6 c 34.7,31.6 70.3,62.2 106.6,92 -36.3,-29.8 -71.9,-60.4 -106.6,-92"
         style="fill:#f9ac47;fill-opacity:1;fill-rule:nonzero;stroke:none"
         id="path334"
         inkscape:connector-curvature="0" /><path
         d="m 14111.8,7964.7 c -22.6,-19.4 -45.5,-38.5 -68.8,-57.2 23.3,18.7 46.2,37.8 68.8,57.2"
         style="fill:#f9ac47;fill-opacity:1;fill-rule:nonzero;stroke:none"
         id="path336"
         inkscape:connector-curvature="0" /><path
         d="m 14338.9,8183.1 c -27.5,-29.7 -55.5,-58.9 -84.3,-87.4 28.8,28.5 56.8,57.7 84.3,87.4"
         style="fill:#f9ac47;fill-opacity:1;fill-rule:nonzero;stroke:none"
         id="path338"
         inkscape:connector-curvature="0" /><path
         d="m 12356.9,7315.1 c 629.4,0 1207.9,216.1 1666.9,577.3 359.1,458.3 573.3,1035.5 573.3,1662.9 0,1490.1 -1208,2698.2 -2698.2,2698.2 -627.3,0 -1204.6,-214.1 -1662.8,-573.3 -361.3,-458.9 -577.39,-1037.5 -577.39,-1667 0,-1490.1 1207.99,-2698.1 2698.19,-2698.1"
         style="fill:#f9ac47;fill-opacity:1;fill-rule:nonzero;stroke:none"
         id="path340"
         inkscape:connector-curvature="0" /><path
         d="m 14220.9,8063.5 c -22.8,-21.7 -45.8,-43.3 -69.3,-64.3 23.6,21 46.5,42.6 69.3,64.3"
         style="fill:#f9ac47;fill-opacity:1;fill-rule:nonzero;stroke:none"
         id="path342"
         inkscape:connector-curvature="0" /><path
         d="m 10343,11808.2 c 20.8,23.3 42.2,46.1 63.8,68.7 -21.6,-22.6 -43,-45.4 -63.8,-68.7"
         style="fill:#f9ac47;fill-opacity:1;fill-rule:nonzero;stroke:none"
         id="path344"
         inkscape:connector-curvature="0" /><path
         d="m 10251.4,11699.7 c 18.5,23.1 37.4,45.7 56.6,68.1 -19.2,-22.4 -38.1,-45 -56.6,-68.1"
         style="fill:#f9ac47;fill-opacity:1;fill-rule:nonzero;stroke:none"
         id="path346"
         inkscape:connector-curvature="0" /><path
         d="m 10439.4,11911.1 c 28.4,28.6 57.4,56.6 87,83.9 -29.6,-27.3 -58.6,-55.3 -87,-83.9"
         style="fill:#f9ac47;fill-opacity:1;fill-rule:nonzero;stroke:none"
         id="path348"
         inkscape:connector-curvature="0" /><path
         d="m 10801.3,12217.2 c 24.3,17.1 48.8,34.1 73.7,50.5 -24.9,-16.4 -49.4,-33.3 -73.7,-50.5"
         style="fill:#f9ac47;fill-opacity:1;fill-rule:nonzero;stroke:none"
         id="path350"
         inkscape:connector-curvature="0" /><path
         d="m 14976.3,9365.9 c -7.5,-30.5 -15.8,-60.6 -24.3,-90.5 8.5,29.9 16.8,60 24.3,90.5"
         style="fill:#f9ac47;fill-opacity:1;fill-rule:nonzero;stroke:none"
         id="path352"
         inkscape:connector-curvature="0" /><path
         d="m 14824.2,8921.4 c -14,-31.6 -28.3,-63.1 -43.5,-94.1 15.2,31 29.5,62.5 43.5,94.1"
         style="fill:#f9ac47;fill-opacity:1;fill-rule:nonzero;stroke:none"
         id="path354"
         inkscape:connector-curvature="0" /><path
         d="m 15007.4,9509.5 c -5.6,-29.5 -11.8,-58.9 -18.3,-88.1 6.5,29.2 12.7,58.6 18.3,88.1"
         style="fill:#f9ac47;fill-opacity:1;fill-rule:nonzero;stroke:none"
         id="path356"
         inkscape:connector-curvature="0" /><path
         d="m 14892.7,9089.6 c -16.4,-44.9 -33.9,-89.1 -52.5,-132.8 18.6,43.7 36.1,87.9 52.5,132.8"
         style="fill:#f9ac47;fill-opacity:1;fill-rule:nonzero;stroke:none"
         id="path358"
         inkscape:connector-curvature="0" /><path
         d="m 14444.2,8303.7 c -29.7,-36.3 -60.4,-71.9 -92,-106.6 31.6,34.7 62.3,70.3 92,106.6"
         style="fill:#f9ac47;fill-opacity:1;fill-rule:nonzero;stroke:none"
         id="path360"
         inkscape:connector-curvature="0" /><path
         d="m 14756.8,8780.8 c -13.7,-26.7 -27.7,-53.3 -42.3,-79.6 14.6,26.3 28.6,52.9 42.3,79.6"
         style="fill:#f9ac47;fill-opacity:1;fill-rule:nonzero;stroke:none"
         id="path362"
         inkscape:connector-curvature="0" /><path
         d="m 14686.6,8652.8 c -14.6,-25.1 -29.7,-49.9 -45.2,-74.5 15.5,24.6 30.6,49.4 45.2,74.5"
         style="fill:#f9ac47;fill-opacity:1;fill-rule:nonzero;stroke:none"
         id="path364"
         inkscape:connector-curvature="0" /><path
         d="m 14530.5,8415 c -19.8,-26.8 -40.3,-53 -61,-79.2 20.7,26.2 41.2,52.4 61,79.2"
         style="fill:#f9ac47;fill-opacity:1;fill-rule:nonzero;stroke:none"
         id="path366"
         inkscape:connector-curvature="0" /><path
         d="m 14611.3,8531.4 c -16.3,-25 -33.3,-49.4 -50.4,-73.7 17.1,24.3 34.1,48.7 50.4,73.7"
         style="fill:#f9ac47;fill-opacity:1;fill-rule:nonzero;stroke:none"
         id="path368"
         inkscape:connector-curvature="0" /><path
         d="m 14597.1,9555.3 c 0,-627.4 -214.2,-1204.6 -573.3,-1662.9 -0.6,-0.7 -1.1,-1.5 -1.7,-2.3 7.1,5.6 13.8,11.8 20.9,17.4 23.3,18.7 46.2,37.8 68.8,57.2 13.4,11.4 26.8,22.8 39.8,34.5 23.5,21 46.5,42.6 69.3,64.3 11.2,10.8 22.7,21.3 33.7,32.2 28.8,28.5 56.8,57.7 84.3,87.4 4.3,4.7 9,9.2 13.3,14 31.6,34.7 62.3,70.3 92,106.6 8.7,10.6 16.8,21.5 25.3,32.1 20.7,26.2 41.2,52.4 61,79.2 10.4,14.1 20.3,28.5 30.4,42.7 17.1,24.3 34.1,48.7 50.4,73.7 10.3,15.4 20.2,31.1 30.1,46.9 15.5,24.6 30.6,49.4 45.2,74.5 9.5,16.1 18.8,32.1 27.9,48.4 14.6,26.3 28.6,52.9 42.3,79.6 8,15.5 16.2,30.8 23.9,46.5 15.2,31 29.5,62.5 43.5,94.1 5.3,11.8 10.9,23.4 16,35.4 18.6,43.7 36.1,87.9 52.5,132.8 3.4,9.5 6.4,19.3 9.8,28.9 12.5,35.6 24.5,71.3 35.5,107.5 5,16.3 9.3,32.9 14,49.4 8.5,29.9 16.8,60 24.3,90.5 4.5,18.4 8.7,36.9 12.8,55.5 6.5,29.2 12.7,58.6 18.3,88.1 3.6,19.1 7.1,38.2 10.2,57.5 5,30 9.4,60.3 13.4,90.6 2.4,18.7 5,37.4 7.1,56.3 3.7,33.2 6.4,66.6 8.9,100.1 1.1,16.2 2.7,32.4 3.6,48.7 2.8,49.8 4.4,100 4.4,150.5 0,1490.2 -1208,2698.2 -2698.1,2698.2 -50.6,0 -100.7,-1.6 -150.6,-4.4 -16.3,-0.9 -32.4,-2.5 -48.6,-3.7 -33.5,-2.4 -67,-5.1 -100.1,-8.8 -18.9,-2.1 -37.6,-4.7 -56.3,-7.2 -30.4,-3.9 -60.7,-8.3 -90.7,-13.4 -19.3,-3.1 -38.4,-6.6 -57.5,-10.2 -29.5,-5.5 -58.9,-11.7 -88.1,-18.2 -18.6,-4.1 -37.1,-8.3 -55.6,-12.8 -30.3,-7.5 -60.4,-15.8 -90.4,-24.3 -16.4,-4.6 -33.1,-9.1 -49.4,-14 -36.2,-11 -71.9,-23.1 -107.4,-35.5 -9.6,-3.4 -19.4,-6.4 -29,-9.8 -44.9,-16.4 -89.1,-33.9 -132.8,-52.5 -11.9,-5.1 -23.4,-10.7 -35.2,-16 -31.7,-14 -63.2,-28.3 -94.3,-43.6 -15.6,-7.6 -31.1,-15.8 -46.5,-23.8 -26.8,-13.8 -53.3,-27.7 -79.6,-42.3 -16.2,-9.1 -32.3,-18.5 -48.4,-27.8 -25.1,-14.8 -49.9,-29.8 -74.5,-45.3 -15.8,-9.9 -31.4,-19.9 -46.9,-30.1 -24.9,-16.4 -49.4,-33.4 -73.7,-50.5 -14.2,-10 -28.6,-19.9 -42.5,-30.3 -27,-19.8 -53.3,-40.4 -79.4,-61.1 -10.6,-8.5 -21.5,-16.6 -32.1,-25.2 -36.3,-29.8 -71.9,-60.4 -106.6,-92 -4.8,-4.4 -9.4,-9.2 -14.3,-13.6 -29.6,-27.3 -58.6,-55.3 -87,-83.9 -11.1,-11.2 -21.7,-22.8 -32.6,-34.2 -21.6,-22.6 -43,-45.4 -63.8,-68.7 -11.9,-13.3 -23.4,-26.9 -35,-40.4 -19.2,-22.4 -38.1,-45 -56.6,-68.1 -5.8,-7.2 -12,-14 -17.7,-21.3 0.8,0.6 1.6,1.2 2.4,1.8 458.2,359.2 1035.5,573.3 1662.8,573.3 1490.2,0 2698.2,-1208.1 2698.2,-2698.2"
         style="fill:#f9a72b;fill-opacity:1;fill-rule:nonzero;stroke:none"
         id="path370"
         inkscape:connector-curvature="0" /><path
         d="m 10901.4,15994.5 c 13.6,6.7 27.4,13 41.3,19.1 -13.9,-6.1 -27.7,-12.4 -41.3,-19.1"
         style="fill:#f9ac47;fill-opacity:1;fill-rule:nonzero;stroke:none"
         id="path372"
         inkscape:connector-curvature="0" /><path
         d="m 10845.9,15965.4 c 11.5,6.4 23.1,12.5 34.8,18.5 -11.7,-6 -23.3,-12.1 -34.8,-18.5"
         style="fill:#f9ac47;fill-opacity:1;fill-rule:nonzero;stroke:none"
         id="path374"
         inkscape:connector-curvature="0" /><path
         d="m 10791.9,15933.3 c 10.7,6.7 21.6,13.3 32.6,19.8 -11,-6.5 -21.9,-13.1 -32.6,-19.8"
         style="fill:#f9ac47;fill-opacity:1;fill-rule:nonzero;stroke:none"
         id="path376"
         inkscape:connector-curvature="0" /><path
         d="m 11098.4,16069.8 c 13.2,3.8 26.4,7.5 39.8,10.7 -13.4,-3.2 -26.6,-6.9 -39.8,-10.7"
         style="fill:#f9ac47;fill-opacity:1;fill-rule:nonzero;stroke:none"
         id="path378"
         inkscape:connector-curvature="0" /><path
         d="m 11162.6,16086.2 c 12.9,2.8 25.7,5.5 38.7,7.9 -13,-2.4 -25.8,-5.1 -38.7,-7.9"
         style="fill:#f9ac47;fill-opacity:1;fill-rule:nonzero;stroke:none"
         id="path380"
         inkscape:connector-curvature="0" /><path
         d="m 11029.7,16048.2 c 15.5,5.4 31.1,10.6 46.9,15.5 -15.8,-4.9 -31.4,-10.1 -46.9,-15.5"
         style="fill:#f9ac47;fill-opacity:1;fill-rule:nonzero;stroke:none"
         id="path382"
         inkscape:connector-curvature="0" /><path
         d="m 10958.2,16020.6 c 19.3,8.2 38.7,15.9 58.4,23.1 -19.7,-7.2 -39.1,-14.9 -58.4,-23.1"
         style="fill:#f9ac47;fill-opacity:1;fill-rule:nonzero;stroke:none"
         id="path384"
         inkscape:connector-curvature="0" /><path
         d="m 10739,15898 c 10.6,7.4 21.2,14.8 32.1,21.9 -10.9,-7.1 -21.5,-14.5 -32.1,-21.9"
         style="fill:#f9ac47;fill-opacity:1;fill-rule:nonzero;stroke:none"
         id="path386"
         inkscape:connector-curvature="0" /><path
         d="m 11226.6,16098.7 c 13.2,2.2 26.6,4.1 40,5.9 -13.4,-1.8 -26.8,-3.7 -40,-5.9"
         style="fill:#f9ac47;fill-opacity:1;fill-rule:nonzero;stroke:none"
         id="path388"
         inkscape:connector-curvature="0" /><path
         d="m 10685.4,15857.8 c 11.4,9 22.8,18 34.5,26.6 -11.7,-8.6 -23.1,-17.6 -34.5,-26.6"
         style="fill:#f9ac47;fill-opacity:1;fill-rule:nonzero;stroke:none"
         id="path390"
         inkscape:connector-curvature="0" /><path
         d="m 10497,15670.2 c 8,10.1 16.4,20.1 24.8,29.9 -8.4,-9.8 -16.8,-19.8 -24.8,-29.9"
         style="fill:#f9ac47;fill-opacity:1;fill-rule:nonzero;stroke:none"
         id="path392"
         inkscape:connector-curvature="0" /><path
         d="m 11356.7,16113.2 c 21.9,1.2 44,2 66.2,2 -22.2,0 -44.3,-0.8 -66.2,-2"
         style="fill:#f9ac47;fill-opacity:1;fill-rule:nonzero;stroke:none"
         id="path394"
         inkscape:connector-curvature="0" /><path
         d="m 11291.3,16107.7 c 14.6,1.6 29.2,2.9 44,3.9 -14.8,-1 -29.4,-2.3 -44,-3.9"
         style="fill:#f9ac47;fill-opacity:1;fill-rule:nonzero;stroke:none"
         id="path396"
         inkscape:connector-curvature="0" /><path
         d="m 10624.2,15806.1 c 15.2,13.9 30.8,27.3 46.8,40.3 -16,-13 -31.6,-26.4 -46.8,-40.3"
         style="fill:#f9ac47;fill-opacity:1;fill-rule:nonzero;stroke:none"
         id="path398"
         inkscape:connector-curvature="0" /><path
         d="m 10537.2,15717.9 c 9.1,10.2 18.5,20.2 28,30.2 -9.5,-10 -18.9,-20 -28,-30.2"
         style="fill:#f9ac47;fill-opacity:1;fill-rule:nonzero;stroke:none"
         id="path400"
         inkscape:connector-curvature="0" /><path
         d="m 10579.6,15763.2 c 12.4,12.5 25,24.6 37.9,36.5 -12.9,-11.9 -25.5,-24 -37.9,-36.5"
         style="fill:#f9ac47;fill-opacity:1;fill-rule:nonzero;stroke:none"
         id="path402"
         inkscape:connector-curvature="0" /><path
         d="m 12558.1,14582.2 c -4.8,-15.8 -10.1,-31.4 -15.5,-46.9 5.4,15.5 10.7,31.1 15.5,46.9"
         style="fill:#f9ac47;fill-opacity:1;fill-rule:nonzero;stroke:none"
         id="path404"
         inkscape:connector-curvature="0" /><path
         d="m 12606,14840.9 c -1,-14.8 -2.3,-29.5 -3.9,-44.1 1.6,14.6 2.9,29.3 3.9,44.1"
         style="fill:#f9ac47;fill-opacity:1;fill-rule:nonzero;stroke:none"
         id="path406"
         inkscape:connector-curvature="0" /><path
         d="m 12340.8,14176.4 c -13,-15.8 -26.3,-31.3 -40.1,-46.4 13.8,15.1 27.1,30.6 40.1,46.4"
         style="fill:#f9ac47;fill-opacity:1;fill-rule:nonzero;stroke:none"
         id="path408"
         inkscape:connector-curvature="0" /><path
         d="m 12292.1,14121 c -11.2,-12.1 -22.5,-24 -34.1,-35.6 11.6,11.6 22.9,23.5 34.1,35.6"
         style="fill:#f9ac47;fill-opacity:1;fill-rule:nonzero;stroke:none"
         id="path410"
         inkscape:connector-curvature="0" /><path
         d="m 12414.3,14276.5 c -7.1,-10.7 -14.4,-21.3 -21.8,-31.8 7.4,10.5 14.7,21.1 21.8,31.8"
         style="fill:#f9ac47;fill-opacity:1;fill-rule:nonzero;stroke:none"
         id="path412"
         inkscape:connector-curvature="0" /><path
         d="m 12241.3,14069.7 c -9.3,-9 -18.8,-17.9 -28.5,-26.5 9.7,8.6 19.2,17.5 28.5,26.5"
         style="fill:#f9ac47;fill-opacity:1;fill-rule:nonzero;stroke:none"
         id="path414"
         inkscape:connector-curvature="0" /><path
         d="m 12447.4,14329.9 c -6.3,-10.9 -12.9,-21.7 -19.6,-32.4 6.7,10.7 13.3,21.5 19.6,32.4"
         style="fill:#f9ac47;fill-opacity:1;fill-rule:nonzero;stroke:none"
         id="path416"
         inkscape:connector-curvature="0" /><path
         d="m 11422.9,13741.8 c 276.8,0 531.3,95 733.1,253.9 158,201.6 252.2,455.4 252.2,731.3 0,655.5 -531.3,1186.8 -1186.7,1186.8 -276,0 -529.8,-94.3 -731.4,-252.3 -158.8,-201.8 -253.8,-456.3 -253.8,-733 0,-655.4 531.2,-1186.7 1186.6,-1186.7"
         style="fill:#f9ac47;fill-opacity:1;fill-rule:nonzero;stroke:none"
         id="path418"
         inkscape:connector-curvature="0" /><path
         d="m 12193.7,14026.6 c -9.3,-8 -18.8,-15.9 -28.3,-23.5 9.5,7.6 19,15.5 28.3,23.5"
         style="fill:#f9ac47;fill-opacity:1;fill-rule:nonzero;stroke:none"
         id="path420"
         inkscape:connector-curvature="0" /><path
         d="m 12378.8,14225.4 c -8.5,-11.5 -17.2,-22.6 -26,-33.8 8.8,11.2 17.5,22.3 26,33.8"
         style="fill:#f9ac47;fill-opacity:1;fill-rule:nonzero;stroke:none"
         id="path422"
         inkscape:connector-curvature="0" /><path
         d="m 12478.3,14386.2 c -6,-11.6 -12,-23.2 -18.5,-34.7 6.5,11.5 12.5,23.1 18.5,34.7"
         style="fill:#f9ac47;fill-opacity:1;fill-rule:nonzero;stroke:none"
         id="path424"
         inkscape:connector-curvature="0" /><path
         d="m 12575,14643.8 c -3.3,-13.4 -7,-26.7 -10.7,-39.9 3.7,13.2 7.4,26.5 10.7,39.9"
         style="fill:#f9ac47;fill-opacity:1;fill-rule:nonzero;stroke:none"
         id="path426"
         inkscape:connector-curvature="0" /><path
         d="m 12599,14772.2 c -1.7,-13.4 -3.6,-26.8 -5.9,-40.1 2.3,13.3 4.2,26.7 5.9,40.1"
         style="fill:#f9ac47;fill-opacity:1;fill-rule:nonzero;stroke:none"
         id="path428"
         inkscape:connector-curvature="0" /><path
         d="m 12588.6,14706.9 c -2.5,-13 -5.1,-25.9 -8,-38.8 2.9,12.9 5.5,25.8 8,38.8"
         style="fill:#f9ac47;fill-opacity:1;fill-rule:nonzero;stroke:none"
         id="path430"
         inkscape:connector-curvature="0" /><path
         d="m 12508,14448.2 c -6.1,-13.9 -12.4,-27.7 -19.1,-41.3 6.7,13.7 12.9,27.4 19.1,41.3"
         style="fill:#f9ac47;fill-opacity:1;fill-rule:nonzero;stroke:none"
         id="path432"
         inkscape:connector-curvature="0" /><path
         d="m 12538.2,14522.2 c -7.2,-19.7 -15,-39.2 -23.1,-58.4 8.1,19.2 15.9,38.7 23.1,58.4"
         style="fill:#f9ac47;fill-opacity:1;fill-rule:nonzero;stroke:none"
         id="path434"
         inkscape:connector-curvature="0" /><path
         d="m 12609.6,14928.5 c 0,-22.2 -0.8,-44.3 -2,-66.2 1.2,21.9 2,44 2,66.2"
         style="fill:#f9ac47;fill-opacity:1;fill-rule:nonzero;stroke:none"
         id="path436"
         inkscape:connector-curvature="0" /><path
         d="m 12408.2,14727 c 0,-275.9 -94.2,-529.7 -252.2,-731.3 -0.2,-0.3 -0.5,-0.7 -0.7,-1 3.4,2.6 6.7,5.6 10.1,8.4 9.5,7.6 19,15.5 28.3,23.5 6.4,5.5 12.8,10.9 19.1,16.6 9.7,8.6 19.2,17.5 28.5,26.5 5.6,5.2 11.2,10.4 16.7,15.7 11.6,11.6 22.9,23.5 34.1,35.6 2.8,3 5.8,5.9 8.6,9 13.8,15.1 27.1,30.6 40.1,46.4 4.1,5 7.9,10.2 12,15.2 8.8,11.2 17.5,22.3 26,33.8 4.7,6.4 9.1,12.8 13.7,19.3 7.4,10.5 14.7,21.1 21.8,31.8 4.6,7 9.1,14 13.5,21 6.7,10.7 13.3,21.5 19.6,32.4 4.2,7.2 8.4,14.4 12.4,21.6 6.5,11.5 12.5,23.1 18.5,34.7 3.6,6.9 7.2,13.7 10.6,20.7 6.7,13.6 13,27.4 19.1,41.3 2.3,5.2 4.9,10.4 7.1,15.6 8.1,19.2 15.9,38.7 23.1,58.4 1.6,4.3 2.9,8.7 4.4,13.1 5.4,15.5 10.7,31.1 15.5,46.9 2.2,7.2 4.1,14.4 6.2,21.7 3.7,13.2 7.4,26.5 10.7,39.9 1.9,8 3.8,16.2 5.6,24.3 2.9,12.9 5.5,25.8 8,38.8 1.6,8.4 3.1,16.7 4.5,25.2 2.3,13.3 4.2,26.7 5.9,40.1 1.1,8.2 2.3,16.3 3.1,24.6 1.6,14.6 2.9,29.3 3.9,44.1 0.6,7.1 1.2,14.2 1.6,21.4 1.2,21.9 2,44 2,66.2 0,655.4 -531.3,1186.7 -1186.7,1186.7 -22.2,0 -44.3,-0.8 -66.2,-2 -7.2,-0.4 -14.2,-1.1 -21.4,-1.6 -14.8,-1 -29.4,-2.3 -44,-3.9 -8.3,-0.9 -16.5,-2 -24.7,-3.1 -13.4,-1.8 -26.8,-3.7 -40,-5.9 -8.4,-1.4 -16.9,-2.9 -25.3,-4.6 -13,-2.4 -25.8,-5.1 -38.7,-7.9 -8.2,-1.9 -16.3,-3.7 -24.4,-5.7 -13.4,-3.2 -26.6,-6.9 -39.8,-10.7 -7.3,-2 -14.6,-3.9 -21.8,-6.1 -15.8,-4.9 -31.4,-10.1 -46.9,-15.5 -4.3,-1.6 -8.8,-2.9 -13.1,-4.5 -19.7,-7.2 -39.1,-14.9 -58.4,-23.1 -5.2,-2.2 -10.3,-4.7 -15.5,-7 -13.9,-6.1 -27.7,-12.4 -41.3,-19.1 -7,-3.4 -13.8,-7 -20.7,-10.6 -11.7,-6 -23.3,-12.1 -34.8,-18.5 -7.2,-4 -14.3,-8.1 -21.4,-12.3 -11,-6.5 -21.9,-13.1 -32.6,-19.8 -7,-4.4 -13.9,-8.9 -20.8,-13.4 -10.9,-7.1 -21.5,-14.5 -32.1,-21.9 -6.4,-4.6 -12.8,-9 -19.1,-13.6 -11.7,-8.6 -23.1,-17.6 -34.5,-26.6 -4.8,-3.8 -9.7,-7.5 -14.4,-11.4 -16,-13 -31.6,-26.4 -46.8,-40.3 -2.3,-2.1 -4.5,-4.3 -6.7,-6.4 -12.9,-11.9 -25.5,-24 -37.9,-36.5 -4.9,-5 -9.6,-10.1 -14.4,-15.1 -9.5,-10 -18.9,-20 -28,-30.2 -5.2,-5.9 -10.3,-11.8 -15.4,-17.8 -8.4,-9.8 -16.8,-19.8 -24.8,-29.9 -2.6,-3.1 -5.4,-6.1 -7.9,-9.4 0.4,0.2 0.7,0.5 1,0.7 201.6,158 455.4,252.3 731.4,252.3 655.4,0 1186.7,-531.3 1186.7,-1186.8"
         style="fill:#f9a72b;fill-opacity:1;fill-rule:nonzero;stroke:none"
         id="path438"
         inkscape:connector-curvature="0" /><path
         d="m 6247.77,14382.6 c 17.15,17.3 35.2,33.8 54.07,49.3 -18.91,-15.5 -36.92,-32 -54.07,-49.3"
         style="fill:#f9ac47;fill-opacity:1;fill-rule:nonzero;stroke:none"
         id="path440"
         inkscape:connector-curvature="0" /><path
         d="m 6314.53,14441.4 c 15.12,11.8 30.47,23.3 46.52,33.9 -16.05,-10.6 -31.4,-22.1 -46.52,-33.9"
         style="fill:#f9ac47;fill-opacity:1;fill-rule:nonzero;stroke:none"
         id="path442"
         inkscape:connector-curvature="0" /><path
         d="m 6383.52,14488.9 c 13.55,8.2 27.26,16.2 41.4,23.5 -14.18,-7.3 -27.85,-15.3 -41.4,-23.5"
         style="fill:#f9ac47;fill-opacity:1;fill-rule:nonzero;stroke:none"
         id="path444"
         inkscape:connector-curvature="0" /><path
         d="m 6199.1,14327.7 c 11.21,14 23.17,27.3 35.43,40.3 -12.26,-13 -24.22,-26.3 -35.43,-40.3"
         style="fill:#f9ac47;fill-opacity:1;fill-rule:nonzero;stroke:none"
         id="path446"
         inkscape:connector-curvature="0" /><path
         d="m 7335.23,13501.3 c -10.74,-16.3 -22.34,-31.9 -34.37,-47.2 12.03,15.3 23.63,30.9 34.37,47.2"
         style="fill:#f9ac47;fill-opacity:1;fill-rule:nonzero;stroke:none"
         id="path448"
         inkscape:connector-curvature="0" /><path
         d="m 6451.09,14525 c 13.79,6.5 27.78,12.5 42.07,18.1 -14.29,-5.6 -28.28,-11.6 -42.07,-18.1"
         style="fill:#f9ac47;fill-opacity:1;fill-rule:nonzero;stroke:none"
         id="path450"
         inkscape:connector-curvature="0" /><path
         d="m 7403.05,13633.5 c -5.63,-14.5 -11.72,-28.6 -18.21,-42.5 6.49,13.9 12.58,28 18.21,42.5"
         style="fill:#f9ac47;fill-opacity:1;fill-rule:nonzero;stroke:none"
         id="path452"
         inkscape:connector-curvature="0" /><path
         d="m 7372.38,13565.2 c -7.38,-14.3 -15.47,-28.2 -23.83,-41.9 8.36,13.7 16.45,27.5 23.83,41.9"
         style="fill:#f9ac47;fill-opacity:1;fill-rule:nonzero;stroke:none"
         id="path454"
         inkscape:connector-curvature="0" /><path
         d="m 7451.13,13887.7 c 0,-26.4 -1.72,-52.3 -4.53,-77.9 2.81,25.6 4.53,51.5 4.53,77.9"
         style="fill:#f9ac47;fill-opacity:1;fill-rule:nonzero;stroke:none"
         id="path456"
         inkscape:connector-curvature="0" /><path
         d="m 7442.81,13785 c -2.5,-17.1 -5.27,-34.2 -8.98,-50.9 3.71,16.7 6.48,33.8 8.98,50.9"
         style="fill:#f9ac47;fill-opacity:1;fill-rule:nonzero;stroke:none"
         id="path458"
         inkscape:connector-curvature="0" /><path
         d="m 6669.65,14586.7 c 25.62,2.8 51.56,4.6 77.93,4.6 -26.37,0 -52.31,-1.8 -77.93,-4.6"
         style="fill:#f9ac47;fill-opacity:1;fill-rule:nonzero;stroke:none"
         id="path460"
         inkscape:connector-curvature="0" /><path
         d="m 7426.64,13706.2 c -4.06,-15.2 -8.44,-30.3 -13.48,-45.1 5.04,14.8 9.42,29.9 13.48,45.1"
         style="fill:#f9ac47;fill-opacity:1;fill-rule:nonzero;stroke:none"
         id="path462"
         inkscape:connector-curvature="0" /><path
         d="m 6521.13,14553.3 c 14.69,5 29.69,9.4 44.81,13.4 -15.12,-4 -30.08,-8.4 -44.81,-13.4"
         style="fill:#f9ac47;fill-opacity:1;fill-rule:nonzero;stroke:none"
         id="path464"
         inkscape:connector-curvature="0" /><path
         d="m 6594.06,14573.9 c 16.68,3.8 33.71,6.5 50.82,9 -17.11,-2.5 -34.14,-5.2 -50.82,-9"
         style="fill:#f9ac47;fill-opacity:1;fill-rule:nonzero;stroke:none"
         id="path466"
         inkscape:connector-curvature="0" /><path
         d="m 7227.89,13374.6 c -13.05,-12.2 -26.29,-24.2 -40.23,-35.4 13.94,11.2 27.18,23.2 40.23,35.4"
         style="fill:#f9ac47;fill-opacity:1;fill-rule:nonzero;stroke:none"
         id="path468"
         inkscape:connector-curvature="0" /><path
         d="m 6747.58,13184.2 c 164.57,0 315.58,56.9 435.43,151.6 93.16,119.4 148.71,269.4 148.71,432.5 0,388.6 -314.96,703.6 -703.52,703.6 -163.12,0 -313.24,-55.6 -432.54,-148.8 -94.68,-119.8 -151.6,-270.8 -151.6,-435.4 0,-388.6 314.96,-703.5 703.52,-703.5"
         style="fill:#f9ac47;fill-opacity:1;fill-rule:nonzero;stroke:none"
         id="path470"
         inkscape:connector-curvature="0" /><path
         d="m 7291.84,13442 c -15.51,-18.9 -32.04,-37 -49.38,-54.1 17.34,17.1 33.87,35.2 49.38,54.1"
         style="fill:#f9ac47;fill-opacity:1;fill-rule:nonzero;stroke:none"
         id="path472"
         inkscape:connector-curvature="0" /><path
         d="m 7331.72,13768.3 c 0,-163.1 -55.55,-313.1 -148.71,-432.5 -0.43,-0.6 -0.78,-1.1 -1.21,-1.7 2.03,1.6 3.83,3.5 5.86,5.1 13.94,11.2 27.18,23.2 40.23,35.4 4.81,4.5 9.92,8.6 14.57,13.3 17.34,17.1 33.87,35.2 49.38,54.1 3.2,3.9 5.93,8.1 9.02,12.1 12.03,15.3 23.63,30.9 34.37,47.2 4.69,7.1 8.87,14.6 13.32,22 8.36,13.7 16.45,27.6 23.83,41.9 4.42,8.4 8.4,17.1 12.46,25.8 6.49,13.9 12.58,28 18.21,42.5 3.55,9.1 6.91,18.3 10.11,27.6 5.04,14.8 9.42,29.9 13.48,45.1 2.5,9.3 5.08,18.5 7.19,27.9 3.71,16.7 6.48,33.8 8.98,50.9 1.21,8.3 2.85,16.4 3.79,24.8 2.81,25.6 4.53,51.5 4.53,77.9 0,388.6 -314.96,703.6 -703.55,703.6 -26.37,0 -52.31,-1.8 -77.93,-4.6 -8.4,-1 -16.49,-2.6 -24.77,-3.8 -17.11,-2.5 -34.14,-5.2 -50.82,-9 -9.53,-2.1 -18.79,-4.7 -28.12,-7.2 -15.12,-4 -30.12,-8.4 -44.81,-13.4 -9.41,-3.2 -18.71,-6.6 -27.97,-10.2 -14.29,-5.6 -28.28,-11.6 -42.07,-18.1 -8.82,-4 -17.57,-8.1 -26.17,-12.6 -14.14,-7.3 -27.85,-15.3 -41.4,-23.5 -7.5,-4.6 -15.16,-8.8 -22.47,-13.6 -16.05,-10.6 -31.4,-22.1 -46.52,-33.9 -4.18,-3.3 -8.63,-6.1 -12.69,-9.5 -18.87,-15.5 -36.92,-32 -54.07,-49.3 -4.64,-4.7 -8.79,-9.8 -13.24,-14.6 -12.26,-13 -24.22,-26.3 -35.43,-40.3 -1.6,-2 -3.51,-3.8 -5.12,-5.8 0.55,0.4 1.14,0.8 1.68,1.2 119.3,93.2 269.42,148.8 432.54,148.8 388.56,0 703.52,-315 703.52,-703.6"
         style="fill:#f9a72b;fill-opacity:1;fill-rule:nonzero;stroke:none"
         id="path474"
         inkscape:connector-curvature="0" /><path
         d="m 9063.09,6649.3 c 13.12,6.1 26.44,11.9 40.04,17.2 -13.6,-5.3 -26.92,-11.1 -40.04,-17.2"
         style="fill:#f9ac47;fill-opacity:1;fill-rule:nonzero;stroke:none"
         id="path476"
         inkscape:connector-curvature="0" /><path
         d="m 9951.56,5817.7 c -5.19,-13.4 -10.86,-26.5 -16.87,-39.4 6.05,12.9 11.68,26 16.87,39.4"
         style="fill:#f9ac47;fill-opacity:1;fill-rule:nonzero;stroke:none"
         id="path478"
         inkscape:connector-curvature="0" /><path
         d="m 8999.61,6615.2 c 13.05,8 26.29,15.7 39.88,22.8 -13.63,-7.1 -26.79,-14.8 -39.88,-22.8"
         style="fill:#f9ac47;fill-opacity:1;fill-rule:nonzero;stroke:none"
         id="path480"
         inkscape:connector-curvature="0" /><path
         d="m 8933.98,6569.9 c 14.85,11.7 30.08,23 45.94,33.4 -15.86,-10.4 -31.09,-21.7 -45.94,-33.4"
         style="fill:#f9ac47;fill-opacity:1;fill-rule:nonzero;stroke:none"
         id="path482"
         inkscape:connector-curvature="0" /><path
         d="m 9128.71,6675.9 c 13.87,4.7 27.97,8.8 42.23,12.6 -14.26,-3.8 -28.36,-7.9 -42.23,-12.6"
         style="fill:#f9ac47;fill-opacity:1;fill-rule:nonzero;stroke:none"
         id="path484"
         inkscape:connector-curvature="0" /><path
         d="m 8828.28,6465.2 c 10.9,13.6 22.54,26.5 34.45,39.2 -11.91,-12.8 -23.55,-25.6 -34.45,-39.2"
         style="fill:#f9ac47;fill-opacity:1;fill-rule:nonzero;stroke:none"
         id="path486"
         inkscape:connector-curvature="0" /><path
         d="m 9923.01,5754 c -6.88,-13.3 -14.38,-26.1 -22.11,-38.8 7.73,12.7 15.23,25.5 22.11,38.8"
         style="fill:#f9ac47;fill-opacity:1;fill-rule:nonzero;stroke:none"
         id="path488"
         inkscape:connector-curvature="0" /><path
         d="m 9196.88,6695.2 c 15.58,3.4 31.52,6 47.53,8.3 -16.01,-2.3 -31.91,-4.9 -47.53,-8.3"
         style="fill:#f9ac47;fill-opacity:1;fill-rule:nonzero;stroke:none"
         id="path490"
         inkscape:connector-curvature="0" /><path
         d="m 9847.89,5639.2 c -14.49,-17.7 -29.92,-34.5 -46.13,-50.6 16.21,16.1 31.64,32.9 46.13,50.6"
         style="fill:#f9ac47;fill-opacity:1;fill-rule:nonzero;stroke:none"
         id="path492"
         inkscape:connector-curvature="0" /><path
         d="m 9888.32,5694.5 c -10,-15.2 -20.86,-29.9 -32.07,-44.1 11.21,14.2 22.07,28.9 32.07,44.1"
         style="fill:#f9ac47;fill-opacity:1;fill-rule:nonzero;stroke:none"
         id="path494"
         inkscape:connector-curvature="0" /><path
         d="m 9228.79,6599.8 c -152.19,0 -292.23,-51.8 -403.56,-138.7 -88.28,-111.8 -141.36,-252.6 -141.36,-406.1 0,-362.5 293.86,-656.3 656.33,-656.3 153.47,0 294.33,53.1 406.09,141.3 86.95,111.4 138.83,251.4 138.83,403.6 0,362.5 -293.87,656.2 -656.33,656.2"
         style="fill:#f9ac47;fill-opacity:1;fill-rule:nonzero;stroke:none"
         id="path496"
         inkscape:connector-curvature="0" /><path
         d="m 9340.2,6711.3 c -24.61,0 -48.83,-1.6 -72.74,-4.2 23.91,2.6 48.13,4.2 72.74,4.2"
         style="fill:#f9ac47;fill-opacity:1;fill-rule:nonzero;stroke:none"
         id="path498"
         inkscape:connector-curvature="0" /><path
         d="m 9973.59,5885.5 c -3.75,-14.1 -7.85,-28 -12.5,-41.8 4.69,13.8 8.75,27.7 12.5,41.8"
         style="fill:#f9ac47;fill-opacity:1;fill-rule:nonzero;stroke:none"
         id="path500"
         inkscape:connector-curvature="0" /><path
         d="m 9988.71,5959.1 c -2.3,-15.9 -4.88,-31.8 -8.36,-47.4 3.48,15.6 6.06,31.5 8.36,47.4"
         style="fill:#f9ac47;fill-opacity:1;fill-rule:nonzero;stroke:none"
         id="path502"
         inkscape:connector-curvature="0" /><path
         d="m 9996.48,6055 c 0,-24.6 -1.6,-48.8 -4.21,-72.7 2.61,23.9 4.21,48.1 4.21,72.7"
         style="fill:#f9ac47;fill-opacity:1;fill-rule:nonzero;stroke:none"
         id="path504"
         inkscape:connector-curvature="0" /><path
         d="m 8873.67,6516.4 c 16.17,16.4 33.13,31.9 50.94,46.5 -17.81,-14.6 -34.77,-30.1 -50.94,-46.5"
         style="fill:#f9ac47;fill-opacity:1;fill-rule:nonzero;stroke:none"
         id="path506"
         inkscape:connector-curvature="0" /><path
         d="m 9788.91,5577 c -12.43,-11.7 -25.12,-23.1 -38.44,-33.8 13.32,10.7 26.01,22.1 38.44,33.8"
         style="fill:#f9ac47;fill-opacity:1;fill-rule:nonzero;stroke:none"
         id="path508"
         inkscape:connector-curvature="0" /><path
         d="m 9244.41,6703.5 c -16.01,-2.3 -31.95,-4.9 -47.53,-8.3 -8.79,-2 -17.31,-4.4 -25.94,-6.7 -14.26,-3.8 -28.36,-7.9 -42.23,-12.6 -8.63,-3 -17.15,-6.1 -25.58,-9.4 -13.6,-5.3 -26.92,-11.1 -40.04,-17.2 -7.93,-3.7 -15.86,-7.3 -23.6,-11.3 -13.59,-7.1 -26.83,-14.8 -39.88,-22.8 -6.56,-4 -13.28,-7.7 -19.69,-11.9 -15.86,-10.4 -31.09,-21.7 -45.94,-33.4 -3.04,-2.4 -6.36,-4.5 -9.37,-7 -17.81,-14.6 -34.77,-30.1 -50.94,-46.5 -3.83,-3.9 -7.22,-8.2 -10.94,-12 -11.91,-12.7 -23.55,-25.6 -34.45,-39.2 -1.4,-1.8 -3.12,-3.4 -4.53,-5.2 0.47,0.4 0.98,0.7 1.48,1.1 111.33,86.9 251.37,138.7 403.56,138.7 362.46,0 656.33,-293.7 656.33,-656.2 0,-152.2 -51.88,-292.2 -138.83,-403.6 -0.35,-0.5 -0.66,-0.9 -1.06,-1.4 1.8,1.4 3.44,3.1 5.24,4.6 13.32,10.7 26.01,22.1 38.44,33.8 4.22,3.9 8.71,7.5 12.85,11.6 16.21,16.1 31.64,32.9 46.13,50.6 2.97,3.6 5.51,7.5 8.36,11.2 11.21,14.2 22.07,28.9 32.07,44.1 4.45,6.7 8.36,13.8 12.58,20.7 7.73,12.7 15.23,25.5 22.11,38.8 4.14,8 7.89,16.2 11.68,24.3 6.01,12.9 11.68,26 16.87,39.4 3.36,8.5 6.57,17.2 9.53,26 4.65,13.8 8.75,27.7 12.5,41.8 2.35,8.7 4.77,17.4 6.76,26.2 3.48,15.6 6.06,31.5 8.36,47.4 1.13,7.8 2.7,15.4 3.56,23.2 2.61,23.9 4.21,48.1 4.21,72.7 0,362.5 -293.82,656.3 -656.28,656.3 -24.61,0 -48.83,-1.6 -72.74,-4.2 -7.77,-0.9 -15.35,-2.4 -23.05,-3.6"
         style="fill:#f9a72b;fill-opacity:1;fill-rule:nonzero;stroke:none"
         id="path510"
         inkscape:connector-curvature="0" /><path
         d="m 4760,10094.8 c 16.02,16.2 32.85,31.6 50.47,46.1 -17.62,-14.5 -34.45,-29.9 -50.47,-46.1"
         style="fill:#f9ac47;fill-opacity:1;fill-rule:nonzero;stroke:none"
         id="path512"
         inkscape:connector-curvature="0" /><path
         d="m 5015.04,10254.1 c 13.71,4.6 27.69,8.8 41.8,12.5 -14.11,-3.8 -28.09,-7.9 -41.8,-12.5"
         style="fill:#f9ac47;fill-opacity:1;fill-rule:nonzero;stroke:none"
         id="path514"
         inkscape:connector-curvature="0" /><path
         d="m 5882.62,9633.2 c 0,-24.6 -1.64,-48.8 -4.26,-72.8 2.62,24 4.26,48.2 4.26,72.8"
         style="fill:#f9ac47;fill-opacity:1;fill-rule:nonzero;stroke:none"
         id="path516"
         inkscape:connector-curvature="0" /><path
         d="m 5083.05,10273.3 c 15.58,3.5 31.44,6.1 47.38,8.4 -15.94,-2.3 -31.8,-4.9 -47.38,-8.4"
         style="fill:#f9ac47;fill-opacity:1;fill-rule:nonzero;stroke:none"
         id="path518"
         inkscape:connector-curvature="0" /><path
         d="m 5153.59,10285.3 c 23.91,2.6 48.13,4.2 72.7,4.2 -24.57,0 -48.79,-1.6 -72.7,-4.2"
         style="fill:#f9ac47;fill-opacity:1;fill-rule:nonzero;stroke:none"
         id="path520"
         inkscape:connector-curvature="0" /><path
         d="m 4949.61,10227.7 c 12.93,6 26.02,11.7 39.37,16.9 -13.35,-5.2 -26.44,-10.9 -39.37,-16.9"
         style="fill:#f9ac47;fill-opacity:1;fill-rule:nonzero;stroke:none"
         id="path522"
         inkscape:connector-curvature="0" /><path
         d="m 4714.57,10043.6 c 10.51,13 21.72,25.5 33.16,37.7 -11.44,-12.2 -22.65,-24.7 -33.16,-37.7"
         style="fill:#f9ac47;fill-opacity:1;fill-rule:nonzero;stroke:none"
         id="path524"
         inkscape:connector-curvature="0" /><path
         d="m 4886.48,10193.9 c 12.74,7.7 25.59,15.2 38.83,22.1 -13.24,-6.9 -26.05,-14.4 -38.83,-22.1"
         style="fill:#f9ac47;fill-opacity:1;fill-rule:nonzero;stroke:none"
         id="path526"
         inkscape:connector-curvature="0" /><path
         d="m 4822.11,10149.6 c 14.14,11 28.59,21.7 43.63,31.7 -15.04,-10 -29.49,-20.7 -43.63,-31.7"
         style="fill:#f9ac47;fill-opacity:1;fill-rule:nonzero;stroke:none"
         id="path528"
         inkscape:connector-curvature="0" /><path
         d="m 5874.84,9537.2 c -2.34,-15.9 -4.92,-31.7 -8.39,-47.3 3.47,15.6 6.01,31.4 8.39,47.3"
         style="fill:#f9ac47;fill-opacity:1;fill-rule:nonzero;stroke:none"
         id="path530"
         inkscape:connector-curvature="0" /><path
         d="m 5733.98,9217.3 c -14.49,-17.6 -29.88,-34.4 -46.05,-50.5 16.17,16.1 31.56,32.9 46.05,50.5"
         style="fill:#f9ac47;fill-opacity:1;fill-rule:nonzero;stroke:none"
         id="path532"
         inkscape:connector-curvature="0" /><path
         d="m 5809.06,9332.1 c -6.83,-13.2 -14.29,-26 -21.99,-38.7 7.7,12.8 15.16,25.5 21.99,38.7"
         style="fill:#f9ac47;fill-opacity:1;fill-rule:nonzero;stroke:none"
         id="path534"
         inkscape:connector-curvature="0" /><path
         d="m 5774.38,9272.6 c -9.89,-15.1 -20.63,-29.5 -31.68,-43.6 11.05,14.1 21.79,28.5 31.68,43.6"
         style="fill:#f9ac47;fill-opacity:1;fill-rule:nonzero;stroke:none"
         id="path536"
         inkscape:connector-curvature="0" /><path
         d="m 5674.53,9154.7 c -12.26,-11.5 -24.73,-22.8 -37.81,-33.3 13.08,10.5 25.55,21.8 37.81,33.3"
         style="fill:#f9ac47;fill-opacity:1;fill-rule:nonzero;stroke:none"
         id="path538"
         inkscape:connector-curvature="0" /><path
         d="m 5632.46,9118.2 c 86.92,111.4 138.75,251.4 138.75,403.6 0,362.4 -293.83,656.3 -656.29,656.3 -152.19,0 -292.22,-51.9 -403.51,-138.8 C 4623.09,9927.5 4570,9786.7 4570,9633.2 c 0,-362.5 293.83,-656.4 656.29,-656.4 153.51,0 294.37,53.2 406.17,141.4"
         style="fill:#f9ac47;fill-opacity:1;fill-rule:nonzero;stroke:none"
         id="path540"
         inkscape:connector-curvature="0" /><path
         d="m 5859.69,9463.6 c -3.75,-14.1 -7.81,-28 -12.46,-41.7 4.65,13.7 8.71,27.6 12.46,41.7"
         style="fill:#f9ac47;fill-opacity:1;fill-rule:nonzero;stroke:none"
         id="path542"
         inkscape:connector-curvature="0" /><path
         d="m 5837.66,9395.7 c -5.2,-13.2 -10.82,-26.3 -16.8,-39.2 5.98,12.9 11.6,26 16.8,39.2"
         style="fill:#f9ac47;fill-opacity:1;fill-rule:nonzero;stroke:none"
         id="path544"
         inkscape:connector-curvature="0" /><path
         d="m 5771.21,9521.8 c 0,-152.2 -51.83,-292.2 -138.75,-403.6 -0.39,-0.4 -0.74,-1 -1.13,-1.5 1.87,1.5 3.51,3.3 5.39,4.7 13.08,10.5 25.55,21.8 37.81,33.3 4.38,4.1 9.1,7.9 13.4,12.1 16.17,16.1 31.56,32.9 46.05,50.5 3.05,3.8 5.71,7.9 8.72,11.7 11.05,14.1 21.79,28.5 31.68,43.6 4.49,6.8 8.47,13.9 12.69,20.8 7.7,12.7 15.16,25.5 21.99,38.7 4.18,8.1 7.97,16.3 11.8,24.4 5.98,12.9 11.6,26 16.8,39.2 3.36,8.7 6.56,17.4 9.57,26.2 4.65,13.7 8.71,27.6 12.46,41.7 2.34,8.8 4.8,17.4 6.76,26.3 3.47,15.6 6.05,31.4 8.39,47.3 1.1,7.8 2.66,15.4 3.52,23.2 2.62,24 4.26,48.2 4.26,72.8 0,362.5 -293.87,656.3 -656.33,656.3 -24.57,0 -48.79,-1.6 -72.7,-4.2 -7.81,-0.9 -15.43,-2.5 -23.16,-3.6 -15.94,-2.3 -31.8,-4.9 -47.38,-8.4 -8.83,-1.9 -17.46,-4.4 -26.21,-6.7 -14.11,-3.7 -28.09,-7.9 -41.8,-12.5 -8.79,-3 -17.42,-6.2 -26.06,-9.5 -13.35,-5.2 -26.44,-10.9 -39.37,-16.9 -8.16,-3.8 -16.33,-7.6 -24.3,-11.7 -13.24,-6.9 -26.09,-14.4 -38.83,-22.1 -6.91,-4.3 -13.98,-8.2 -20.74,-12.6 -15.04,-10 -29.49,-20.7 -43.63,-31.7 -3.83,-3 -7.89,-5.7 -11.64,-8.7 -17.62,-14.5 -34.45,-29.9 -50.47,-46.1 -4.3,-4.3 -8.12,-9.1 -12.27,-13.5 -11.44,-12.2 -22.65,-24.7 -33.16,-37.7 -1.48,-1.8 -3.2,-3.5 -4.73,-5.4 0.51,0.4 1.06,0.8 1.57,1.1 111.29,86.9 251.32,138.8 403.51,138.8 362.46,0 656.29,-293.9 656.29,-656.3"
         style="fill:#f9a72b;fill-opacity:1;fill-rule:nonzero;stroke:none"
         id="path546"
         inkscape:connector-curvature="0" /><g
         id="g548"
         transform="scale(1.2618)"><path
           d="m 15429.2,6284.92 c -104.8,0 -205.3,-18.54 -298.3,-52.46 -58.3,255.27 -286.6,445.95 -559.5,445.95 -120.7,0 -232.7,-37.33 -325.1,-100.97 -36.7,338.01 -314.4,603.74 -657.7,621.66 58.1,112.69 91.2,240.37 91.2,375.89 0,453.24 -367.4,820.65 -820.7,820.65 -389.2,0 -715,-271.12 -799.2,-634.73 -52.3,13.08 -107,20.05 -163.3,20.05 -371.1,0 -672.1,-300.84 -672.1,-672.05 0,-30.59 2.3,-60.63 6.2,-90.11 -31.5,5.86 -64,9.11 -97.4,9.11 -275.1,0 -500.8,-210.97 -524.5,-479.87 -244.6,-12.52 -454.5,-155.81 -561.4,-361.23 -25,2.22 -50.23,3.57 -75.75,3.57 -433.12,0 -787.93,-334.21 -821.29,-758.76 h 990.14 271.4 381 354 181.3 826.1 785.3 1615.4 3.3 343.1 1398.6 c -9.7,472.81 -395.7,853.3 -870.8,853.3"
           style="fill:#e9e9e9;fill-opacity:1;fill-rule:nonzero;stroke:none"
           id="path550"
           inkscape:connector-curvature="0" /></g></g></g></svg>