<?xml version="1.0" encoding="UTF-8" standalone="no"?>
<!-- Created with Inkscape (http://www.inkscape.org/) -->

<svg
   xmlns:dc="http://purl.org/dc/elements/1.1/"
   xmlns:cc="http://creativecommons.org/ns#"
   xmlns:rdf="http://www.w3.org/1999/02/22-rdf-syntax-ns#"
   xmlns:svg="http://www.w3.org/2000/svg"
   xmlns="http://www.w3.org/2000/svg"
   xmlns:sodipodi="http://sodipodi.sourceforge.net/DTD/sodipodi-0.dtd"
   xmlns:inkscape="http://www.inkscape.org/namespaces/inkscape"
   width="80mm"
   height="40mm"
   viewBox="0 0 80 40"
   version="1.1"
   id="svg2062"
   inkscape:version="0.92.5 (2060ec1f9f, 2020-04-08)"
   sodipodi:docname="tags.svg">
  <defs
     id="defs2056" />
  <sodipodi:namedview
     id="base"
     pagecolor="#ffffff"
     bordercolor="#666666"
     borderopacity="1.0"
     inkscape:pageopacity="0.0"
     inkscape:pageshadow="2"
     inkscape:zoom="1.4"
     inkscape:cx="17.492475"
     inkscape:cy="125.61824"
     inkscape:document-units="mm"
     inkscape:current-layer="layer1"
     showgrid="false"
     inkscape:window-width="1920"
     inkscape:window-height="1129"
     inkscape:window-x="0"
     inkscape:window-y="0"
     inkscape:window-maximized="1" />
  <metadata
     id="metadata2059">
    <rdf:RDF>
      <cc:Work
         rdf:about="">
        <dc:format>image/svg+xml</dc:format>
        <dc:type
           rdf:resource="http://purl.org/dc/dcmitype/StillImage" />
        <dc:title></dc:title>
      </cc:Work>
    </rdf:RDF>
  </metadata>
  <g
     inkscape:label="Ebene 1"
     inkscape:groupmode="layer"
     id="layer1"
     transform="translate(0,-257)">
    <g
       style="font-style:normal;font-weight:400;font-size:10px;font-family:Ubuntu;fill:#0696bb;fill-opacity:1;stroke:none"
       transform="matrix(0.35277735,0,0,0.35277735,-9.3359521,221.39224)"
       font-size="10"
       font-weight="400"
       font-style="normal"
       id="g952">
      <path
         style="vector-effect:none;fill-rule:evenodd"
         inkscape:connector-curvature="0"
         d="m 47.0025,104 h 66.9945 c 8.838,0 16.003,7.163 16.003,16 0,8.837 -7.165,16 -16.003,16 H 47.0025 C 38.1646,136 31,128.837 31,120 c 0,-8.837 7.1646,-16 16.0025,-16"
         id="path950" />
    </g>
    <g
       style="font-style:normal;font-weight:400;font-size:10px;font-family:Ubuntu;fill:#ffffff;fill-opacity:1;stroke:none"
       transform="matrix(0.35277735,0,0,0.35277735,-9.3359521,221.39224)"
       font-size="10"
       font-weight="400"
       font-style="normal"
       id="g958">
      <path
         style="vector-effect:none;fill-rule:nonzero"
         inkscape:connector-curvature="0"
         d="m 42.8438,114.516 h 8.0156 v 1.093 h -3.375 V 124 h -1.2813 v -8.391 h -3.3593 v -1.093 m 15.2812,5.64 v 0.563 H 52.75 c 0.0521,0.812 0.2943,1.427 0.7266,1.844 0.4323,0.416 1.0338,0.625 1.8047,0.625 0.4479,0 0.8828,-0.055 1.3046,-0.165 0.4219,-0.109 0.8412,-0.273 1.2579,-0.492 v 1.11 c -0.4167,0.177 -0.8464,0.312 -1.2891,0.406 -0.4427,0.094 -0.888,0.141 -1.3359,0.141 -1.1355,0 -2.0339,-0.331 -2.6954,-0.993 -0.6614,-0.661 -0.9921,-1.554 -0.9921,-2.679 0,-1.167 0.3151,-2.092 0.9453,-2.774 0.6302,-0.682 1.4765,-1.023 2.539,-1.023 0.9584,0 1.7162,0.307 2.2735,0.922 0.5573,0.614 0.8359,1.453 0.8359,2.515 m -1.1719,-0.343 c -0.0104,-0.636 -0.1901,-1.146 -0.539,-1.532 -0.349,-0.385 -0.8099,-0.578 -1.3828,-0.578 -0.6563,0 -1.1797,0.185 -1.5704,0.555 -0.3906,0.37 -0.6171,0.888 -0.6796,1.555 h 4.1718 m 8.1875,-2.657 v 1.094 c -0.3333,-0.177 -0.6666,-0.312 -1,-0.406 -0.3333,-0.094 -0.6666,-0.141 -1,-0.141 -0.7604,0 -1.3489,0.242 -1.7656,0.727 -0.4167,0.484 -0.625,1.159 -0.625,2.023 0,0.865 0.2083,1.537 0.625,2.016 0.4167,0.479 1.0052,0.719 1.7656,0.719 0.3334,0 0.6667,-0.045 1,-0.133 0.3334,-0.089 0.6667,-0.227 1,-0.414 v 1.093 c -0.3229,0.146 -0.6588,0.258 -1.0078,0.336 -0.3489,0.078 -0.7213,0.118 -1.1172,0.118 -1.0729,0 -1.9245,-0.336 -2.5547,-1.008 -0.6302,-0.672 -0.9453,-1.581 -0.9453,-2.727 0,-1.156 0.3177,-2.068 0.9532,-2.734 0.6354,-0.667 1.5104,-1 2.625,-1 0.3541,0 0.7031,0.036 1.0468,0.109 0.3438,0.073 0.6771,0.182 1,0.328 m 7.9375,2.547 V 124 h -1.1718 v -4.25 c 0,-0.677 -0.1303,-1.182 -0.3907,-1.516 -0.2604,-0.333 -0.6562,-0.5 -1.1875,-0.5 -0.625,0 -1.1198,0.201 -1.4843,0.602 -0.3646,0.401 -0.5469,0.95 -0.5469,1.648 V 124 H 67.125 v -9.875 h 1.1719 V 118 c 0.2812,-0.427 0.6094,-0.747 0.9844,-0.961 0.375,-0.213 0.8125,-0.32 1.3125,-0.32 0.8125,0 1.4296,0.252 1.8515,0.758 0.4219,0.505 0.6328,1.247 0.6328,2.226 m 8.2344,0 V 124 h -1.1719 v -4.25 c 0,-0.677 -0.1302,-1.182 -0.3906,-1.516 -0.2604,-0.333 -0.6562,-0.5 -1.1875,-0.5 -0.625,0 -1.1198,0.201 -1.4844,0.602 -0.3646,0.401 -0.5468,0.95 -0.5468,1.648 V 124 h -1.1719 v -7.109 h 1.1719 V 118 c 0.2812,-0.427 0.6093,-0.747 0.9843,-0.961 0.375,-0.213 0.8125,-0.32 1.3125,-0.32 0.8125,0 1.4297,0.252 1.8516,0.758 0.4219,0.505 0.6328,1.247 0.6328,2.226 m 5.0781,-2 c -0.625,0 -1.1198,0.245 -1.4843,0.735 -0.3646,0.489 -0.5469,1.161 -0.5469,2.015 0,0.854 0.1797,1.524 0.539,2.008 0.3594,0.484 0.8568,0.727 1.4922,0.727 0.6146,0 1.1042,-0.245 1.4688,-0.735 0.3646,-0.489 0.5469,-1.156 0.5469,-2 0,-0.844 -0.1823,-1.513 -0.5469,-2.008 -0.3646,-0.494 -0.8542,-0.742 -1.4688,-0.742 m 0,-0.984 c 1.0104,0 1.8073,0.33 2.3907,0.992 0.5833,0.661 0.875,1.575 0.875,2.742 0,1.167 -0.2917,2.081 -0.875,2.742 -0.5834,0.662 -1.3803,0.993 -2.3907,0.993 -1.0208,0 -1.8203,-0.331 -2.3984,-0.993 -0.5781,-0.661 -0.8672,-1.575 -0.8672,-2.742 0,-1.167 0.2891,-2.081 0.8672,-2.742 0.5781,-0.662 1.3776,-0.992 2.3984,-0.992 m 5.1875,-2.594 H 92.75 V 124 h -1.1719 v -9.875 m 6.375,3.578 c -0.625,0 -1.1198,0.245 -1.4843,0.735 -0.3646,0.489 -0.5469,1.161 -0.5469,2.015 0,0.854 0.1797,1.524 0.539,2.008 0.3594,0.484 0.8568,0.727 1.4922,0.727 0.6146,0 1.1042,-0.245 1.4688,-0.735 0.3646,-0.489 0.5469,-1.156 0.5469,-2 0,-0.844 -0.1823,-1.513 -0.5469,-2.008 -0.3646,-0.494 -0.8542,-0.742 -1.4688,-0.742 m 0,-0.984 c 1.0104,0 1.8073,0.33 2.3909,0.992 0.583,0.661 0.875,1.575 0.875,2.742 0,1.167 -0.292,2.081 -0.875,2.742 -0.5836,0.662 -1.3805,0.993 -2.3909,0.993 -1.0208,0 -1.8203,-0.331 -2.3984,-0.993 -0.5781,-0.661 -0.8672,-1.575 -0.8672,-2.742 0,-1.167 0.2891,-2.081 0.8672,-2.742 0.5781,-0.662 1.3776,-0.992 2.3984,-0.992 m 9.8749,3.64 c 0,-0.843 -0.174,-1.497 -0.523,-1.961 -0.349,-0.463 -0.841,-0.695 -1.477,-0.695 -0.625,0 -1.112,0.232 -1.461,0.695 -0.349,0.464 -0.523,1.118 -0.523,1.961 0,0.844 0.174,1.498 0.523,1.961 0.349,0.464 0.836,0.696 1.461,0.696 0.636,0 1.128,-0.232 1.477,-0.696 0.349,-0.463 0.523,-1.117 0.523,-1.961 m 1.172,2.766 c 0,1.208 -0.271,2.107 -0.812,2.695 -0.542,0.589 -1.365,0.883 -2.469,0.883 -0.406,0 -0.792,-0.031 -1.156,-0.094 -0.365,-0.062 -0.719,-0.156 -1.063,-0.281 v -1.14 c 0.344,0.187 0.682,0.325 1.016,0.414 0.333,0.088 0.672,0.132 1.015,0.132 0.771,0 1.347,-0.198 1.727,-0.593 0.38,-0.396 0.57,-1 0.57,-1.813 v -0.578 c -0.239,0.417 -0.549,0.729 -0.93,0.938 -0.38,0.208 -0.83,0.312 -1.351,0.312 -0.875,0 -1.578,-0.333 -2.109,-1 -0.532,-0.667 -0.797,-1.547 -0.797,-2.641 0,-1.093 0.265,-1.974 0.797,-2.64 0.531,-0.667 1.234,-1 2.109,-1 0.521,0 0.971,0.104 1.351,0.312 0.381,0.209 0.691,0.521 0.93,0.938 v -1.078 H 109 v 6.234 m 5.359,1.531 c -0.333,0.854 -0.656,1.409 -0.968,1.664 -0.313,0.256 -0.73,0.383 -1.25,0.383 h -0.938 v -0.969 h 0.688 c 0.323,0 0.573,-0.078 0.75,-0.234 0.177,-0.156 0.369,-0.516 0.578,-1.078 l 0.219,-0.531 -2.875,-7 h 1.234 l 2.219,5.562 2.218,-5.562 h 1.25 l -3.125,7.765"
         id="path956" />
    </g>
    <g
       style="font-style:normal;font-weight:400;font-size:10px;font-family:Ubuntu;fill:#c4037d;fill-opacity:1;stroke:none"
       transform="matrix(0.35277735,0,0,0.35277735,-9.3359521,221.39224)"
       font-size="10"
       font-weight="400"
       font-style="normal"
       id="g966">
      <path
         style="vector-effect:none;fill-rule:evenodd"
         inkscape:connector-curvature="0"
         d="m 150.911,104 h 41.178 c 8.787,0 15.911,7.163 15.911,16 0,8.837 -7.124,16 -15.911,16 H 150.911 C 142.124,136 135,128.837 135,120 c 0,-8.837 7.124,-16 15.911,-16"
         id="path964" />
    </g>
    <g
       style="font-style:normal;font-weight:400;font-size:10px;font-family:Ubuntu;fill:#ffffff;fill-opacity:1;stroke:none"
       transform="matrix(0.35277735,0,0,0.35277735,-9.3359521,221.39224)"
       font-size="10"
       font-weight="400"
       font-style="normal"
       id="g972">
      <path
         style="vector-effect:none;fill-rule:nonzero"
         inkscape:connector-curvature="0"
         d="m 148.141,114.516 h 1.281 v 3.89 h 4.656 v -3.89 h 1.281 V 124 h -1.281 v -4.516 h -4.656 V 124 h -1.281 v -9.484 m 15.797,5.64 v 0.563 h -5.375 c 0.052,0.812 0.294,1.427 0.726,1.844 0.432,0.416 1.034,0.625 1.805,0.625 0.448,0 0.883,-0.055 1.304,-0.165 0.422,-0.109 0.842,-0.273 1.258,-0.492 v 1.11 c -0.416,0.177 -0.846,0.312 -1.289,0.406 -0.443,0.094 -0.888,0.141 -1.336,0.141 -1.135,0 -2.034,-0.331 -2.695,-0.993 -0.662,-0.661 -0.992,-1.554 -0.992,-2.679 0,-1.167 0.315,-2.092 0.945,-2.774 0.63,-0.682 1.477,-1.023 2.539,-1.023 0.958,0 1.716,0.307 2.274,0.922 0.557,0.614 0.836,1.453 0.836,2.515 m -1.172,-0.343 c -0.011,-0.636 -0.19,-1.146 -0.539,-1.532 -0.349,-0.385 -0.81,-0.578 -1.383,-0.578 -0.656,0 -1.18,0.185 -1.571,0.555 -0.39,0.37 -0.617,0.888 -0.679,1.555 h 4.172 m 6.297,0.609 c -0.938,0 -1.589,0.109 -1.954,0.328 -0.364,0.219 -0.546,0.589 -0.546,1.109 0,0.407 0.135,0.732 0.406,0.977 0.271,0.245 0.64,0.367 1.109,0.367 0.646,0 1.167,-0.229 1.563,-0.687 0.395,-0.459 0.593,-1.068 0.593,-1.828 v -0.266 h -1.171 m 2.328,-0.484 V 124 h -1.157 v -1.078 c -0.27,0.427 -0.604,0.745 -1,0.953 -0.395,0.208 -0.885,0.313 -1.468,0.313 -0.73,0 -1.308,-0.206 -1.735,-0.618 -0.427,-0.411 -0.64,-0.955 -0.64,-1.632 0,-0.803 0.268,-1.407 0.804,-1.813 0.537,-0.406 1.336,-0.609 2.399,-0.609 h 1.64 v -0.125 c 0,-0.532 -0.177,-0.946 -0.531,-1.243 -0.354,-0.296 -0.854,-0.445 -1.5,-0.445 -0.406,0 -0.802,0.05 -1.187,0.149 -0.386,0.099 -0.756,0.247 -1.11,0.445 v -1.078 c 0.427,-0.167 0.844,-0.292 1.25,-0.375 0.407,-0.084 0.797,-0.125 1.172,-0.125 1.031,0 1.8,0.265 2.305,0.797 0.505,0.531 0.758,1.338 0.758,2.422 m 2.39,-5.813 h 1.172 V 124 h -1.172 v -9.875 m 3.61,2.766 h 1.172 V 124 h -1.172 v -7.109 m 0,-2.766 h 1.172 v 1.484 h -1.172 v -1.484 m 9.531,5.578 V 124 h -1.172 v -4.25 c 0,-0.677 -0.13,-1.182 -0.391,-1.516 -0.26,-0.333 -0.656,-0.5 -1.187,-0.5 -0.625,0 -1.12,0.201 -1.484,0.602 -0.365,0.401 -0.547,0.95 -0.547,1.648 V 124 h -1.172 v -7.109 h 1.172 V 118 c 0.281,-0.427 0.609,-0.747 0.984,-0.961 0.375,-0.213 0.813,-0.32 1.313,-0.32 0.812,0 1.429,0.252 1.851,0.758 0.422,0.505 0.633,1.247 0.633,2.226 m 7,0.656 c 0,-0.843 -0.175,-1.497 -0.524,-1.961 -0.349,-0.463 -0.841,-0.695 -1.476,-0.695 -0.625,0 -1.112,0.232 -1.461,0.695 -0.349,0.464 -0.523,1.118 -0.523,1.961 0,0.844 0.174,1.498 0.523,1.961 0.349,0.464 0.836,0.696 1.461,0.696 0.635,0 1.127,-0.232 1.476,-0.696 0.349,-0.463 0.524,-1.117 0.524,-1.961 m 1.172,2.766 c 0,1.208 -0.271,2.107 -0.813,2.695 -0.541,0.589 -1.364,0.883 -2.468,0.883 -0.407,0 -0.792,-0.031 -1.157,-0.094 -0.364,-0.062 -0.718,-0.156 -1.062,-0.281 v -1.14 c 0.344,0.187 0.682,0.325 1.015,0.414 0.334,0.088 0.672,0.132 1.016,0.132 0.771,0 1.346,-0.198 1.727,-0.593 0.38,-0.396 0.57,-1 0.57,-1.813 v -0.578 c -0.24,0.417 -0.55,0.729 -0.93,0.938 -0.38,0.208 -0.831,0.312 -1.351,0.312 -0.875,0 -1.578,-0.333 -2.11,-1 -0.531,-0.667 -0.797,-1.547 -0.797,-2.641 0,-1.093 0.266,-1.974 0.797,-2.64 0.532,-0.667 1.235,-1 2.11,-1 0.52,0 0.971,0.104 1.351,0.312 0.38,0.209 0.69,0.521 0.93,0.938 v -1.078 h 1.172 v 6.234"
         id="path970" />
    </g>
    <g
       style="font-style:normal;font-weight:400;font-size:10px;font-family:Ubuntu;fill:#f18e1c;fill-opacity:1;stroke:none"
       transform="matrix(0.35277735,0,0,0.35277735,-9.3359521,221.39224)"
       font-size="10"
       font-weight="400"
       font-style="normal"
       id="g980">
      <path
         style="vector-effect:none;fill-rule:evenodd"
         inkscape:connector-curvature="0"
         d="m 46.8742,141 h 39.2516 c 8.7671,0 15.8742,7.163 15.8742,16 0,8.837 -7.1071,16 -15.8742,16 H 46.8742 C 38.1071,173 31,165.837 31,157 c 0,-8.837 7.1071,-16 15.8742,-16"
         id="path978" />
    </g>
    <g
       style="font-style:normal;font-weight:400;font-size:10px;font-family:Ubuntu;fill:#ffffff;fill-opacity:1;stroke:none"
       transform="matrix(0.35277735,0,0,0.35277735,-9.3359521,221.39224)"
       font-size="10"
       font-weight="400"
       font-style="normal"
       id="g986">
      <path
         style="vector-effect:none;fill-rule:nonzero"
         inkscape:connector-curvature="0"
         d="m 51.25,152.25 v 1.359 c -0.4375,-0.406 -0.8984,-0.708 -1.3828,-0.906 -0.4844,-0.198 -1.0026,-0.297 -1.5547,-0.297 -1.0833,0 -1.9141,0.331 -2.4922,0.992 -0.5781,0.662 -0.8672,1.618 -0.8672,2.868 0,1.25 0.2891,2.205 0.8672,2.867 0.5781,0.661 1.4089,0.992 2.4922,0.992 0.5521,0 1.0703,-0.099 1.5547,-0.297 0.4844,-0.198 0.9453,-0.495 1.3828,-0.89 v 1.328 c -0.4479,0.312 -0.9219,0.544 -1.4219,0.695 -0.5,0.151 -1.0312,0.227 -1.5937,0.227 -1.4375,0 -2.5677,-0.441 -3.3906,-1.321 -0.823,-0.88 -1.2344,-2.081 -1.2344,-3.601 0,-1.521 0.4114,-2.722 1.2344,-3.602 0.8229,-0.88 1.9531,-1.32 3.3906,-1.32 0.5625,0 1.0963,0.075 1.6015,0.226 0.5052,0.151 0.9766,0.378 1.4141,0.68 m 1.7969,5.938 v -4.297 h 1.1562 v 4.265 c 0,0.667 0.1328,1.17 0.3985,1.508 0.2656,0.339 0.6588,0.508 1.1797,0.508 0.6354,0 1.1354,-0.201 1.5,-0.602 0.3645,-0.401 0.5468,-0.95 0.5468,-1.648 v -4.031 H 59 V 161 h -1.1719 v -1.094 c -0.2812,0.438 -0.6093,0.761 -0.9843,0.969 -0.375,0.208 -0.8125,0.313 -1.3125,0.313 -0.8125,0 -1.4297,-0.256 -1.8516,-0.766 -0.4219,-0.511 -0.6328,-1.255 -0.6328,-2.234 m 8.3437,-7.063 h 1.1719 V 161 h -1.1719 v -9.875 m 4.7657,0.75 v 2.016 h 2.4062 v 0.906 h -2.4062 v 3.859 c 0,0.584 0.0807,0.956 0.2421,1.117 0.1615,0.162 0.487,0.243 0.9766,0.243 h 1.1875 V 161 H 67.375 c -0.9062,0 -1.5312,-0.169 -1.875,-0.508 -0.3437,-0.338 -0.5156,-0.95 -0.5156,-1.836 v -3.859 H 64.125 v -0.906 h 0.8594 v -2.016 h 1.1719 m 3.8281,6.313 v -4.297 h 1.1562 v 4.265 c 0,0.667 0.1328,1.17 0.3985,1.508 0.2656,0.339 0.6588,0.508 1.1797,0.508 0.6354,0 1.1354,-0.201 1.5,-0.602 0.3645,-0.401 0.5468,-0.95 0.5468,-1.648 v -4.031 h 1.1719 V 161 h -1.1719 v -1.094 c -0.2812,0.438 -0.6093,0.761 -0.9843,0.969 -0.375,0.208 -0.8125,0.313 -1.3125,0.313 -0.8125,0 -1.4297,-0.256 -1.8516,-0.766 -0.4219,-0.511 -0.6328,-1.255 -0.6328,-2.234 m 12.4687,-3.204 c -0.1354,-0.073 -0.2786,-0.127 -0.4297,-0.164 -0.151,-0.036 -0.3203,-0.054 -0.5078,-0.054 -0.6562,0 -1.1614,0.213 -1.5156,0.64 -0.3542,0.427 -0.5312,1.042 -0.5312,1.844 V 161 h -1.1719 v -7.109 h 1.1719 V 155 c 0.2395,-0.437 0.5572,-0.76 0.9531,-0.969 0.3958,-0.208 0.875,-0.312 1.4375,-0.312 0.0833,0 0.1719,0.005 0.2656,0.015 0.0938,0.011 0.2031,0.026 0.3281,0.047 v 1.203 m 7.3125,2.172 v 0.563 h -5.375 c 0.0521,0.812 0.2943,1.427 0.7266,1.844 0.4323,0.416 1.0338,0.625 1.8047,0.625 0.4479,0 0.8828,-0.055 1.3047,-0.165 0.4218,-0.109 0.8411,-0.273 1.2578,-0.492 v 1.11 c -0.4167,0.177 -0.8464,0.312 -1.2891,0.406 -0.4427,0.094 -0.888,0.141 -1.3359,0.141 -1.1354,0 -2.0339,-0.331 -2.6953,-0.993 -0.6615,-0.661 -0.9922,-1.554 -0.9922,-2.679 0,-1.167 0.3151,-2.092 0.9453,-2.774 0.6302,-0.682 1.4766,-1.023 2.5391,-1.023 0.9583,0 1.7161,0.307 2.2734,0.922 0.5573,0.614 0.8359,1.453 0.8359,2.515 m -1.1718,-0.343 c -0.0105,-0.636 -0.1902,-1.146 -0.5391,-1.532 -0.349,-0.385 -0.8099,-0.578 -1.3828,-0.578 -0.6563,0 -1.1797,0.185 -1.5703,0.555 -0.3907,0.37 -0.6172,0.888 -0.6797,1.555 h 4.1719"
         id="path984" />
    </g>
    <g
       style="font-style:normal;font-weight:400;font-size:10px;font-family:Ubuntu;fill:#008e5b;fill-opacity:1;stroke:none"
       transform="matrix(0.35277735,0,0,0.35277735,-9.3359521,221.39224)"
       font-size="10"
       font-weight="400"
       font-style="normal"
       id="g994">
      <path
         style="vector-effect:none;fill-rule:evenodd"
         inkscape:connector-curvature="0"
         d="m 123.014,141 h 59.972 c 8.844,0 16.014,7.163 16.014,16 0,8.837 -7.17,16 -16.014,16 H 123.014 C 114.17,173 107,165.837 107,157 c 0,-8.837 7.17,-16 16.014,-16"
         id="path992" />
    </g>
    <g
       style="font-style:normal;font-weight:400;font-size:10px;font-family:Ubuntu;fill:#ffffff;fill-opacity:1;stroke:none"
       transform="matrix(0.35277735,0,0,0.35277735,-9.3359521,221.39224)"
       font-size="10"
       font-weight="400"
       font-style="normal"
       id="g1000">
      <path
         style="vector-effect:none;fill-rule:nonzero"
         inkscape:connector-curvature="0"
         d="m 127.172,159.641 v -2.532 h -2.094 v -1.062 h 3.36 v 4.078 c -0.49,0.344 -1.034,0.607 -1.633,0.789 -0.599,0.182 -1.237,0.274 -1.914,0.274 -1.48,0 -2.636,-0.433 -3.469,-1.297 -0.833,-0.865 -1.25,-2.073 -1.25,-3.625 0,-1.542 0.417,-2.748 1.25,-3.618 0.833,-0.869 1.989,-1.304 3.469,-1.304 0.625,0 1.216,0.078 1.773,0.234 0.557,0.156 1.07,0.38 1.539,0.672 v 1.375 c -0.479,-0.406 -0.984,-0.711 -1.515,-0.914 -0.532,-0.203 -1.094,-0.305 -1.688,-0.305 -1.156,0 -2.026,0.323 -2.609,0.969 -0.584,0.646 -0.875,1.609 -0.875,2.891 0,1.281 0.291,2.244 0.875,2.89 0.583,0.646 1.453,0.969 2.609,0.969 0.458,0 0.865,-0.039 1.219,-0.117 0.354,-0.078 0.672,-0.201 0.953,-0.367 m 6.781,-2.219 c -0.937,0 -1.588,0.109 -1.953,0.328 -0.365,0.219 -0.547,0.589 -0.547,1.109 0,0.407 0.136,0.732 0.406,0.977 0.271,0.245 0.641,0.367 1.11,0.367 0.646,0 1.166,-0.229 1.562,-0.687 0.396,-0.459 0.594,-1.068 0.594,-1.828 v -0.266 h -1.172 m 2.328,-0.484 V 161 h -1.156 v -1.078 c -0.271,0.427 -0.604,0.745 -1,0.953 -0.396,0.208 -0.885,0.313 -1.469,0.313 -0.729,0 -1.307,-0.206 -1.734,-0.618 -0.427,-0.411 -0.641,-0.955 -0.641,-1.632 0,-0.803 0.268,-1.407 0.805,-1.813 0.536,-0.406 1.336,-0.609 2.398,-0.609 h 1.641 v -0.125 c 0,-0.532 -0.177,-0.946 -0.531,-1.243 -0.354,-0.296 -0.854,-0.445 -1.5,-0.445 -0.406,0 -0.802,0.05 -1.188,0.149 -0.385,0.099 -0.755,0.247 -1.109,0.445 v -1.078 c 0.427,-0.167 0.844,-0.292 1.25,-0.375 0.406,-0.084 0.797,-0.125 1.172,-0.125 1.031,0 1.799,0.265 2.304,0.797 0.506,0.531 0.758,1.338 0.758,2.422 m 6.516,-1.954 c -0.136,-0.073 -0.279,-0.127 -0.43,-0.164 -0.151,-0.036 -0.32,-0.054 -0.508,-0.054 -0.656,0 -1.161,0.213 -1.515,0.64 -0.354,0.427 -0.531,1.042 -0.531,1.844 V 161 h -1.172 v -7.109 h 1.172 V 155 c 0.239,-0.437 0.557,-0.76 0.953,-0.969 0.395,-0.208 0.875,-0.312 1.437,-0.312 0.083,0 0.172,0.005 0.266,0.015 0.094,0.011 0.203,0.026 0.328,0.047 v 1.203 m 5.906,-0.015 v -3.844 h 1.172 V 161 h -1.172 v -1.062 c -0.25,0.416 -0.562,0.729 -0.937,0.937 -0.375,0.208 -0.823,0.313 -1.344,0.313 -0.854,0 -1.552,-0.344 -2.094,-1.032 -0.542,-0.687 -0.812,-1.588 -0.812,-2.703 0,-1.114 0.27,-2.015 0.812,-2.703 0.542,-0.687 1.24,-1.031 2.094,-1.031 0.521,0 0.969,0.101 1.344,0.304 0.375,0.204 0.687,0.519 0.937,0.946 m -3.984,2.484 c 0,0.854 0.177,1.526 0.531,2.016 0.354,0.489 0.839,0.734 1.453,0.734 0.625,0 1.115,-0.245 1.469,-0.734 0.354,-0.49 0.531,-1.162 0.531,-2.016 0,-0.864 -0.177,-1.539 -0.531,-2.023 -0.354,-0.485 -0.844,-0.727 -1.469,-0.727 -0.614,0 -1.099,0.242 -1.453,0.727 -0.354,0.484 -0.531,1.159 -0.531,2.023 m 13.64,-0.297 v 0.563 h -5.375 c 0.052,0.812 0.295,1.427 0.727,1.844 0.432,0.416 1.034,0.625 1.805,0.625 0.448,0 0.882,-0.055 1.304,-0.165 0.422,-0.109 0.841,-0.273 1.258,-0.492 v 1.11 c -0.417,0.177 -0.846,0.312 -1.289,0.406 -0.443,0.094 -0.888,0.141 -1.336,0.141 -1.135,0 -2.034,-0.331 -2.695,-0.993 -0.662,-0.661 -0.992,-1.554 -0.992,-2.679 0,-1.167 0.315,-2.092 0.945,-2.774 0.63,-0.682 1.477,-1.023 2.539,-1.023 0.958,0 1.716,0.307 2.273,0.922 0.558,0.614 0.836,1.453 0.836,2.515 m -1.171,-0.343 c -0.011,-0.636 -0.191,-1.146 -0.54,-1.532 -0.349,-0.385 -0.809,-0.578 -1.382,-0.578 -0.657,0 -1.18,0.185 -1.571,0.555 -0.39,0.37 -0.617,0.888 -0.679,1.555 h 4.172 m 8.984,-0.11 V 161 H 165 v -4.25 c 0,-0.677 -0.13,-1.182 -0.391,-1.516 -0.26,-0.333 -0.656,-0.5 -1.187,-0.5 -0.625,0 -1.12,0.201 -1.484,0.602 -0.365,0.401 -0.547,0.95 -0.547,1.648 V 161 h -1.172 v -7.109 h 1.172 V 155 c 0.281,-0.427 0.609,-0.747 0.984,-0.961 0.375,-0.213 0.813,-0.32 1.313,-0.32 0.812,0 1.429,0.252 1.851,0.758 0.422,0.505 0.633,1.247 0.633,2.226 m 2.312,-2.812 h 1.172 V 161 h -1.172 v -7.109 m 0,-2.766 h 1.172 v 1.484 h -1.172 v -1.484 m 9.532,5.578 V 161 h -1.172 v -4.25 c 0,-0.677 -0.13,-1.182 -0.391,-1.516 -0.26,-0.333 -0.656,-0.5 -1.187,-0.5 -0.625,0 -1.12,0.201 -1.485,0.602 -0.364,0.401 -0.547,0.95 -0.547,1.648 V 161 h -1.171 v -7.109 h 1.171 V 155 c 0.282,-0.427 0.61,-0.747 0.985,-0.961 0.375,-0.213 0.812,-0.32 1.312,-0.32 0.813,0 1.43,0.252 1.852,0.758 0.422,0.505 0.633,1.247 0.633,2.226 m 7,0.656 c 0,-0.843 -0.175,-1.497 -0.524,-1.961 -0.349,-0.463 -0.841,-0.695 -1.476,-0.695 -0.625,0 -1.112,0.232 -1.461,0.695 -0.349,0.464 -0.524,1.118 -0.524,1.961 0,0.844 0.175,1.498 0.524,1.961 0.349,0.464 0.836,0.696 1.461,0.696 0.635,0 1.127,-0.232 1.476,-0.696 0.349,-0.463 0.524,-1.117 0.524,-1.961 m 1.172,2.766 c 0,1.208 -0.271,2.107 -0.813,2.695 -0.542,0.589 -1.365,0.883 -2.469,0.883 -0.406,0 -0.791,-0.031 -1.156,-0.094 -0.365,-0.062 -0.719,-0.156 -1.062,-0.281 v -1.14 c 0.343,0.187 0.682,0.325 1.015,0.414 0.333,0.088 0.672,0.132 1.016,0.132 0.771,0 1.346,-0.198 1.726,-0.593 0.381,-0.396 0.571,-1 0.571,-1.813 v -0.578 c -0.24,0.417 -0.55,0.729 -0.93,0.938 -0.38,0.208 -0.831,0.312 -1.352,0.312 -0.875,0 -1.578,-0.333 -2.109,-1 -0.531,-0.667 -0.797,-1.547 -0.797,-2.641 0,-1.093 0.266,-1.974 0.797,-2.64 0.531,-0.667 1.234,-1 2.109,-1 0.521,0 0.972,0.104 1.352,0.312 0.38,0.209 0.69,0.521 0.93,0.938 v -1.078 h 1.172 v 6.234"
         id="path998" />
    </g>
    <g
       style="font-style:normal;font-weight:400;font-size:10px;font-family:Ubuntu;fill:#fdc60b;fill-opacity:1;stroke:none"
       transform="matrix(0.35277735,0,0,0.35277735,-9.3359521,221.39224)"
       font-size="10"
       font-weight="400"
       font-style="normal"
       id="g1008">
      <path
         style="vector-effect:none;fill-rule:evenodd"
         inkscape:connector-curvature="0"
         d="m 220.248,141 h 11.504 c 8.973,0 16.248,7.163 16.248,16 0,8.837 -7.275,16 -16.248,16 H 220.248 C 211.275,173 204,165.837 204,157 c 0,-8.837 7.275,-16 16.248,-16"
         id="path1006" />
    </g>
    <g
       style="font-style:normal;font-weight:400;font-size:10px;font-family:Ubuntu;fill:#ffffff;fill-opacity:1;stroke:none"
       transform="matrix(0.35277735,0,0,0.35277735,-9.3359521,221.39224)"
       font-size="10"
       font-weight="400"
       font-style="normal"
       id="g1014">
      <path
         style="vector-effect:none;fill-rule:nonzero"
         inkscape:connector-curvature="0"
         d="m 220.797,152.781 -1.734,4.719 h 3.484 l -1.75,-4.719 m -0.719,-1.265 h 1.453 l 3.61,9.484 h -1.328 l -0.86,-2.437 h -4.281 L 217.813,161 h -1.344 l 3.609,-9.484 m 10.516,3.468 c -0.136,-0.073 -0.279,-0.127 -0.43,-0.164 -0.151,-0.036 -0.32,-0.054 -0.508,-0.054 -0.656,0 -1.161,0.213 -1.515,0.64 -0.355,0.427 -0.532,1.042 -0.532,1.844 V 161 h -1.171 v -7.109 h 1.171 V 155 c 0.24,-0.437 0.558,-0.76 0.954,-0.969 0.395,-0.208 0.875,-0.312 1.437,-0.312 0.083,0 0.172,0.005 0.266,0.015 0.093,0.011 0.203,0.026 0.328,0.047 v 1.203 m 2.375,-3.109 v 2.016 h 2.406 v 0.906 h -2.406 v 3.859 c 0,0.584 0.08,0.956 0.242,1.117 0.161,0.162 0.487,0.243 0.977,0.243 h 1.187 V 161 h -1.187 c -0.907,0 -1.532,-0.169 -1.875,-0.508 -0.344,-0.338 -0.516,-0.95 -0.516,-1.836 v -3.859 h -0.859 v -0.906 h 0.859 v -2.016 h 1.172"
         id="path1012" />
    </g>
    <g
       style="font-style:normal;font-weight:400;font-size:10px;font-family:Ubuntu;fill:#8cbb26;fill-opacity:1;stroke:none"
       transform="matrix(0.35277735,0,0,0.35277735,-9.3359521,221.39224)"
       font-size="10"
       font-weight="400"
       font-style="normal"
       id="g1022">
      <path
         style="vector-effect:none;fill-rule:evenodd"
         inkscape:connector-curvature="0"
         d="M 46.9232,178 H 83.0768 C 91.871,178 99,185.163 99,194 c 0,8.837 -7.129,16 -15.9232,16 H 46.9232 C 38.129,210 31,202.837 31,194 c 0,-8.837 7.129,-16 15.9232,-16"
         id="path1020" />
    </g>
    <g
       style="font-style:normal;font-weight:400;font-size:10px;font-family:Ubuntu;fill:#ffffff;fill-opacity:1;stroke:none"
       transform="matrix(0.35277735,0,0,0.35277735,-9.3359521,221.39224)"
       font-size="10"
       font-weight="400"
       font-style="normal"
       id="g1028">
      <path
         style="vector-effect:none;fill-rule:nonzero"
         inkscape:connector-curvature="0"
         d="m 44.1563,188.516 h 1.7187 l 4.2031,7.937 v -7.937 h 1.25 V 198 h -1.7343 l -4.2032,-7.922 V 198 h -1.2343 v -9.484 m 12.8906,5.906 c -0.9375,0 -1.5886,0.109 -1.9531,0.328 -0.3646,0.219 -0.5469,0.589 -0.5469,1.109 0,0.407 0.1354,0.732 0.4062,0.977 0.2709,0.245 0.6407,0.367 1.1094,0.367 0.6458,0 1.1667,-0.229 1.5625,-0.687 0.3958,-0.459 0.5938,-1.068 0.5938,-1.828 v -0.266 h -1.1719 m 2.3281,-0.484 V 198 h -1.1562 v -1.078 c -0.2709,0.427 -0.6042,0.745 -1,0.953 -0.3959,0.208 -0.8855,0.313 -1.4688,0.313 -0.7292,0 -1.3073,-0.206 -1.7344,-0.618 -0.4271,-0.411 -0.6406,-0.955 -0.6406,-1.632 0,-0.803 0.2682,-1.407 0.8047,-1.813 0.5364,-0.406 1.3359,-0.609 2.3984,-0.609 h 1.6407 v -0.125 c 0,-0.532 -0.1771,-0.946 -0.5313,-1.243 -0.3542,-0.296 -0.8542,-0.445 -1.5,-0.445 -0.4062,0 -0.8021,0.05 -1.1875,0.149 -0.3854,0.099 -0.7552,0.247 -1.1094,0.445 v -1.078 c 0.4271,-0.167 0.8438,-0.292 1.25,-0.375 0.4063,-0.084 0.7969,-0.125 1.1719,-0.125 1.0313,0 1.7995,0.265 2.3047,0.797 0.5052,0.531 0.7578,1.338 0.7578,2.422 m 3.5469,-5.063 v 2.016 h 2.4062 v 0.906 h -2.4062 v 3.859 c 0,0.584 0.0807,0.956 0.2422,1.117 0.1614,0.162 0.4869,0.243 0.9765,0.243 h 1.1875 V 198 h -1.1875 c -0.9062,0 -1.5312,-0.169 -1.875,-0.508 -0.3437,-0.338 -0.5156,-0.95 -0.5156,-1.836 v -3.859 h -0.8594 v -0.906 H 61.75 v -2.016 h 1.1719 m 3.8281,6.313 v -4.297 h 1.1563 v 4.265 c 0,0.667 0.1328,1.17 0.3984,1.508 0.2656,0.339 0.6588,0.508 1.1797,0.508 0.6354,0 1.1354,-0.201 1.5,-0.602 0.3646,-0.401 0.5469,-0.95 0.5469,-1.648 v -4.031 h 1.1718 V 198 h -1.1718 v -1.094 c -0.2813,0.438 -0.6094,0.761 -0.9844,0.969 -0.375,0.208 -0.8125,0.313 -1.3125,0.313 -0.8125,0 -1.4297,-0.256 -1.8516,-0.766 -0.4219,-0.511 -0.6328,-1.255 -0.6328,-2.234 m 12.4688,-3.204 c -0.1355,-0.073 -0.2787,-0.127 -0.4297,-0.164 -0.1511,-0.036 -0.3203,-0.054 -0.5078,-0.054 -0.6563,0 -1.1615,0.213 -1.5157,0.64 -0.3541,0.427 -0.5312,1.042 -0.5312,1.844 V 198 h -1.1719 v -7.109 h 1.1719 V 192 c 0.2396,-0.437 0.5573,-0.76 0.9531,-0.969 0.3958,-0.208 0.875,-0.312 1.4375,-0.312 0.0833,0 0.1719,0.005 0.2656,0.015 0.0938,0.011 0.2032,0.026 0.3282,0.047 v 1.203 m 7.3125,2.172 v 0.563 h -5.375 c 0.052,0.812 0.2942,1.427 0.7265,1.844 0.4323,0.416 1.0339,0.625 1.8047,0.625 0.4479,0 0.8828,-0.055 1.3047,-0.165 0.4219,-0.109 0.8411,-0.273 1.2578,-0.492 v 1.11 c -0.4167,0.177 -0.8464,0.312 -1.2891,0.406 -0.4427,0.094 -0.888,0.141 -1.3359,0.141 -1.1354,0 -2.0339,-0.331 -2.6953,-0.993 -0.6615,-0.661 -0.9922,-1.554 -0.9922,-2.679 0,-1.167 0.3151,-2.092 0.9453,-2.774 0.6302,-0.682 1.4766,-1.023 2.5391,-1.023 0.9583,0 1.7161,0.307 2.2734,0.922 0.5573,0.614 0.836,1.453 0.836,2.515 m -1.1719,-0.343 c -0.0104,-0.636 -0.1901,-1.146 -0.5391,-1.532 -0.3489,-0.385 -0.8099,-0.578 -1.3828,-0.578 -0.6562,0 -1.1797,0.185 -1.5703,0.555 -0.3906,0.37 -0.6172,0.888 -0.6797,1.555 h 4.1719"
         id="path1026" />
    </g>
    <g
       style="font-style:normal;font-weight:400;font-size:10px;font-family:Ubuntu;fill:#6d398b;fill-opacity:1;stroke:none"
       transform="matrix(0.35277735,0,0,0.35277735,-9.3359521,221.39224)"
       font-size="10"
       font-weight="400"
       font-style="normal"
       id="g1036">
      <path
         style="vector-effect:none;fill-rule:evenodd"
         inkscape:connector-curvature="0"
         d="m 120.11,178 h 47.78 c 8.897,0 16.11,7.163 16.11,16 0,8.837 -7.213,16 -16.11,16 h -47.78 c -8.897,0 -16.11,-7.163 -16.11,-16 0,-8.837 7.213,-16 16.11,-16"
         id="path1034" />
    </g>
    <g
       style="font-style:normal;font-weight:400;font-size:10px;font-family:Ubuntu;fill:#ffffff;fill-opacity:1;stroke:none"
       transform="matrix(0.35277735,0,0,0.35277735,-9.3359521,221.39224)"
       font-size="10"
       font-weight="400"
       font-style="normal"
       id="g1042">
      <path
         style="vector-effect:none;fill-rule:nonzero"
         inkscape:connector-curvature="0"
         d="m 120.641,189.781 -1.735,4.719 h 3.485 l -1.75,-4.719 m -0.719,-1.265 h 1.453 l 3.609,9.484 h -1.328 l -0.859,-2.437 h -4.281 l -0.86,2.437 h -1.343 l 3.609,-9.484 m 11.516,2.64 v 1.094 c -0.334,-0.177 -0.667,-0.312 -1,-0.406 -0.334,-0.094 -0.667,-0.141 -1,-0.141 -0.761,0 -1.349,0.242 -1.766,0.727 -0.417,0.484 -0.625,1.159 -0.625,2.023 0,0.865 0.208,1.537 0.625,2.016 0.417,0.479 1.005,0.719 1.766,0.719 0.333,0 0.666,-0.045 1,-0.133 0.333,-0.089 0.666,-0.227 1,-0.414 v 1.093 c -0.323,0.146 -0.659,0.258 -1.008,0.336 -0.349,0.078 -0.722,0.118 -1.117,0.118 -1.073,0 -1.925,-0.336 -2.555,-1.008 -0.63,-0.672 -0.945,-1.581 -0.945,-2.727 0,-1.156 0.317,-2.068 0.953,-2.734 0.635,-0.667 1.51,-1 2.625,-1 0.354,0 0.703,0.036 1.047,0.109 0.343,0.073 0.677,0.182 1,0.328 m 3.171,-2.281 v 2.016 h 2.407 v 0.906 h -2.407 v 3.859 c 0,0.584 0.081,0.956 0.243,1.117 0.161,0.162 0.487,0.243 0.976,0.243 h 1.188 V 198 h -1.188 c -0.906,0 -1.531,-0.169 -1.875,-0.508 -0.344,-0.338 -0.515,-0.95 -0.515,-1.836 v -3.859 h -0.86 v -0.906 h 0.86 v -2.016 h 1.171 m 3.938,2.016 h 1.172 V 198 h -1.172 v -7.109 m 0,-2.766 h 1.172 v 1.484 h -1.172 v -1.484 m 2.781,2.766 h 1.235 l 2.218,5.968 2.219,-5.968 h 1.25 L 145.578,198 h -1.594 l -2.656,-7.109 m 8.516,0 h 1.172 V 198 h -1.172 v -7.109 m 0,-2.766 h 1.172 v 1.484 h -1.172 v -1.484 m 8.14,2.969 v 1.109 c -0.323,-0.167 -0.661,-0.292 -1.015,-0.375 -0.354,-0.083 -0.724,-0.125 -1.11,-0.125 -0.583,0 -1.018,0.089 -1.304,0.266 -0.287,0.177 -0.43,0.442 -0.43,0.797 0,0.27 0.102,0.481 0.305,0.632 0.203,0.151 0.622,0.3 1.258,0.446 l 0.39,0.094 c 0.833,0.177 1.425,0.427 1.774,0.75 0.349,0.322 0.523,0.77 0.523,1.343 0,0.667 -0.26,1.193 -0.781,1.578 -0.521,0.386 -1.24,0.579 -2.156,0.579 -0.386,0 -0.784,-0.037 -1.196,-0.11 -0.411,-0.073 -0.846,-0.187 -1.304,-0.344 v -1.203 c 0.437,0.229 0.864,0.399 1.281,0.508 0.416,0.109 0.828,0.164 1.234,0.164 0.552,0 0.977,-0.094 1.274,-0.281 0.296,-0.188 0.445,-0.453 0.445,-0.797 0,-0.312 -0.107,-0.555 -0.32,-0.727 -0.214,-0.171 -0.68,-0.335 -1.399,-0.492 l -0.406,-0.093 c -0.729,-0.157 -1.255,-0.391 -1.578,-0.704 -0.323,-0.312 -0.485,-0.744 -0.485,-1.296 0,-0.667 0.237,-1.183 0.711,-1.547 0.474,-0.365 1.149,-0.547 2.024,-0.547 0.427,0 0.833,0.031 1.219,0.094 0.385,0.062 0.734,0.156 1.046,0.281 m 7.782,1.156 c 0.291,-0.521 0.64,-0.906 1.047,-1.156 0.406,-0.25 0.885,-0.375 1.437,-0.375 0.74,0 1.31,0.26 1.711,0.781 0.401,0.521 0.602,1.255 0.602,2.203 V 198 h -1.172 v -4.25 c 0,-0.687 -0.123,-1.195 -0.368,-1.523 -0.244,-0.329 -0.612,-0.493 -1.101,-0.493 -0.604,0 -1.083,0.201 -1.438,0.602 -0.354,0.401 -0.531,0.95 -0.531,1.648 V 198 h -1.172 v -4.25 c 0,-0.687 -0.12,-1.195 -0.359,-1.523 -0.24,-0.329 -0.615,-0.493 -1.125,-0.493 -0.594,0 -1.065,0.204 -1.414,0.61 -0.349,0.406 -0.524,0.953 -0.524,1.64 V 198 h -1.171 v -7.109 h 1.171 V 192 c 0.261,-0.437 0.579,-0.76 0.954,-0.969 0.375,-0.208 0.817,-0.312 1.328,-0.312 0.52,0 0.961,0.13 1.32,0.39 0.359,0.261 0.628,0.641 0.805,1.141"
         id="path1040" />
    </g>
  </g>
</svg>
