<?xml version="1.0" encoding="UTF-8" standalone="no"?>
<!-- Created with Inkscape (http://www.inkscape.org/) -->

<svg
   xmlns:dc="http://purl.org/dc/elements/1.1/"
   xmlns:cc="http://creativecommons.org/ns#"
   xmlns:rdf="http://www.w3.org/1999/02/22-rdf-syntax-ns#"
   xmlns:svg="http://www.w3.org/2000/svg"
   xmlns="http://www.w3.org/2000/svg"
   xmlns:sodipodi="http://sodipodi.sourceforge.net/DTD/sodipodi-0.dtd"
   xmlns:inkscape="http://www.inkscape.org/namespaces/inkscape"
   width="65mm"
   height="55mm"
   viewBox="0 0 65 55"
   version="1.1"
   id="svg2554"
   inkscape:version="0.92.5 (2060ec1f9f, 2020-04-08)"
   sodipodi:docname="market.svg">
  <defs
     id="defs2548" />
  <sodipodi:namedview
     id="base"
     pagecolor="#ffffff"
     bordercolor="#666666"
     borderopacity="1.0"
     inkscape:pageopacity="0.0"
     inkscape:pageshadow="2"
     inkscape:zoom="1.979899"
     inkscape:cx="259.2042"
     inkscape:cy="103.63526"
     inkscape:document-units="mm"
     inkscape:current-layer="layer1"
     showgrid="false"
     inkscape:window-width="1920"
     inkscape:window-height="1129"
     inkscape:window-x="0"
     inkscape:window-y="0"
     inkscape:window-maximized="1" />
  <metadata
     id="metadata2551">
    <rdf:RDF>
      <cc:Work
         rdf:about="">
        <dc:format>image/svg+xml</dc:format>
        <dc:type
           rdf:resource="http://purl.org/dc/dcmitype/StillImage" />
        <dc:title></dc:title>
      </cc:Work>
    </rdf:RDF>
  </metadata>
  <g
     inkscape:groupmode="layer"
     id="layer2"
     inkscape:label="Ebene 2"
     transform="translate(0,5)">
    <rect
       id="rect2619"
       width="62.933033"
       height="52.727669"
       x="0.86934519"
       y="-4.0883884"
       ry="5.1147337"
       style="fill:#f9f9f9;stroke-width:0.28198671" />
  </g>
  <g
     inkscape:label="Ebene 1"
     inkscape:groupmode="layer"
     id="layer1"
     transform="translate(0,-242)">
    <g
       style="font-style:normal;font-weight:400;font-size:10px;font-family:Ubuntu;fill:#9e9e9e;fill-opacity:1;stroke:none"
       transform="matrix(0.35277735,0,0,0.35277735,-6.1231443,166.01561)"
       font-size="10"
       font-weight="400"
       font-style="normal"
       id="g1034">
      <path
         style="vector-effect:none;fill-rule:nonzero"
         inkscape:connector-curvature="0"
         d="m 35.6094,237.047 c -0.8646,0 -1.5495,0.32 -2.0547,0.961 -0.5052,0.64 -0.7578,1.518 -0.7578,2.633 0,1.093 0.2526,1.961 0.7578,2.601 0.5052,0.641 1.1901,0.961 2.0547,0.961 0.8541,0 1.5338,-0.32 2.039,-0.961 0.5052,-0.64 0.7579,-1.508 0.7579,-2.601 0,-1.115 -0.2527,-1.993 -0.7579,-2.633 -0.5052,-0.641 -1.1849,-0.961 -2.039,-0.961 m 0,-0.953 c 1.2187,0 2.1953,0.411 2.9297,1.234 0.7343,0.823 1.1015,1.927 1.1015,3.313 0,1.375 -0.3672,2.474 -1.1015,3.297 -0.7344,0.822 -1.711,1.234 -2.9297,1.234 -1.2292,0 -2.2136,-0.412 -2.9531,-1.234 -0.7396,-0.823 -1.1094,-1.922 -1.1094,-3.297 0,-1.386 0.3698,-2.49 1.1094,-3.313 0.7395,-0.823 1.7239,-1.234 2.9531,-1.234 m 9.1562,-0.219 v 0.906 h -1.0312 c -0.3854,0 -0.6537,0.078 -0.8047,0.235 -0.1511,0.156 -0.2266,0.437 -0.2266,0.843 v 0.579 h 1.7813 v 0.843 H 42.7031 V 245 H 41.625 v -5.719 h -1.0312 v -0.843 h 1.0312 v -0.454 c 0,-0.729 0.1693,-1.263 0.5078,-1.601 0.3386,-0.339 0.8776,-0.508 1.6172,-0.508 h 1.0156 m 4.2188,0 v 0.906 h -1.0313 c -0.3854,0 -0.6536,0.078 -0.8047,0.235 -0.151,0.156 -0.2265,0.437 -0.2265,0.843 v 0.579 h 1.7812 v 0.843 H 46.9219 V 245 h -1.0781 v -5.719 h -1.0313 v -0.843 h 1.0313 v -0.454 c 0,-0.729 0.1692,-1.263 0.5078,-1.601 0.3385,-0.339 0.8776,-0.508 1.6172,-0.508 h 1.0156 m 6.5156,5.578 v 0.516 h -4.9687 c 0.052,0.75 0.2786,1.317 0.6796,1.703 0.4011,0.385 0.9558,0.578 1.6641,0.578 0.4167,0 0.8203,-0.049 1.2109,-0.148 0.3907,-0.099 0.7787,-0.253 1.1641,-0.461 v 1.031 c -0.3958,0.156 -0.7969,0.279 -1.2031,0.367 -0.4063,0.089 -0.8177,0.133 -1.2344,0.133 -1.0417,0 -1.8698,-0.305 -2.4844,-0.914 -0.6146,-0.61 -0.9218,-1.435 -0.9218,-2.477 0,-1.073 0.2916,-1.924 0.875,-2.554 0.5833,-0.631 1.3645,-0.946 2.3437,-0.946 0.8854,0 1.5859,0.284 2.1016,0.852 0.5156,0.568 0.7734,1.341 0.7734,2.32 m -1.0781,-0.328 c -0.0104,-0.583 -0.1771,-1.052 -0.5,-1.406 -0.3229,-0.354 -0.75,-0.531 -1.2813,-0.531 -0.6041,0 -1.0859,0.171 -1.4453,0.515 -0.3594,0.344 -0.5651,0.823 -0.6172,1.438 l 3.8438,-0.016 m 6.6406,-1.687 c -0.125,-0.063 -0.2578,-0.112 -0.3984,-0.149 -0.1407,-0.036 -0.2995,-0.055 -0.4766,-0.055 -0.6042,0 -1.0703,0.198 -1.3984,0.594 -0.3282,0.396 -0.4922,0.969 -0.4922,1.719 V 245 h -1.0781 v -6.562 h 1.0781 v 1.015 c 0.2291,-0.396 0.526,-0.69 0.8906,-0.883 0.3646,-0.192 0.8073,-0.289 1.3281,-0.289 0.0729,0 0.1537,0.005 0.2422,0.016 0.0886,0.01 0.1849,0.026 0.2891,0.047 l 0.0156,1.094 m 5.2969,-0.813 v 1.031 c -0.3021,-0.156 -0.6172,-0.273 -0.9453,-0.351 -0.3282,-0.078 -0.6693,-0.117 -1.0235,-0.117 -0.5312,0 -0.9323,0.08 -1.2031,0.242 -0.2708,0.161 -0.4062,0.409 -0.4062,0.742 0,0.25 0.0963,0.445 0.289,0.586 0.1927,0.14 0.5807,0.273 1.1641,0.398 l 0.3594,0.094 c 0.7708,0.156 1.3177,0.385 1.6406,0.688 0.3229,0.302 0.4844,0.718 0.4844,1.25 0,0.614 -0.2422,1.098 -0.7266,1.453 -0.4844,0.354 -1.1484,0.531 -1.9922,0.531 -0.3542,0 -0.7214,-0.034 -1.1016,-0.102 -0.3802,-0.067 -0.7786,-0.169 -1.1953,-0.304 v -1.125 c 0.3959,0.208 0.7865,0.364 1.1719,0.468 0.3854,0.105 0.7708,0.157 1.1563,0.157 0.5,0 0.888,-0.086 1.164,-0.258 0.2761,-0.172 0.4141,-0.419 0.4141,-0.742 0,-0.292 -0.099,-0.516 -0.2969,-0.672 -0.1979,-0.156 -0.6302,-0.308 -1.2969,-0.453 l -0.375,-0.078 c -0.6666,-0.146 -1.1484,-0.365 -1.4453,-0.657 -0.2969,-0.291 -0.4453,-0.687 -0.4453,-1.187 0,-0.625 0.2188,-1.104 0.6563,-1.438 0.4375,-0.333 1.0572,-0.5 1.8593,-0.5 0.3959,0 0.7709,0.029 1.125,0.086 0.3542,0.057 0.6771,0.143 0.9688,0.258"
         id="path1032" />
    </g>
    <g
       style="font-style:normal;font-weight:400;font-size:10px;font-family:Ubuntu;fill:#e4e4e4;fill-opacity:1;stroke:none"
       transform="matrix(0.35277735,0,0,0.35277735,-50.573169,166.01561)"
       font-size="10"
       font-weight="400"
       font-style="normal"
       id="g1060">
      <path
         style="vector-effect:none;fill-rule:evenodd"
         inkscape:connector-curvature="0"
         d="m 170.929,254 h 112.142 c 8.797,0 15.929,7.163 15.929,16 0,8.837 -7.132,16 -15.929,16 H 170.929 C 162.132,286 155,278.837 155,270 c 0,-8.837 7.132,-16 15.929,-16"
         id="path1058" />
    </g>
    <g
       style="font-style:normal;font-weight:400;font-size:10px;font-family:Ubuntu;fill:#000000;fill-opacity:0.6;stroke:none"
       transform="matrix(0.35277735,0,0,0.35277735,-50.573169,166.01561)"
       font-size="10"
       font-weight="400"
       font-style="normal"
       id="g1066">
      <path
         style="vector-effect:none;fill-rule:nonzero"
         inkscape:connector-curvature="0"
         d="m 167.172,264.516 h 1.297 l 1.984,8.015 1.985,-8.015 h 1.437 l 2,8.015 1.984,-8.015 h 1.297 L 176.781,274 h -1.609 l -2,-8.234 -2.016,8.234 h -1.609 l -2.375,-9.484 m 19.719,5.64 v 0.563 h -5.375 c 0.052,0.812 0.294,1.427 0.726,1.844 0.432,0.416 1.034,0.625 1.805,0.625 0.448,0 0.883,-0.055 1.305,-0.165 0.421,-0.109 0.841,-0.273 1.257,-0.492 v 1.11 c -0.416,0.177 -0.846,0.312 -1.289,0.406 -0.442,0.094 -0.888,0.141 -1.336,0.141 -1.135,0 -2.033,-0.331 -2.695,-0.993 -0.661,-0.661 -0.992,-1.554 -0.992,-2.679 0,-1.167 0.315,-2.092 0.945,-2.774 0.63,-0.682 1.477,-1.023 2.539,-1.023 0.959,0 1.716,0.307 2.274,0.922 0.557,0.614 0.836,1.453 0.836,2.515 m -1.172,-0.343 c -0.011,-0.636 -0.19,-1.146 -0.539,-1.532 -0.349,-0.385 -0.81,-0.578 -1.383,-0.578 -0.656,0 -1.18,0.185 -1.57,0.555 -0.391,0.37 -0.618,0.888 -0.68,1.555 h 4.172 m 8.172,0.64 c 0,-0.864 -0.177,-1.539 -0.532,-2.023 -0.354,-0.485 -0.838,-0.727 -1.453,-0.727 -0.614,0 -1.099,0.242 -1.453,0.727 -0.354,0.484 -0.531,1.159 -0.531,2.023 0,0.854 0.177,1.526 0.531,2.016 0.354,0.489 0.839,0.734 1.453,0.734 0.615,0 1.099,-0.245 1.453,-0.734 0.355,-0.49 0.532,-1.162 0.532,-2.016 m -3.969,-2.484 c 0.239,-0.427 0.547,-0.742 0.922,-0.946 0.375,-0.203 0.823,-0.304 1.344,-0.304 0.864,0 1.567,0.344 2.109,1.031 0.542,0.688 0.812,1.589 0.812,2.703 0,1.115 -0.27,2.016 -0.812,2.703 -0.542,0.688 -1.245,1.032 -2.109,1.032 -0.521,0 -0.969,-0.105 -1.344,-0.313 -0.375,-0.208 -0.683,-0.521 -0.922,-0.937 V 274 h -1.172 v -9.875 h 1.172 v 3.844 m 12.578,-2.391 v 7.375 h 1.547 c 1.302,0 2.258,-0.297 2.867,-0.89 0.609,-0.594 0.914,-1.532 0.914,-2.813 0,-1.271 -0.305,-2.201 -0.914,-2.789 -0.609,-0.589 -1.565,-0.883 -2.867,-0.883 H 202.5 m -1.281,-1.062 h 2.625 c 1.844,0 3.195,0.382 4.054,1.148 0.86,0.766 1.29,1.961 1.29,3.586 0,1.635 -0.433,2.836 -1.297,3.602 -0.865,0.765 -2.214,1.148 -4.047,1.148 h -2.625 v -9.484 m 16.031,5.64 v 0.563 h -5.375 c 0.052,0.812 0.294,1.427 0.727,1.844 0.432,0.416 1.033,0.625 1.804,0.625 0.448,0 0.883,-0.055 1.305,-0.165 0.422,-0.109 0.841,-0.273 1.258,-0.492 v 1.11 c -0.417,0.177 -0.847,0.312 -1.289,0.406 -0.443,0.094 -0.888,0.141 -1.336,0.141 -1.136,0 -2.034,-0.331 -2.696,-0.993 -0.661,-0.661 -0.992,-1.554 -0.992,-2.679 0,-1.167 0.315,-2.092 0.946,-2.774 0.63,-0.682 1.476,-1.023 2.539,-1.023 0.958,0 1.716,0.307 2.273,0.922 0.557,0.614 0.836,1.453 0.836,2.515 m -1.172,-0.343 c -0.01,-0.636 -0.19,-1.146 -0.539,-1.532 -0.349,-0.385 -0.81,-0.578 -1.383,-0.578 -0.656,0 -1.179,0.185 -1.57,0.555 -0.391,0.37 -0.617,0.888 -0.68,1.555 h 4.172 m 2.235,-2.922 h 1.234 l 2.219,5.968 2.218,-5.968 h 1.25 L 222.563,274 h -1.594 l -2.656,-7.109 m 14.609,3.265 v 0.563 h -5.375 c 0.052,0.812 0.294,1.427 0.726,1.844 0.433,0.416 1.034,0.625 1.805,0.625 0.448,0 0.883,-0.055 1.305,-0.165 0.422,-0.109 0.841,-0.273 1.258,-0.492 v 1.11 c -0.417,0.177 -0.847,0.312 -1.289,0.406 -0.443,0.094 -0.888,0.141 -1.336,0.141 -1.136,0 -2.034,-0.331 -2.696,-0.993 -0.661,-0.661 -0.992,-1.554 -0.992,-2.679 0,-1.167 0.315,-2.092 0.945,-2.774 0.631,-0.682 1.477,-1.023 2.54,-1.023 0.958,0 1.716,0.307 2.273,0.922 0.557,0.614 0.836,1.453 0.836,2.515 m -1.172,-0.343 c -0.01,-0.636 -0.19,-1.146 -0.539,-1.532 -0.349,-0.385 -0.81,-0.578 -1.383,-0.578 -0.656,0 -1.18,0.185 -1.57,0.555 -0.391,0.37 -0.617,0.888 -0.68,1.555 h 4.172 m 3.063,-5.688 h 1.171 V 274 h -1.171 v -9.875 m 6.375,3.578 c -0.625,0 -1.12,0.245 -1.485,0.735 -0.364,0.489 -0.547,1.161 -0.547,2.015 0,0.854 0.18,1.524 0.539,2.008 0.36,0.484 0.857,0.727 1.493,0.727 0.614,0 1.104,-0.245 1.468,-0.735 0.365,-0.489 0.547,-1.156 0.547,-2 0,-0.844 -0.182,-1.513 -0.547,-2.008 -0.364,-0.494 -0.854,-0.742 -1.468,-0.742 m 0,-0.984 c 1.01,0 1.807,0.33 2.39,0.992 0.583,0.661 0.875,1.575 0.875,2.742 0,1.167 -0.292,2.081 -0.875,2.742 -0.583,0.662 -1.38,0.993 -2.39,0.993 -1.021,0 -1.821,-0.331 -2.399,-0.993 -0.578,-0.661 -0.867,-1.575 -0.867,-2.742 0,-1.167 0.289,-2.081 0.867,-2.742 0.578,-0.662 1.378,-0.992 2.399,-0.992 m 6.328,6.219 v 3.765 h -1.172 v -9.812 h 1.172 v 1.078 c 0.239,-0.427 0.547,-0.742 0.922,-0.946 0.375,-0.203 0.822,-0.304 1.343,-0.304 0.865,0 1.568,0.344 2.11,1.031 0.541,0.688 0.812,1.589 0.812,2.703 0,1.115 -0.271,2.016 -0.812,2.703 -0.542,0.688 -1.245,1.032 -2.11,1.032 -0.521,0 -0.968,-0.105 -1.343,-0.313 -0.375,-0.208 -0.683,-0.521 -0.922,-0.937 m 3.968,-2.485 c 0,-0.864 -0.177,-1.539 -0.531,-2.023 -0.354,-0.485 -0.838,-0.727 -1.453,-0.727 -0.615,0 -1.099,0.242 -1.453,0.727 -0.354,0.484 -0.531,1.159 -0.531,2.023 0,0.854 0.177,1.526 0.531,2.016 0.354,0.489 0.838,0.734 1.453,0.734 0.615,0 1.099,-0.245 1.453,-0.734 0.354,-0.49 0.531,-1.162 0.531,-2.016 m 8.688,-2.203 c 0.292,-0.521 0.641,-0.906 1.047,-1.156 0.406,-0.25 0.885,-0.375 1.437,-0.375 0.74,0 1.31,0.26 1.711,0.781 0.401,0.521 0.602,1.255 0.602,2.203 V 274 h -1.172 v -4.25 c 0,-0.687 -0.123,-1.195 -0.367,-1.523 -0.245,-0.329 -0.612,-0.493 -1.102,-0.493 -0.604,0 -1.083,0.201 -1.437,0.602 -0.355,0.401 -0.532,0.95 -0.532,1.648 V 274 h -1.171 v -4.25 c 0,-0.687 -0.12,-1.195 -0.36,-1.523 -0.239,-0.329 -0.614,-0.493 -1.125,-0.493 -0.594,0 -1.065,0.204 -1.414,0.61 -0.349,0.406 -0.523,0.953 -0.523,1.64 V 274 h -1.172 v -7.109 h 1.172 V 268 c 0.26,-0.437 0.578,-0.76 0.953,-0.969 0.375,-0.208 0.817,-0.312 1.328,-0.312 0.521,0 0.961,0.13 1.32,0.39 0.36,0.261 0.628,0.641 0.805,1.141 m 13.203,1.906 v 0.563 H 268 c 0.052,0.812 0.294,1.427 0.727,1.844 0.432,0.416 1.033,0.625 1.804,0.625 0.448,0 0.883,-0.055 1.305,-0.165 0.422,-0.109 0.841,-0.273 1.258,-0.492 v 1.11 c -0.417,0.177 -0.847,0.312 -1.289,0.406 -0.443,0.094 -0.888,0.141 -1.336,0.141 -1.136,0 -2.034,-0.331 -2.696,-0.993 -0.661,-0.661 -0.992,-1.554 -0.992,-2.679 0,-1.167 0.315,-2.092 0.946,-2.774 0.63,-0.682 1.476,-1.023 2.539,-1.023 0.958,0 1.716,0.307 2.273,0.922 0.557,0.614 0.836,1.453 0.836,2.515 m -1.172,-0.343 c -0.01,-0.636 -0.19,-1.146 -0.539,-1.532 -0.349,-0.385 -0.81,-0.578 -1.383,-0.578 -0.656,0 -1.179,0.185 -1.57,0.555 -0.391,0.37 -0.617,0.888 -0.68,1.555 h 4.172 m 8.985,-0.11 V 274 h -1.172 v -4.25 c 0,-0.677 -0.131,-1.182 -0.391,-1.516 -0.26,-0.333 -0.656,-0.5 -1.187,-0.5 -0.625,0 -1.12,0.201 -1.485,0.602 -0.364,0.401 -0.547,0.95 -0.547,1.648 V 274 h -1.172 v -7.109 h 1.172 V 268 c 0.282,-0.427 0.61,-0.747 0.985,-0.961 0.375,-0.213 0.812,-0.32 1.312,-0.32 0.813,0 1.43,0.252 1.852,0.758 0.422,0.505 0.633,1.247 0.633,2.226 m 3.468,-4.828 v 2.016 h 2.407 v 0.906 h -2.407 v 3.859 c 0,0.584 0.081,0.956 0.242,1.117 0.162,0.162 0.487,0.243 0.977,0.243 h 1.188 V 274 h -1.188 c -0.906,0 -1.531,-0.169 -1.875,-0.508 -0.344,-0.338 -0.516,-0.95 -0.516,-1.836 v -3.859 h -0.859 v -0.906 h 0.859 v -2.016 h 1.172"
         id="path1064" />
    </g>
    <g
       style="font-style:normal;font-weight:400;font-size:10px;font-family:Ubuntu;fill:#9e9e9e;fill-opacity:1;stroke:none"
       transform="matrix(0.35277735,0,0,0.35277735,-6.1231443,166.01561)"
       font-size="10"
       font-weight="400"
       font-style="normal"
       id="g1142">
      <path
         style="vector-effect:none;fill-rule:nonzero"
         inkscape:connector-curvature="0"
         d="m 32.0469,299.25 h 1.5937 l 3.8907,7.313 v -7.313 h 1.1406 V 308 h -1.5938 l -3.875,-7.312 V 308 h -1.1562 v -8.75 m 14.5469,5.203 v 0.516 H 41.625 c 0.0521,0.75 0.2786,1.317 0.6797,1.703 0.401,0.385 0.9557,0.578 1.6641,0.578 0.4166,0 0.8203,-0.049 1.2109,-0.148 0.3906,-0.099 0.7786,-0.253 1.1641,-0.461 v 1.031 c -0.3959,0.156 -0.7969,0.279 -1.2032,0.367 -0.4062,0.089 -0.8177,0.133 -1.2343,0.133 -1.0417,0 -1.8698,-0.305 -2.4844,-0.914 -0.6146,-0.61 -0.9219,-1.435 -0.9219,-2.477 0,-1.073 0.2917,-1.924 0.875,-2.554 0.5833,-0.631 1.3646,-0.946 2.3438,-0.946 0.8854,0 1.5859,0.284 2.1015,0.852 0.5156,0.568 0.7735,1.341 0.7735,2.32 m -1.0782,-0.328 c -0.0104,-0.583 -0.1771,-1.052 -0.5,-1.406 -0.3229,-0.354 -0.75,-0.531 -1.2812,-0.531 -0.6042,0 -1.086,0.171 -1.4453,0.515 -0.3594,0.344 -0.5651,0.823 -0.6172,1.438 l 3.8437,-0.016 m 8.4532,0.328 v 0.516 H 49 c 0.0521,0.75 0.2786,1.317 0.6797,1.703 0.401,0.385 0.9557,0.578 1.6641,0.578 0.4166,0 0.8203,-0.049 1.2109,-0.148 0.3906,-0.099 0.7786,-0.253 1.1641,-0.461 v 1.031 c -0.3959,0.156 -0.7969,0.279 -1.2032,0.367 -0.4062,0.089 -0.8177,0.133 -1.2343,0.133 -1.0417,0 -1.8698,-0.305 -2.4844,-0.914 -0.6146,-0.61 -0.9219,-1.435 -0.9219,-2.477 0,-1.073 0.2917,-1.924 0.875,-2.554 0.5833,-0.631 1.3646,-0.946 2.3438,-0.946 0.8854,0 1.5859,0.284 2.1015,0.852 0.5156,0.568 0.7735,1.341 0.7735,2.32 m -1.0782,-0.328 c -0.0104,-0.583 -0.1771,-1.052 -0.5,-1.406 -0.3229,-0.354 -0.75,-0.531 -1.2812,-0.531 -0.6042,0 -1.086,0.171 -1.4453,0.515 -0.3594,0.344 -0.5651,0.823 -0.6172,1.438 l 3.8437,-0.016 m 7.1563,-1.687 v -3.563 H 61.125 V 308 h -1.0781 v -0.984 c -0.2292,0.385 -0.5156,0.674 -0.8594,0.867 -0.3437,0.193 -0.7604,0.289 -1.25,0.289 -0.7917,0 -1.4375,-0.318 -1.9375,-0.953 -0.5,-0.636 -0.75,-1.469 -0.75,-2.5 0,-1.031 0.25,-1.862 0.75,-2.492 0.5,-0.631 1.1458,-0.946 1.9375,-0.946 0.4896,0 0.9063,0.094 1.25,0.282 0.3438,0.187 0.6302,0.479 0.8594,0.875 m -3.6719,2.281 c 0,0.791 0.1615,1.414 0.4844,1.867 0.3229,0.453 0.7708,0.68 1.3437,0.68 0.5729,0 1.0235,-0.227 1.3516,-0.68 0.3281,-0.453 0.4922,-1.076 0.4922,-1.867 0,-0.792 -0.1641,-1.412 -0.4922,-1.86 -0.3281,-0.448 -0.7787,-0.671 -1.3516,-0.671 -0.5729,0 -1.0208,0.223 -1.3437,0.671 -0.3229,0.448 -0.4844,1.068 -0.4844,1.86 m 11.1406,-3.094 v 1.031 c -0.3021,-0.156 -0.6172,-0.273 -0.9453,-0.351 -0.3281,-0.078 -0.6693,-0.117 -1.0234,-0.117 -0.5313,0 -0.9323,0.08 -1.2031,0.242 -0.2709,0.161 -0.4063,0.409 -0.4063,0.742 0,0.25 0.0964,0.445 0.2891,0.586 0.1927,0.14 0.5807,0.273 1.164,0.398 l 0.3594,0.094 c 0.7708,0.156 1.3177,0.385 1.6406,0.688 0.3229,0.302 0.4844,0.718 0.4844,1.25 0,0.614 -0.2422,1.098 -0.7266,1.453 -0.4843,0.354 -1.1484,0.531 -1.9921,0.531 -0.3542,0 -0.7214,-0.034 -1.1016,-0.102 -0.3802,-0.067 -0.7787,-0.169 -1.1953,-0.304 v -1.125 c 0.3958,0.208 0.7864,0.364 1.1719,0.468 0.3854,0.105 0.7708,0.157 1.1562,0.157 0.5,0 0.888,-0.086 1.1641,-0.258 0.276,-0.172 0.414,-0.419 0.414,-0.742 0,-0.292 -0.0989,-0.516 -0.2968,-0.672 -0.198,-0.156 -0.6303,-0.308 -1.2969,-0.453 l -0.375,-0.078 c -0.6667,-0.146 -1.1485,-0.365 -1.4453,-0.657 -0.2969,-0.291 -0.4453,-0.687 -0.4453,-1.187 0,-0.625 0.2187,-1.104 0.6562,-1.438 0.4375,-0.333 1.0573,-0.5 1.8594,-0.5 0.3958,0 0.7708,0.029 1.125,0.086 0.3541,0.057 0.6771,0.143 0.9687,0.258"
         id="path1140" />
    </g>
    <g
       style="font-style:normal;font-weight:400;font-size:10px;font-family:Ubuntu;fill:#ffe9d4;fill-opacity:1;stroke:none"
       transform="matrix(0.35277735,0,0,0.35277735,-6.1231443,166.01561)"
       font-size="10"
       font-weight="400"
       font-style="normal"
       id="g1154">
      <path
         style="vector-effect:none;fill-rule:evenodd"
         inkscape:connector-curvature="0"
         d="m 46.9941,317 h 95.0119 c 8.833,0 15.994,7.163 15.994,16 0,8.837 -7.161,16 -15.994,16 H 46.9941 C 38.1608,349 31,341.837 31,333 c 0,-8.837 7.1608,-16 15.9941,-16"
         id="path1152" />
    </g>
    <g
       style="font-style:normal;font-weight:400;font-size:10px;font-family:Ubuntu;fill:#000000;fill-opacity:0.6;stroke:none"
       transform="matrix(0.35277735,0,0,0.35277735,-6.1231443,166.01561)"
       font-size="10"
       font-weight="400"
       font-style="normal"
       id="g1160">
      <path
         style="vector-effect:none;fill-rule:nonzero"
         inkscape:connector-curvature="0"
         d="m 44.1563,327.516 h 1.2812 v 8.406 h 4.6094 V 337 h -5.8906 v -9.484 m 7.1718,2.375 H 52.5 V 337 h -1.1719 v -7.109 m 0,-2.766 H 52.5 v 1.484 h -1.1719 v -1.484 m 2.7813,2.766 h 1.2344 l 2.2187,5.968 2.2188,-5.968 h 1.25 L 58.3594,337 h -1.5938 l -2.6562,-7.109 m 8.5156,0 h 1.1719 V 337 H 62.625 v -7.109 m 0,-2.766 h 1.1719 v 1.484 H 62.625 v -1.484 m 9.5313,5.578 V 337 h -1.1719 v -4.25 c 0,-0.677 -0.1302,-1.182 -0.3906,-1.516 -0.2605,-0.333 -0.6563,-0.5 -1.1875,-0.5 -0.625,0 -1.1198,0.201 -1.4844,0.602 -0.3646,0.401 -0.5469,0.95 -0.5469,1.648 V 337 h -1.1719 v -7.109 H 67.375 V 331 c 0.2813,-0.427 0.6094,-0.747 0.9844,-0.961 0.375,-0.213 0.8125,-0.32 1.3125,-0.32 0.8125,0 1.4297,0.252 1.8515,0.758 0.4219,0.505 0.6329,1.247 0.6329,2.226 m 7,0.656 c 0,-0.843 -0.1745,-1.497 -0.5235,-1.961 -0.3489,-0.463 -0.8411,-0.695 -1.4765,-0.695 -0.625,0 -1.112,0.232 -1.461,0.695 -0.3489,0.464 -0.5234,1.118 -0.5234,1.961 0,0.844 0.1745,1.498 0.5234,1.961 0.349,0.464 0.836,0.696 1.461,0.696 0.6354,0 1.1276,-0.232 1.4765,-0.696 0.349,-0.463 0.5235,-1.117 0.5235,-1.961 m 1.1718,2.766 c 0,1.208 -0.2708,2.107 -0.8125,2.695 -0.5416,0.589 -1.3646,0.883 -2.4687,0.883 -0.4063,0 -0.7917,-0.031 -1.1563,-0.094 -0.3646,-0.062 -0.7187,-0.156 -1.0625,-0.281 v -1.14 c 0.3438,0.187 0.6823,0.325 1.0157,0.414 0.3333,0.088 0.6718,0.132 1.0156,0.132 0.7708,0 1.3463,-0.198 1.7265,-0.593 0.3802,-0.396 0.5704,-1 0.5704,-1.813 v -0.578 c -0.2396,0.417 -0.5495,0.729 -0.9297,0.938 -0.3802,0.208 -0.8308,0.312 -1.3516,0.312 -0.875,0 -1.5781,-0.333 -2.1094,-1 -0.5312,-0.667 -0.7968,-1.547 -0.7968,-2.641 0,-1.093 0.2656,-1.974 0.7968,-2.64 0.5313,-0.667 1.2344,-1 2.1094,-1 0.5208,0 0.9714,0.104 1.3516,0.312 0.3802,0.209 0.6901,0.521 0.9297,0.938 v -1.078 h 1.1718 v 6.234 m 6.5157,-6.234 h 1.1718 V 337 h -1.1718 v -7.109 m 0,-2.766 h 1.1718 v 1.484 h -1.1718 v -1.484 m 9.5312,5.578 V 337 h -1.1719 v -4.25 c 0,-0.677 -0.1302,-1.182 -0.3906,-1.516 -0.2604,-0.333 -0.6562,-0.5 -1.1875,-0.5 -0.625,0 -1.1198,0.201 -1.4844,0.602 -0.3646,0.401 -0.5468,0.95 -0.5468,1.648 V 337 h -1.1719 v -7.109 h 1.1719 V 331 c 0.2812,-0.427 0.6093,-0.747 0.9843,-0.961 0.375,-0.213 0.8125,-0.32 1.3125,-0.32 0.8125,0 1.4297,0.252 1.8516,0.758 0.4219,0.505 0.6328,1.247 0.6328,2.226 m 6.5,-5.187 h 1.719 l 4.203,7.937 v -7.937 h 1.25 V 337 h -1.734 l -4.204,-7.922 V 337 h -1.234 v -9.484 m 12.891,5.906 c -0.938,0 -1.589,0.109 -1.953,0.328 -0.365,0.219 -0.547,0.589 -0.547,1.109 0,0.407 0.135,0.732 0.406,0.977 0.271,0.245 0.641,0.367 1.109,0.367 0.646,0 1.167,-0.229 1.563,-0.687 0.396,-0.459 0.594,-1.068 0.594,-1.828 v -0.266 h -1.172 m 2.328,-0.484 V 337 h -1.156 v -1.078 c -0.271,0.427 -0.605,0.745 -1,0.953 -0.396,0.208 -0.886,0.313 -1.469,0.313 -0.729,0 -1.308,-0.206 -1.735,-0.618 -0.427,-0.411 -0.64,-0.955 -0.64,-1.632 0,-0.803 0.268,-1.407 0.804,-1.813 0.537,-0.406 1.336,-0.609 2.399,-0.609 h 1.641 v -0.125 c 0,-0.532 -0.178,-0.946 -0.532,-1.243 -0.354,-0.296 -0.854,-0.445 -1.5,-0.445 -0.406,0 -0.802,0.05 -1.187,0.149 -0.386,0.099 -0.755,0.247 -1.11,0.445 v -1.078 c 0.427,-0.167 0.844,-0.292 1.25,-0.375 0.407,-0.084 0.797,-0.125 1.172,-0.125 1.032,0 1.8,0.265 2.305,0.797 0.505,0.531 0.758,1.338 0.758,2.422 m 3.547,-5.063 v 2.016 h 2.406 v 0.906 h -2.406 v 3.859 c 0,0.584 0.08,0.956 0.242,1.117 0.161,0.162 0.487,0.243 0.976,0.243 h 1.188 V 337 h -1.188 c -0.906,0 -1.531,-0.169 -1.875,-0.508 -0.343,-0.338 -0.515,-0.95 -0.515,-1.836 v -3.859 h -0.86 v -0.906 h 0.86 v -2.016 h 1.172 m 3.828,6.313 v -4.297 h 1.156 v 4.265 c 0,0.667 0.133,1.17 0.398,1.508 0.266,0.339 0.659,0.508 1.18,0.508 0.636,0 1.136,-0.201 1.5,-0.602 0.365,-0.401 0.547,-0.95 0.547,-1.648 v -4.031 h 1.172 V 337 h -1.172 v -1.094 c -0.281,0.438 -0.609,0.761 -0.984,0.969 -0.375,0.208 -0.813,0.313 -1.313,0.313 -0.812,0 -1.43,-0.256 -1.851,-0.766 -0.422,-0.511 -0.633,-1.255 -0.633,-2.234 m 12.469,-3.204 c -0.136,-0.073 -0.279,-0.127 -0.43,-0.164 -0.151,-0.036 -0.32,-0.054 -0.508,-0.054 -0.656,0 -1.161,0.213 -1.516,0.64 -0.354,0.427 -0.531,1.042 -0.531,1.844 V 337 h -1.172 v -7.109 h 1.172 V 331 c 0.24,-0.437 0.557,-0.76 0.953,-0.969 0.396,-0.208 0.875,-0.312 1.438,-0.312 0.083,0 0.172,0.005 0.265,0.015 0.094,0.011 0.204,0.026 0.329,0.047 v 1.203 m 7.312,2.172 v 0.563 h -5.375 c 0.052,0.812 0.294,1.427 0.727,1.844 0.432,0.416 1.033,0.625 1.804,0.625 0.448,0 0.883,-0.055 1.305,-0.165 0.422,-0.109 0.841,-0.273 1.258,-0.492 v 1.11 c -0.417,0.177 -0.847,0.312 -1.289,0.406 -0.443,0.094 -0.888,0.141 -1.336,0.141 -1.136,0 -2.034,-0.331 -2.696,-0.993 -0.661,-0.661 -0.992,-1.554 -0.992,-2.679 0,-1.167 0.315,-2.092 0.946,-2.774 0.63,-0.682 1.476,-1.023 2.539,-1.023 0.958,0 1.716,0.307 2.273,0.922 0.557,0.614 0.836,1.453 0.836,2.515 m -1.172,-0.343 c -0.01,-0.636 -0.19,-1.146 -0.539,-1.532 -0.349,-0.385 -0.81,-0.578 -1.383,-0.578 -0.656,0 -1.179,0.185 -1.57,0.555 -0.391,0.37 -0.617,0.888 -0.68,1.555 h 4.172"
         id="path1158" />
    </g>
    <g
       style="font-style:normal;font-weight:400;font-size:10px;font-family:Ubuntu;fill:#333333;fill-opacity:1;stroke:none"
       transform="matrix(0.53608004,0,0,0.53608004,-46.827368,172.13786)"
       font-size="10"
       font-weight="400"
       font-style="normal"
       id="g1024">
      <path
         style="vector-effect:none;fill-rule:nonzero"
         inkscape:connector-curvature="0"
         d="m 183.172,209.516 h 1.234 V 211 h -1.234 v -1.484 m 3.812,0 h 1.235 V 211 h -1.235 v -1.484 m 3.813,0 h 1.234 V 211 h -1.234 v -1.484"
         id="path1022" />
    </g>
  </g>
</svg>
